STARTFONT 2.1
FONT -Z Labs Bitmap HC-Regular-R-Regular--12-12-75-75-c-80-iso10646-1
SIZE 12 75 75
FONTBOUNDINGBOX 12 12 0 -2
STARTPROPERTIES 10
FAMILY_NAME "Z Labs Bitmap HC"
WEIGHT_NAME "Regular"
FONT_VERSION "Version 0.8_HC"
COPYRIGHT "Copyright (c) 2023-2025, Astro_2539 (https://github.com/Astro-2539)"
FONT_ASCENT 10
FONT_DESCENT 2
POINT_SIZE 12
X_HEIGHT 0
CAP_HEIGHT 8
ENDPROPERTIES
CHARS 6912
STARTCHAR U+0000
ENCODING 0
SWIDTH 1000 0
DWIDTH 12 0
BBX 11 12 0 -2
BITMAP
DB60
8020
0000
9540
D540
B540
B540
9540
9360
0000
8020
DB60
ENDCHAR
STARTCHAR U+0001
ENCODING 1
SWIDTH 1000 0
DWIDTH 12 0
BBX 11 12 0 -2
BITMAP
DB60
8020
0000
64A0
8AA0
4AE0
2AA0
2AA0
C4A0
0000
8020
DB60
ENDCHAR
STARTCHAR U+0002
ENCODING 2
SWIDTH 1000 0
DWIDTH 12 0
BBX 11 12 0 -2
BITMAP
DB60
8020
0000
6EA0
84A0
4440
24A0
24A0
C4A0
0000
8020
DB60
ENDCHAR
STARTCHAR U+0003
ENCODING 3
SWIDTH 1000 0
DWIDTH 12 0
BBX 11 12 0 -2
BITMAP
DB60
8020
0000
EEA0
84A0
E440
84A0
84A0
E4A0
0000
8020
DB60
ENDCHAR
STARTCHAR U+0004
ENCODING 4
SWIDTH 1000 0
DWIDTH 12 0
BBX 11 12 0 -2
BITMAP
DB60
8020
0000
E4E0
8A40
EA40
8A40
8A40
E440
0000
8020
DB60
ENDCHAR
STARTCHAR U+0005
ENCODING 5
SWIDTH 1000 0
DWIDTH 12 0
BBX 11 12 0 -2
BITMAP
DB60
8020
0000
D2E0
9AA0
D6A0
92A0
92C0
D220
0000
8020
DB60
ENDCHAR
STARTCHAR U+0006
ENCODING 6
SWIDTH 1000 0
DWIDTH 12 0
BBX 11 12 0 -2
BITMAP
DB60
8020
0000
46A0
A8A0
E8C0
A8A0
A8A0
A6A0
0000
8020
DB60
ENDCHAR
STARTCHAR U+0007
ENCODING 7
SWIDTH 1000 0
DWIDTH 12 0
BBX 11 12 0 -2
BITMAP
DB60
8020
0000
CE80
A880
CE80
A880
A880
CEE0
0000
8020
DB60
ENDCHAR
STARTCHAR U+0008
ENCODING 8
SWIDTH 1000 0
DWIDTH 12 0
BBX 11 12 0 -2
BITMAP
DB60
8020
0000
B1A0
AA20
3100
2880
A8A0
B320
0000
8020
DB60
ENDCHAR
STARTCHAR U+0009
ENCODING 9
SWIDTH 1000 0
DWIDTH 12 0
BBX 11 12 0 -2
BITMAP
DB60
8020
0000
ABA0
A920
3900
2900
A920
A920
0000
8020
DB60
ENDCHAR
STARTCHAR U+000A
ENCODING 10
SWIDTH 1000 0
DWIDTH 12 0
BBX 11 12 0 -2
BITMAP
DB60
8020
0000
A3A0
A220
2380
2200
A220
BA20
0000
8020
DB60
ENDCHAR
STARTCHAR U+000B
ENCODING 11
SWIDTH 1000 0
DWIDTH 12 0
BBX 11 12 0 -2
BITMAP
DB60
8020
0000
ABA0
A920
2900
2900
A920
9120
0000
8020
DB60
ENDCHAR
STARTCHAR U+000C
ENCODING 12
SWIDTH 1000 0
DWIDTH 12 0
BBX 11 12 0 -2
BITMAP
DB60
8020
0000
BBA0
A220
3B80
2200
A220
A220
0000
8020
DB60
ENDCHAR
STARTCHAR U+000D
ENCODING 13
SWIDTH 1000 0
DWIDTH 12 0
BBX 11 12 0 -2
BITMAP
DB60
8020
0000
9B20
A2A0
2300
2280
A2A0
9AA0
0000
8020
DB60
ENDCHAR
STARTCHAR U+000E
ENCODING 14
SWIDTH 1000 0
DWIDTH 12 0
BBX 11 12 0 -2
BITMAP
DB60
8020
0000
9920
A2A0
1280
0A80
8AA0
B120
0000
8020
DB60
ENDCHAR
STARTCHAR U+000F
ENCODING 15
SWIDTH 1000 0
DWIDTH 12 0
BBX 11 12 0 -2
BITMAP
DB60
8020
0000
9BA0
A120
1100
0900
8920
B3A0
0000
8020
DB60
ENDCHAR
STARTCHAR U+0010
ENCODING 16
SWIDTH 1000 0
DWIDTH 12 0
BBX 11 12 0 -2
BITMAP
DB60
8020
0000
C8E0
A880
A8E0
A880
A880
CEE0
0000
8020
DB60
ENDCHAR
STARTCHAR U+0011
ENCODING 17
SWIDTH 1000 0
DWIDTH 12 0
BBX 11 12 0 -2
BITMAP
DB60
8020
0000
C640
A8C0
A840
A840
A840
C640
0000
8020
DB60
ENDCHAR
STARTCHAR U+0012
ENCODING 18
SWIDTH 1000 0
DWIDTH 12 0
BBX 11 12 0 -2
BITMAP
DB60
8020
0000
C6C0
A820
A820
A840
A880
C6E0
0000
8020
DB60
ENDCHAR
STARTCHAR U+0013
ENCODING 19
SWIDTH 1000 0
DWIDTH 12 0
BBX 11 12 0 -2
BITMAP
DB60
8020
0000
C6C0
A820
A840
A820
A820
C6C0
0000
8020
DB60
ENDCHAR
STARTCHAR U+0014
ENCODING 20
SWIDTH 1000 0
DWIDTH 12 0
BBX 11 12 0 -2
BITMAP
DB60
8020
0000
C6A0
A8A0
A8A0
A860
A820
C620
0000
8020
DB60
ENDCHAR
STARTCHAR U+0015
ENCODING 21
SWIDTH 1000 0
DWIDTH 12 0
BBX 11 12 0 -2
BITMAP
DB60
8020
0000
94A0
DAA0
BEC0
9AA0
9AA0
9AA0
0000
8020
DB60
ENDCHAR
STARTCHAR U+0016
ENCODING 22
SWIDTH 1000 0
DWIDTH 12 0
BBX 11 12 0 -2
BITMAP
DB60
8020
0000
7520
95A0
4960
2920
2920
C920
0000
8020
DB60
ENDCHAR
STARTCHAR U+0017
ENCODING 23
SWIDTH 1000 0
DWIDTH 12 0
BBX 11 12 0 -2
BITMAP
DB60
8020
0000
EEC0
84A0
E4C0
84A0
84A0
E4C0
0000
8020
DB60
ENDCHAR
STARTCHAR U+0018
ENCODING 24
SWIDTH 1000 0
DWIDTH 12 0
BBX 11 12 0 -2
BITMAP
DB60
8020
0000
C920
95A0
9D60
9560
9520
D520
0000
8020
DB60
ENDCHAR
STARTCHAR U+0019
ENCODING 25
SWIDTH 1000 0
DWIDTH 12 0
BBX 11 12 0 -2
BITMAP
DB60
8020
0000
FA20
8360
F2A0
8220
8220
FA20
0000
8020
DB60
ENDCHAR
STARTCHAR U+001A
ENCODING 26
SWIDTH 1000 0
DWIDTH 12 0
BBX 11 12 0 -2
BITMAP
DB60
8020
0000
6AC0
8AA0
4AC0
2AA0
2AA0
CEC0
0000
8020
DB60
ENDCHAR
STARTCHAR U+001B
ENCODING 27
SWIDTH 1000 0
DWIDTH 12 0
BBX 11 12 0 -2
BITMAP
DB60
8020
0000
E660
8880
E480
8280
8280
EC60
0000
8020
DB60
ENDCHAR
STARTCHAR U+001C
ENCODING 28
SWIDTH 1000 0
DWIDTH 12 0
BBX 11 12 0 -2
BITMAP
DB60
8020
0000
B9A0
A220
3900
2080
A0A0
A320
0000
8020
DB60
ENDCHAR
STARTCHAR U+001D
ENCODING 29
SWIDTH 1000 0
DWIDTH 12 0
BBX 11 12 0 -2
BITMAP
DB60
8020
0000
99A0
A220
2900
2880
A8A0
9B20
0000
8020
DB60
ENDCHAR
STARTCHAR U+001E
ENCODING 30
SWIDTH 1000 0
DWIDTH 12 0
BBX 11 12 0 -2
BITMAP
DB60
8020
0000
B1A0
AA20
3100
2880
A8A0
AB20
0000
8020
DB60
ENDCHAR
STARTCHAR U+001F
ENCODING 31
SWIDTH 1000 0
DWIDTH 12 0
BBX 11 12 0 -2
BITMAP
DB60
8020
0000
A9A0
AA20
2900
2880
A8A0
BB20
0000
8020
DB60
ENDCHAR
STARTCHAR U+0020
ENCODING 32
SWIDTH 500 0
DWIDTH 6 0
BBX 0 0 0 0
BITMAP
ENDCHAR
STARTCHAR U+0021
ENCODING 33
SWIDTH 500 0
DWIDTH 6 0
BBX 1 8 2 0
BITMAP
80
80
80
80
80
80
00
80
ENDCHAR
STARTCHAR U+0022
ENCODING 34
SWIDTH 500 0
DWIDTH 6 0
BBX 3 3 1 5
BITMAP
A0
A0
A0
ENDCHAR
STARTCHAR U+0023
ENCODING 35
SWIDTH 500 0
DWIDTH 6 0
BBX 5 8 0 0
BITMAP
50
50
F8
50
50
F8
50
50
ENDCHAR
STARTCHAR U+0024
ENCODING 36
SWIDTH 500 0
DWIDTH 6 0
BBX 5 10 0 -1
BITMAP
20
20
70
A8
60
30
A8
70
20
20
ENDCHAR
STARTCHAR U+0025
ENCODING 37
SWIDTH 500 0
DWIDTH 6 0
BBX 5 7 0 0
BITMAP
60
A8
D0
20
58
A8
30
ENDCHAR
STARTCHAR U+0026
ENCODING 38
SWIDTH 500 0
DWIDTH 6 0
BBX 5 7 0 0
BITMAP
60
90
A0
40
A8
90
68
ENDCHAR
STARTCHAR U+0027
ENCODING 39
SWIDTH 500 0
DWIDTH 6 0
BBX 1 3 2 5
BITMAP
80
80
80
ENDCHAR
STARTCHAR U+0028
ENCODING 40
SWIDTH 500 0
DWIDTH 6 0
BBX 3 10 1 -1
BITMAP
20
40
40
80
80
80
80
40
40
20
ENDCHAR
STARTCHAR U+0029
ENCODING 41
SWIDTH 500 0
DWIDTH 6 0
BBX 3 10 1 -1
BITMAP
80
40
40
20
20
20
20
40
40
80
ENDCHAR
STARTCHAR U+002A
ENCODING 42
SWIDTH 500 0
DWIDTH 6 0
BBX 5 6 0 1
BITMAP
20
A8
70
70
A8
20
ENDCHAR
STARTCHAR U+002B
ENCODING 43
SWIDTH 500 0
DWIDTH 6 0
BBX 5 5 0 1
BITMAP
20
20
F8
20
20
ENDCHAR
STARTCHAR U+002C
ENCODING 44
SWIDTH 500 0
DWIDTH 6 0
BBX 2 3 1 -2
BITMAP
40
40
80
ENDCHAR
STARTCHAR U+002D
ENCODING 45
SWIDTH 500 0
DWIDTH 6 0
BBX 5 1 0 3
BITMAP
F8
ENDCHAR
STARTCHAR U+002E
ENCODING 46
SWIDTH 500 0
DWIDTH 6 0
BBX 1 1 2 0
BITMAP
80
ENDCHAR
STARTCHAR U+002F
ENCODING 47
SWIDTH 500 0
DWIDTH 6 0
BBX 5 10 0 -1
BITMAP
08
08
10
10
20
20
40
40
80
80
ENDCHAR
STARTCHAR U+0030
ENCODING 48
SWIDTH 500 0
DWIDTH 6 0
BBX 5 8 0 0
BITMAP
70
88
98
A8
C8
88
88
70
ENDCHAR
STARTCHAR U+0031
ENCODING 49
SWIDTH 500 0
DWIDTH 6 0
BBX 2 8 1 0
BITMAP
40
C0
40
40
40
40
40
40
ENDCHAR
STARTCHAR U+0032
ENCODING 50
SWIDTH 500 0
DWIDTH 6 0
BBX 5 8 0 0
BITMAP
70
88
08
30
40
80
80
F8
ENDCHAR
STARTCHAR U+0033
ENCODING 51
SWIDTH 500 0
DWIDTH 6 0
BBX 5 8 0 0
BITMAP
F8
08
10
20
10
08
88
70
ENDCHAR
STARTCHAR U+0034
ENCODING 52
SWIDTH 500 0
DWIDTH 6 0
BBX 5 8 0 0
BITMAP
10
30
50
50
90
F8
10
10
ENDCHAR
STARTCHAR U+0035
ENCODING 53
SWIDTH 500 0
DWIDTH 6 0
BBX 5 8 0 0
BITMAP
F8
80
80
F0
08
08
88
70
ENDCHAR
STARTCHAR U+0036
ENCODING 54
SWIDTH 500 0
DWIDTH 6 0
BBX 5 8 0 0
BITMAP
70
88
80
F0
88
88
88
70
ENDCHAR
STARTCHAR U+0037
ENCODING 55
SWIDTH 500 0
DWIDTH 6 0
BBX 5 8 0 0
BITMAP
F8
08
10
10
10
20
20
20
ENDCHAR
STARTCHAR U+0038
ENCODING 56
SWIDTH 500 0
DWIDTH 6 0
BBX 5 8 0 0
BITMAP
70
88
88
70
88
88
88
70
ENDCHAR
STARTCHAR U+0039
ENCODING 57
SWIDTH 500 0
DWIDTH 6 0
BBX 5 8 0 0
BITMAP
70
88
88
88
78
08
88
70
ENDCHAR
STARTCHAR U+003A
ENCODING 58
SWIDTH 500 0
DWIDTH 6 0
BBX 1 4 2 1
BITMAP
80
00
00
80
ENDCHAR
STARTCHAR U+003B
ENCODING 59
SWIDTH 500 0
DWIDTH 6 0
BBX 2 5 1 0
BITMAP
40
00
00
40
80
ENDCHAR
STARTCHAR U+003C
ENCODING 60
SWIDTH 500 0
DWIDTH 6 0
BBX 5 9 0 -1
BITMAP
08
10
20
40
80
40
20
10
08
ENDCHAR
STARTCHAR U+003D
ENCODING 61
SWIDTH 500 0
DWIDTH 6 0
BBX 5 4 0 2
BITMAP
F8
00
00
F8
ENDCHAR
STARTCHAR U+003E
ENCODING 62
SWIDTH 500 0
DWIDTH 6 0
BBX 5 9 0 -1
BITMAP
80
40
20
10
08
10
20
40
80
ENDCHAR
STARTCHAR U+003F
ENCODING 63
SWIDTH 500 0
DWIDTH 6 0
BBX 5 8 0 0
BITMAP
70
88
08
10
20
20
00
20
ENDCHAR
STARTCHAR U+0040
ENCODING 64
SWIDTH 500 0
DWIDTH 6 0
BBX 5 9 0 -1
BITMAP
70
88
98
A8
A8
A8
90
80
78
ENDCHAR
STARTCHAR U+0041
ENCODING 65
SWIDTH 500 0
DWIDTH 6 0
BBX 5 8 0 0
BITMAP
20
20
50
50
70
88
88
88
ENDCHAR
STARTCHAR U+0042
ENCODING 66
SWIDTH 500 0
DWIDTH 6 0
BBX 5 8 0 0
BITMAP
F0
88
88
F0
88
88
88
F0
ENDCHAR
STARTCHAR U+0043
ENCODING 67
SWIDTH 500 0
DWIDTH 6 0
BBX 5 8 0 0
BITMAP
70
88
80
80
80
80
88
70
ENDCHAR
STARTCHAR U+0044
ENCODING 68
SWIDTH 500 0
DWIDTH 6 0
BBX 5 8 0 0
BITMAP
F0
88
88
88
88
88
88
F0
ENDCHAR
STARTCHAR U+0045
ENCODING 69
SWIDTH 500 0
DWIDTH 6 0
BBX 5 8 0 0
BITMAP
F8
80
80
F0
80
80
80
F8
ENDCHAR
STARTCHAR U+0046
ENCODING 70
SWIDTH 500 0
DWIDTH 6 0
BBX 5 8 0 0
BITMAP
F8
80
80
F0
80
80
80
80
ENDCHAR
STARTCHAR U+0047
ENCODING 71
SWIDTH 500 0
DWIDTH 6 0
BBX 5 8 0 0
BITMAP
70
88
80
B8
88
88
98
68
ENDCHAR
STARTCHAR U+0048
ENCODING 72
SWIDTH 500 0
DWIDTH 6 0
BBX 5 8 0 0
BITMAP
88
88
88
F8
88
88
88
88
ENDCHAR
STARTCHAR U+0049
ENCODING 73
SWIDTH 500 0
DWIDTH 6 0
BBX 3 8 1 0
BITMAP
E0
40
40
40
40
40
40
E0
ENDCHAR
STARTCHAR U+004A
ENCODING 74
SWIDTH 500 0
DWIDTH 6 0
BBX 5 8 0 0
BITMAP
08
08
08
08
08
88
88
70
ENDCHAR
STARTCHAR U+004B
ENCODING 75
SWIDTH 500 0
DWIDTH 6 0
BBX 5 8 0 0
BITMAP
88
90
A0
C0
A0
90
88
88
ENDCHAR
STARTCHAR U+004C
ENCODING 76
SWIDTH 500 0
DWIDTH 6 0
BBX 5 8 0 0
BITMAP
80
80
80
80
80
80
80
F8
ENDCHAR
STARTCHAR U+004D
ENCODING 77
SWIDTH 500 0
DWIDTH 6 0
BBX 5 8 0 0
BITMAP
88
D8
A8
A8
88
88
88
88
ENDCHAR
STARTCHAR U+004E
ENCODING 78
SWIDTH 500 0
DWIDTH 6 0
BBX 5 8 0 0
BITMAP
88
C8
C8
A8
A8
98
98
88
ENDCHAR
STARTCHAR U+004F
ENCODING 79
SWIDTH 500 0
DWIDTH 6 0
BBX 5 8 0 0
BITMAP
70
88
88
88
88
88
88
70
ENDCHAR
STARTCHAR U+0050
ENCODING 80
SWIDTH 500 0
DWIDTH 6 0
BBX 5 8 0 0
BITMAP
F0
88
88
88
F0
80
80
80
ENDCHAR
STARTCHAR U+0051
ENCODING 81
SWIDTH 500 0
DWIDTH 6 0
BBX 5 8 0 0
BITMAP
70
88
88
88
88
A8
90
68
ENDCHAR
STARTCHAR U+0052
ENCODING 82
SWIDTH 500 0
DWIDTH 6 0
BBX 5 8 0 0
BITMAP
F0
88
88
88
F0
90
88
88
ENDCHAR
STARTCHAR U+0053
ENCODING 83
SWIDTH 500 0
DWIDTH 6 0
BBX 5 8 0 0
BITMAP
70
88
80
60
10
08
88
70
ENDCHAR
STARTCHAR U+0054
ENCODING 84
SWIDTH 500 0
DWIDTH 6 0
BBX 5 8 0 0
BITMAP
F8
20
20
20
20
20
20
20
ENDCHAR
STARTCHAR U+0055
ENCODING 85
SWIDTH 500 0
DWIDTH 6 0
BBX 5 8 0 0
BITMAP
88
88
88
88
88
88
88
70
ENDCHAR
STARTCHAR U+0056
ENCODING 86
SWIDTH 500 0
DWIDTH 6 0
BBX 5 8 0 0
BITMAP
88
88
88
88
50
50
20
20
ENDCHAR
STARTCHAR U+0057
ENCODING 87
SWIDTH 500 0
DWIDTH 6 0
BBX 5 8 0 0
BITMAP
88
88
88
A8
A8
50
50
50
ENDCHAR
STARTCHAR U+0058
ENCODING 88
SWIDTH 500 0
DWIDTH 6 0
BBX 5 8 0 0
BITMAP
88
88
50
20
20
50
88
88
ENDCHAR
STARTCHAR U+0059
ENCODING 89
SWIDTH 500 0
DWIDTH 6 0
BBX 5 8 0 0
BITMAP
88
88
50
50
20
20
20
20
ENDCHAR
STARTCHAR U+005A
ENCODING 90
SWIDTH 500 0
DWIDTH 6 0
BBX 5 8 0 0
BITMAP
F8
10
10
20
20
40
40
F8
ENDCHAR
STARTCHAR U+005B
ENCODING 91
SWIDTH 500 0
DWIDTH 6 0
BBX 3 10 1 -1
BITMAP
E0
80
80
80
80
80
80
80
80
E0
ENDCHAR
STARTCHAR U+005C
ENCODING 92
SWIDTH 500 0
DWIDTH 6 0
BBX 5 10 0 -1
BITMAP
80
80
40
40
20
20
10
10
08
08
ENDCHAR
STARTCHAR U+005D
ENCODING 93
SWIDTH 500 0
DWIDTH 6 0
BBX 3 10 1 -1
BITMAP
E0
20
20
20
20
20
20
20
20
E0
ENDCHAR
STARTCHAR U+005E
ENCODING 94
SWIDTH 500 0
DWIDTH 6 0
BBX 5 3 0 5
BITMAP
20
50
88
ENDCHAR
STARTCHAR U+005F
ENCODING 95
SWIDTH 500 0
DWIDTH 6 0
BBX 5 1 0 0
BITMAP
F8
ENDCHAR
STARTCHAR U+0060
ENCODING 96
SWIDTH 500 0
DWIDTH 6 0
BBX 2 2 1 6
BITMAP
80
40
ENDCHAR
STARTCHAR U+0061
ENCODING 97
SWIDTH 500 0
DWIDTH 6 0
BBX 5 6 0 0
BITMAP
68
98
88
88
98
68
ENDCHAR
STARTCHAR U+0062
ENCODING 98
SWIDTH 500 0
DWIDTH 6 0
BBX 5 8 0 0
BITMAP
80
80
B0
C8
88
88
C8
B0
ENDCHAR
STARTCHAR U+0063
ENCODING 99
SWIDTH 500 0
DWIDTH 6 0
BBX 5 6 0 0
BITMAP
70
88
80
80
88
70
ENDCHAR
STARTCHAR U+0064
ENCODING 100
SWIDTH 500 0
DWIDTH 6 0
BBX 5 8 0 0
BITMAP
08
08
68
98
88
88
98
68
ENDCHAR
STARTCHAR U+0065
ENCODING 101
SWIDTH 500 0
DWIDTH 6 0
BBX 5 6 0 0
BITMAP
70
88
F8
80
88
70
ENDCHAR
STARTCHAR U+0066
ENCODING 102
SWIDTH 500 0
DWIDTH 6 0
BBX 5 8 0 0
BITMAP
18
20
20
F8
20
20
20
20
ENDCHAR
STARTCHAR U+0067
ENCODING 103
SWIDTH 500 0
DWIDTH 6 0
BBX 5 8 0 -2
BITMAP
68
98
88
98
68
08
88
70
ENDCHAR
STARTCHAR U+0068
ENCODING 104
SWIDTH 500 0
DWIDTH 6 0
BBX 5 8 0 0
BITMAP
80
80
B0
C8
88
88
88
88
ENDCHAR
STARTCHAR U+0069
ENCODING 105
SWIDTH 500 0
DWIDTH 6 0
BBX 3 8 1 0
BITMAP
40
00
C0
40
40
40
40
E0
ENDCHAR
STARTCHAR U+006A
ENCODING 106
SWIDTH 500 0
DWIDTH 6 0
BBX 4 10 0 -2
BITMAP
10
00
30
10
10
10
10
10
90
60
ENDCHAR
STARTCHAR U+006B
ENCODING 107
SWIDTH 500 0
DWIDTH 6 0
BBX 5 8 0 0
BITMAP
80
80
88
90
E0
A0
90
88
ENDCHAR
STARTCHAR U+006C
ENCODING 108
SWIDTH 500 0
DWIDTH 6 0
BBX 3 8 1 0
BITMAP
C0
40
40
40
40
40
40
E0
ENDCHAR
STARTCHAR U+006D
ENCODING 109
SWIDTH 500 0
DWIDTH 6 0
BBX 5 6 0 0
BITMAP
D0
A8
A8
A8
A8
A8
ENDCHAR
STARTCHAR U+006E
ENCODING 110
SWIDTH 500 0
DWIDTH 6 0
BBX 5 6 0 0
BITMAP
B0
C8
88
88
88
88
ENDCHAR
STARTCHAR U+006F
ENCODING 111
SWIDTH 500 0
DWIDTH 6 0
BBX 5 6 0 0
BITMAP
70
88
88
88
88
70
ENDCHAR
STARTCHAR U+0070
ENCODING 112
SWIDTH 500 0
DWIDTH 6 0
BBX 5 8 0 -2
BITMAP
B0
C8
88
88
C8
B0
80
80
ENDCHAR
STARTCHAR U+0071
ENCODING 113
SWIDTH 500 0
DWIDTH 6 0
BBX 5 8 0 -2
BITMAP
68
98
88
88
98
68
08
08
ENDCHAR
STARTCHAR U+0072
ENCODING 114
SWIDTH 500 0
DWIDTH 6 0
BBX 5 6 0 0
BITMAP
B0
C8
80
80
80
80
ENDCHAR
STARTCHAR U+0073
ENCODING 115
SWIDTH 500 0
DWIDTH 6 0
BBX 5 6 0 0
BITMAP
70
88
60
10
88
70
ENDCHAR
STARTCHAR U+0074
ENCODING 116
SWIDTH 500 0
DWIDTH 6 0
BBX 5 8 0 0
BITMAP
40
40
F0
40
40
40
48
30
ENDCHAR
STARTCHAR U+0075
ENCODING 117
SWIDTH 500 0
DWIDTH 6 0
BBX 5 6 0 0
BITMAP
88
88
88
88
98
68
ENDCHAR
STARTCHAR U+0076
ENCODING 118
SWIDTH 500 0
DWIDTH 6 0
BBX 5 6 0 0
BITMAP
88
88
88
50
50
20
ENDCHAR
STARTCHAR U+0077
ENCODING 119
SWIDTH 500 0
DWIDTH 6 0
BBX 5 6 0 0
BITMAP
88
88
A8
A8
50
50
ENDCHAR
STARTCHAR U+0078
ENCODING 120
SWIDTH 500 0
DWIDTH 6 0
BBX 5 6 0 0
BITMAP
88
50
20
20
50
88
ENDCHAR
STARTCHAR U+0079
ENCODING 121
SWIDTH 500 0
DWIDTH 6 0
BBX 5 8 0 -2
BITMAP
88
88
88
98
68
08
90
60
ENDCHAR
STARTCHAR U+007A
ENCODING 122
SWIDTH 500 0
DWIDTH 6 0
BBX 5 6 0 0
BITMAP
F8
10
20
40
80
F8
ENDCHAR
STARTCHAR U+007B
ENCODING 123
SWIDTH 500 0
DWIDTH 6 0
BBX 3 10 1 -1
BITMAP
20
40
40
40
80
40
40
40
40
20
ENDCHAR
STARTCHAR U+007C
ENCODING 124
SWIDTH 500 0
DWIDTH 6 0
BBX 1 10 2 -1
BITMAP
80
80
80
80
80
80
80
80
80
80
ENDCHAR
STARTCHAR U+007D
ENCODING 125
SWIDTH 500 0
DWIDTH 6 0
BBX 3 10 1 -1
BITMAP
80
40
40
40
20
40
40
40
40
80
ENDCHAR
STARTCHAR U+007E
ENCODING 126
SWIDTH 500 0
DWIDTH 6 0
BBX 5 3 0 5
BITMAP
40
A8
10
ENDCHAR
STARTCHAR U+007F
ENCODING 127
SWIDTH 1000 0
DWIDTH 12 0
BBX 11 12 0 -2
BITMAP
DB60
8020
0000
CE80
A880
AE80
A880
A880
CEE0
0000
8020
DB60
ENDCHAR
STARTCHAR U+0080
ENCODING 128
SWIDTH 1000 0
DWIDTH 12 0
BBX 11 12 0 -2
BITMAP
DB60
8020
0000
AAA0
AAA0
4440
AAA0
AAA0
AAA0
0000
8020
DB60
ENDCHAR
STARTCHAR U+0081
ENCODING 129
SWIDTH 1000 0
DWIDTH 12 0
BBX 11 12 0 -2
BITMAP
DB60
8020
0000
AAA0
AAA0
4440
AAA0
AAA0
AAA0
0000
8020
DB60
ENDCHAR
STARTCHAR U+0082
ENCODING 130
SWIDTH 1000 0
DWIDTH 12 0
BBX 11 12 0 -2
BITMAP
DB60
8020
0000
CCA0
AAA0
CAE0
ACA0
A8A0
C8A0
0000
8020
DB60
ENDCHAR
STARTCHAR U+0083
ENCODING 131
SWIDTH 1000 0
DWIDTH 12 0
BBX 11 12 0 -2
BITMAP
DB60
8020
0000
96A0
D5A0
B6E0
B5A0
95A0
96A0
0000
8020
DB60
ENDCHAR
STARTCHAR U+0084
ENCODING 132
SWIDTH 1000 0
DWIDTH 12 0
BBX 11 12 0 -2
BITMAP
DB60
8020
0000
52C0
5AA0
56A0
56A0
52A0
52C0
0000
8020
DB60
ENDCHAR
STARTCHAR U+0085
ENCODING 133
SWIDTH 1000 0
DWIDTH 12 0
BBX 11 12 0 -2
BITMAP
DB60
8020
0000
9680
D480
B680
B480
9480
96E0
0000
8020
DB60
ENDCHAR
STARTCHAR U+0086
ENCODING 134
SWIDTH 1000 0
DWIDTH 12 0
BBX 11 12 0 -2
BITMAP
DB60
8020
0000
6640
88A0
44A0
22E0
22A0
CCA0
0000
8020
DB60
ENDCHAR
STARTCHAR U+0087
ENCODING 135
SWIDTH 1000 0
DWIDTH 12 0
BBX 11 12 0 -2
BITMAP
DB60
8020
0000
E640
88A0
C4A0
82E0
82A0
ECA0
0000
8020
DB60
ENDCHAR
STARTCHAR U+0088
ENCODING 136
SWIDTH 1000 0
DWIDTH 12 0
BBX 11 12 0 -2
BITMAP
DB60
8020
0000
AE60
A480
E440
A420
A420
A4C0
0000
8020
DB60
ENDCHAR
STARTCHAR U+0089
ENCODING 137
SWIDTH 1000 0
DWIDTH 12 0
BBX 11 12 0 -2
BITMAP
DB60
8020
0000
AE20
A420
E420
A420
A4A0
A440
0000
8020
DB60
ENDCHAR
STARTCHAR U+008A
ENCODING 138
SWIDTH 1000 0
DWIDTH 12 0
BBX 11 12 0 -2
BITMAP
DB60
8020
0000
AE60
A480
A440
A420
A420
44C0
0000
8020
DB60
ENDCHAR
STARTCHAR U+008B
ENCODING 139
SWIDTH 1000 0
DWIDTH 12 0
BBX 11 12 0 -2
BITMAP
DB60
8020
0000
C8C0
A8A0
A8A0
C8A0
88A0
8EC0
0000
8020
DB60
ENDCHAR
STARTCHAR U+008C
ENCODING 140
SWIDTH 1000 0
DWIDTH 12 0
BBX 11 12 0 -2
BITMAP
DB60
8020
0000
C8A0
A8A0
A8A0
C8A0
88A0
8E60
0000
8020
DB60
ENDCHAR
STARTCHAR U+008D
ENCODING 141
SWIDTH 1000 0
DWIDTH 12 0
BBX 11 12 0 -2
BITMAP
DB60
8020
0000
B3A0
A920
2900
3100
A920
ABA0
0000
8020
DB60
ENDCHAR
STARTCHAR U+008E
ENCODING 142
SWIDTH 1000 0
DWIDTH 12 0
BBX 11 12 0 -2
BITMAP
DB60
8020
0000
66C0
8820
4420
2240
2280
CCE0
0000
8020
DB60
ENDCHAR
STARTCHAR U+008F
ENCODING 143
SWIDTH 1000 0
DWIDTH 12 0
BBX 11 12 0 -2
BITMAP
DB60
8020
0000
66C0
8820
4440
2220
2220
CCC0
0000
8020
DB60
ENDCHAR
STARTCHAR U+0090
ENCODING 144
SWIDTH 1000 0
DWIDTH 12 0
BBX 11 12 0 -2
BITMAP
DB60
8020
0000
C660
A880
A840
A820
A820
C6C0
0000
8020
DB60
ENDCHAR
STARTCHAR U+0091
ENCODING 145
SWIDTH 1000 0
DWIDTH 12 0
BBX 11 12 0 -2
BITMAP
DB60
8020
0000
CA40
AAC0
AA40
CA40
8A40
8640
0000
8020
DB60
ENDCHAR
STARTCHAR U+0092
ENCODING 146
SWIDTH 1000 0
DWIDTH 12 0
BBX 11 12 0 -2
BITMAP
DB60
8020
0000
CAC0
AA20
AA20
CA40
8A80
86E0
0000
8020
DB60
ENDCHAR
STARTCHAR U+0093
ENCODING 147
SWIDTH 1000 0
DWIDTH 12 0
BBX 11 12 0 -2
BITMAP
DB60
8020
0000
6E60
8480
4440
2420
2420
C4C0
0000
8020
DB60
ENDCHAR
STARTCHAR U+0094
ENCODING 148
SWIDTH 1000 0
DWIDTH 12 0
BBX 11 12 0 -2
BITMAP
DB60
8020
0000
66A0
88A0
88E0
88A0
88A0
66A0
0000
8020
DB60
ENDCHAR
STARTCHAR U+0095
ENCODING 149
SWIDTH 1000 0
DWIDTH 12 0
BBX 11 12 0 -2
BITMAP
DB60
8020
0000
8A20
DA20
AAA0
8AA0
8940
8940
0000
8020
DB60
ENDCHAR
STARTCHAR U+0096
ENCODING 150
SWIDTH 1000 0
DWIDTH 12 0
BBX 11 12 0 -2
BITMAP
DB60
8020
0000
6C40
8AA0
4AA0
2CE0
28A0
C8A0
0000
8020
DB60
ENDCHAR
STARTCHAR U+0097
ENCODING 151
SWIDTH 1000 0
DWIDTH 12 0
BBX 11 12 0 -2
BITMAP
DB60
8020
0000
EC40
8AA0
CAA0
8CE0
88A0
E8A0
0000
8020
DB60
ENDCHAR
STARTCHAR U+0098
ENCODING 152
SWIDTH 1000 0
DWIDTH 12 0
BBX 11 12 0 -2
BITMAP
DB60
8020
0000
6460
8A80
4A40
2A20
2A20
C4C0
0000
8020
DB60
ENDCHAR
STARTCHAR U+0099
ENCODING 153
SWIDTH 1000 0
DWIDTH 12 0
BBX 11 12 0 -2
BITMAP
DB60
8020
0000
AAA0
AAA0
4440
AAA0
AAA0
AAA0
0000
8020
DB60
ENDCHAR
STARTCHAR U+009A
ENCODING 154
SWIDTH 1000 0
DWIDTH 12 0
BBX 11 12 0 -2
BITMAP
DB60
8020
0000
66E0
8840
4840
2840
2840
C6E0
0000
8020
DB60
ENDCHAR
STARTCHAR U+009B
ENCODING 155
SWIDTH 1000 0
DWIDTH 12 0
BBX 11 12 0 -2
BITMAP
DB60
8020
0000
66E0
8840
8440
8240
8240
6CE0
0000
8020
DB60
ENDCHAR
STARTCHAR U+009C
ENCODING 156
SWIDTH 1000 0
DWIDTH 12 0
BBX 11 12 0 -2
BITMAP
DB60
8020
0000
9BA0
A120
1100
0900
8920
B120
0000
8020
DB60
ENDCHAR
STARTCHAR U+009D
ENCODING 157
SWIDTH 1000 0
DWIDTH 12 0
BBX 11 12 0 -2
BITMAP
DB60
8020
0000
4660
A880
A480
A280
A280
4C60
0000
8020
DB60
ENDCHAR
STARTCHAR U+009E
ENCODING 158
SWIDTH 1000 0
DWIDTH 12 0
BBX 11 12 0 -2
BITMAP
DB60
8020
0000
F220
8B60
8AA0
F220
8220
8220
0000
8020
DB60
ENDCHAR
STARTCHAR U+009F
ENCODING 159
SWIDTH 1000 0
DWIDTH 12 0
BBX 11 12 0 -2
BITMAP
DB60
8020
0000
4C60
AA80
AA80
EC80
A880
A860
0000
8020
DB60
ENDCHAR
STARTCHAR U+00A1
ENCODING 161
SWIDTH 500 0
DWIDTH 6 0
BBX 1 8 2 -2
BITMAP
80
00
80
80
80
80
80
80
ENDCHAR
STARTCHAR U+00A2
ENCODING 162
SWIDTH 500 0
DWIDTH 6 0
BBX 5 8 0 -1
BITMAP
20
70
A8
A0
A0
A8
70
20
ENDCHAR
STARTCHAR U+00A3
ENCODING 163
SWIDTH 500 0
DWIDTH 6 0
BBX 5 8 0 0
BITMAP
10
28
20
70
20
20
40
F8
ENDCHAR
STARTCHAR U+00A4
ENCODING 164
SWIDTH 500 0
DWIDTH 6 0
BBX 5 5 0 1
BITMAP
88
70
50
70
88
ENDCHAR
STARTCHAR U+00A5
ENCODING 165
SWIDTH 500 0
DWIDTH 6 0
BBX 5 8 0 0
BITMAP
88
50
20
F8
20
F8
20
20
ENDCHAR
STARTCHAR U+00A6
ENCODING 166
SWIDTH 500 0
DWIDTH 6 0
BBX 1 8 2 0
BITMAP
80
80
80
00
00
80
80
80
ENDCHAR
STARTCHAR U+00A7
ENCODING 167
SWIDTH 1000 0
DWIDTH 12 0
BBX 5 10 3 -1
BITMAP
70
88
80
60
90
48
30
08
88
70
ENDCHAR
STARTCHAR U+00A8
ENCODING 168
SWIDTH 1000 0
DWIDTH 12 0
BBX 6 2 2 7
BITMAP
CC
CC
ENDCHAR
STARTCHAR U+00A9
ENCODING 169
SWIDTH 1000 0
DWIDTH 12 0
BBX 9 9 1 -1
BITMAP
3E00
4100
9C80
A080
A080
A080
9C80
4100
3E00
ENDCHAR
STARTCHAR U+00AA
ENCODING 170
SWIDTH 500 0
DWIDTH 6 0
BBX 4 5 1 3
BITMAP
60
10
70
90
70
ENDCHAR
STARTCHAR U+00AB
ENCODING 171
SWIDTH 500 0
DWIDTH 6 0
BBX 5 5 0 1
BITMAP
28
50
A0
50
28
ENDCHAR
STARTCHAR U+00AC
ENCODING 172
SWIDTH 500 0
DWIDTH 6 0
BBX 5 3 0 2
BITMAP
F8
08
08
ENDCHAR
STARTCHAR U+00AD
ENCODING 173
SWIDTH 1000 0
DWIDTH 12 0
BBX 11 12 0 -2
BITMAP
DB60
8020
0000
6AA0
8AA0
4E40
2A40
CA40
0000
1F00
8020
DB60
ENDCHAR
STARTCHAR U+00AE
ENCODING 174
SWIDTH 1000 0
DWIDTH 12 0
BBX 9 9 1 -1
BITMAP
3E00
4100
9880
9480
9880
9480
9480
4100
3E00
ENDCHAR
STARTCHAR U+00AF
ENCODING 175
SWIDTH 500 0
DWIDTH 6 0
BBX 5 1 0 7
BITMAP
F8
ENDCHAR
STARTCHAR U+00B0
ENCODING 176
SWIDTH 500 0
DWIDTH 6 0
BBX 4 4 0 5
BITMAP
60
90
90
60
ENDCHAR
STARTCHAR U+00B1
ENCODING 177
SWIDTH 1000 0
DWIDTH 12 0
BBX 7 9 2 -1
BITMAP
10
10
10
FE
10
10
10
00
FE
ENDCHAR
STARTCHAR U+00B2
ENCODING 178
SWIDTH 500 0
DWIDTH 6 0
BBX 4 5 0 3
BITMAP
60
90
20
40
F0
ENDCHAR
STARTCHAR U+00B3
ENCODING 179
SWIDTH 500 0
DWIDTH 6 0
BBX 4 5 0 3
BITMAP
E0
10
60
10
E0
ENDCHAR
STARTCHAR U+00B4
ENCODING 180
SWIDTH 500 0
DWIDTH 6 0
BBX 2 2 2 6
BITMAP
40
80
ENDCHAR
STARTCHAR U+00B5
ENCODING 181
SWIDTH 500 0
DWIDTH 6 0
BBX 5 8 0 -2
BITMAP
90
90
90
90
90
E8
80
80
ENDCHAR
STARTCHAR U+00B6
ENCODING 182
SWIDTH 1000 0
DWIDTH 12 0
BBX 5 10 3 -1
BITMAP
78
E8
E8
E8
E8
68
28
28
28
28
ENDCHAR
STARTCHAR U+00B7
ENCODING 183
SWIDTH 1000 0
DWIDTH 12 0
BBX 2 2 5 3
BITMAP
C0
C0
ENDCHAR
STARTCHAR U+00B8
ENCODING 184
SWIDTH 500 0
DWIDTH 6 0
BBX 3 3 1 -2
BITMAP
40
20
C0
ENDCHAR
STARTCHAR U+00B9
ENCODING 185
SWIDTH 500 0
DWIDTH 6 0
BBX 2 5 1 3
BITMAP
40
C0
40
40
40
ENDCHAR
STARTCHAR U+00BA
ENCODING 186
SWIDTH 500 0
DWIDTH 6 0
BBX 4 4 0 3
BITMAP
60
90
90
60
ENDCHAR
STARTCHAR U+00BB
ENCODING 187
SWIDTH 500 0
DWIDTH 6 0
BBX 5 5 0 1
BITMAP
A0
50
28
50
A0
ENDCHAR
STARTCHAR U+00BC
ENCODING 188
SWIDTH 1000 0
DWIDTH 12 0
BBX 11 11 0 -1
BITMAP
2020
6040
2080
2100
2200
2440
08C0
1140
21E0
4040
8040
ENDCHAR
STARTCHAR U+00BD
ENCODING 189
SWIDTH 1000 0
DWIDTH 12 0
BBX 11 11 0 -1
BITMAP
2020
6040
2080
2100
2200
24C0
0920
1040
2080
4100
81E0
ENDCHAR
STARTCHAR U+00BE
ENCODING 190
SWIDTH 1000 0
DWIDTH 12 0
BBX 11 11 0 -1
BITMAP
F020
1040
2080
1100
9200
6440
08C0
1140
21E0
4040
8040
ENDCHAR
STARTCHAR U+00BF
ENCODING 191
SWIDTH 500 0
DWIDTH 6 0
BBX 5 8 0 -2
BITMAP
20
00
20
20
40
80
88
70
ENDCHAR
STARTCHAR U+00C0
ENCODING 192
SWIDTH 500 0
DWIDTH 6 0
BBX 5 10 0 0
BITMAP
20
10
20
20
50
50
70
88
88
88
ENDCHAR
STARTCHAR U+00C1
ENCODING 193
SWIDTH 500 0
DWIDTH 6 0
BBX 5 10 0 0
BITMAP
20
40
20
20
50
50
70
88
88
88
ENDCHAR
STARTCHAR U+00C2
ENCODING 194
SWIDTH 500 0
DWIDTH 6 0
BBX 5 10 0 0
BITMAP
20
50
00
20
50
50
70
88
88
88
ENDCHAR
STARTCHAR U+00C3
ENCODING 195
SWIDTH 500 0
DWIDTH 6 0
BBX 5 10 0 0
BITMAP
68
90
20
20
50
50
70
88
88
88
ENDCHAR
STARTCHAR U+00C4
ENCODING 196
SWIDTH 500 0
DWIDTH 6 0
BBX 5 10 0 0
BITMAP
50
00
20
20
50
50
70
88
88
88
ENDCHAR
STARTCHAR U+00C5
ENCODING 197
SWIDTH 500 0
DWIDTH 6 0
BBX 5 10 0 0
BITMAP
20
50
20
20
50
50
70
88
88
88
ENDCHAR
STARTCHAR U+00C6
ENCODING 198
SWIDTH 500 0
DWIDTH 6 0
BBX 5 8 0 0
BITMAP
38
30
50
58
70
90
90
98
ENDCHAR
STARTCHAR U+00C7
ENCODING 199
SWIDTH 500 0
DWIDTH 6 0
BBX 5 10 0 -2
BITMAP
70
88
80
80
80
80
88
70
20
40
ENDCHAR
STARTCHAR U+00C8
ENCODING 200
SWIDTH 500 0
DWIDTH 6 0
BBX 5 10 0 0
BITMAP
20
10
00
F8
80
80
F0
80
80
F8
ENDCHAR
STARTCHAR U+00C9
ENCODING 201
SWIDTH 500 0
DWIDTH 6 0
BBX 5 10 0 0
BITMAP
20
40
00
F8
80
80
F0
80
80
F8
ENDCHAR
STARTCHAR U+00CA
ENCODING 202
SWIDTH 500 0
DWIDTH 6 0
BBX 5 10 0 0
BITMAP
20
50
00
F8
80
80
F0
80
80
F8
ENDCHAR
STARTCHAR U+00CB
ENCODING 203
SWIDTH 500 0
DWIDTH 6 0
BBX 5 10 0 0
BITMAP
50
00
F8
80
80
F0
80
80
80
F8
ENDCHAR
STARTCHAR U+00CC
ENCODING 204
SWIDTH 500 0
DWIDTH 6 0
BBX 3 10 1 0
BITMAP
40
20
00
E0
40
40
40
40
40
E0
ENDCHAR
STARTCHAR U+00CD
ENCODING 205
SWIDTH 500 0
DWIDTH 6 0
BBX 3 10 1 0
BITMAP
40
80
00
E0
40
40
40
40
40
E0
ENDCHAR
STARTCHAR U+00CE
ENCODING 206
SWIDTH 500 0
DWIDTH 6 0
BBX 3 10 1 0
BITMAP
40
A0
00
E0
40
40
40
40
40
E0
ENDCHAR
STARTCHAR U+00CF
ENCODING 207
SWIDTH 500 0
DWIDTH 6 0
BBX 3 10 1 0
BITMAP
A0
00
E0
40
40
40
40
40
40
E0
ENDCHAR
STARTCHAR U+00D0
ENCODING 208
SWIDTH 500 0
DWIDTH 6 0
BBX 5 8 0 0
BITMAP
F0
48
48
E8
48
48
48
F0
ENDCHAR
STARTCHAR U+00D1
ENCODING 209
SWIDTH 500 0
DWIDTH 6 0
BBX 5 10 0 0
BITMAP
68
90
00
88
C8
A8
A8
98
98
88
ENDCHAR
STARTCHAR U+00D2
ENCODING 210
SWIDTH 500 0
DWIDTH 6 0
BBX 5 10 0 0
BITMAP
20
10
00
70
88
88
88
88
88
70
ENDCHAR
STARTCHAR U+00D3
ENCODING 211
SWIDTH 500 0
DWIDTH 6 0
BBX 5 10 0 0
BITMAP
20
40
00
70
88
88
88
88
88
70
ENDCHAR
STARTCHAR U+00D4
ENCODING 212
SWIDTH 500 0
DWIDTH 6 0
BBX 5 10 0 0
BITMAP
20
50
00
70
88
88
88
88
88
70
ENDCHAR
STARTCHAR U+00D5
ENCODING 213
SWIDTH 500 0
DWIDTH 6 0
BBX 5 10 0 0
BITMAP
68
90
00
70
88
88
88
88
88
70
ENDCHAR
STARTCHAR U+00D6
ENCODING 214
SWIDTH 500 0
DWIDTH 6 0
BBX 5 10 0 0
BITMAP
50
00
70
88
88
88
88
88
88
70
ENDCHAR
STARTCHAR U+00D7
ENCODING 215
SWIDTH 1000 0
DWIDTH 12 0
BBX 9 9 1 -1
BITMAP
8080
4100
2200
1400
0800
1400
2200
4100
8080
ENDCHAR
STARTCHAR U+00D8
ENCODING 216
SWIDTH 500 0
DWIDTH 6 0
BBX 5 10 0 -1
BITMAP
08
70
98
A8
A8
A8
A8
C8
70
80
ENDCHAR
STARTCHAR U+00D9
ENCODING 217
SWIDTH 500 0
DWIDTH 6 0
BBX 5 10 0 0
BITMAP
40
20
88
88
88
88
88
88
88
70
ENDCHAR
STARTCHAR U+00DA
ENCODING 218
SWIDTH 500 0
DWIDTH 6 0
BBX 5 10 0 0
BITMAP
10
20
88
88
88
88
88
88
88
70
ENDCHAR
STARTCHAR U+00DB
ENCODING 219
SWIDTH 500 0
DWIDTH 6 0
BBX 5 10 0 0
BITMAP
20
50
00
88
88
88
88
88
88
70
ENDCHAR
STARTCHAR U+00DC
ENCODING 220
SWIDTH 500 0
DWIDTH 6 0
BBX 5 10 0 0
BITMAP
50
00
88
88
88
88
88
88
88
70
ENDCHAR
STARTCHAR U+00DD
ENCODING 221
SWIDTH 500 0
DWIDTH 6 0
BBX 5 10 0 0
BITMAP
10
20
88
88
50
50
20
20
20
20
ENDCHAR
STARTCHAR U+00DE
ENCODING 222
SWIDTH 500 0
DWIDTH 6 0
BBX 5 8 0 0
BITMAP
80
80
F0
88
88
F0
80
80
ENDCHAR
STARTCHAR U+00DF
ENCODING 223
SWIDTH 500 0
DWIDTH 6 0
BBX 5 8 0 0
BITMAP
60
90
90
A0
90
88
88
B0
ENDCHAR
STARTCHAR U+00E0
ENCODING 224
SWIDTH 500 0
DWIDTH 6 0
BBX 5 10 0 0
BITMAP
40
20
10
00
68
98
88
88
98
68
ENDCHAR
STARTCHAR U+00E1
ENCODING 225
SWIDTH 500 0
DWIDTH 6 0
BBX 5 10 0 0
BITMAP
10
20
40
00
68
98
88
88
98
68
ENDCHAR
STARTCHAR U+00E2
ENCODING 226
SWIDTH 500 0
DWIDTH 6 0
BBX 5 9 0 0
BITMAP
20
50
00
68
98
88
88
98
68
ENDCHAR
STARTCHAR U+00E3
ENCODING 227
SWIDTH 500 0
DWIDTH 6 0
BBX 5 9 0 0
BITMAP
68
90
00
68
98
88
88
98
68
ENDCHAR
STARTCHAR U+00E4
ENCODING 228
SWIDTH 500 0
DWIDTH 6 0
BBX 5 9 0 0
BITMAP
50
00
00
68
98
88
88
98
68
ENDCHAR
STARTCHAR U+00E5
ENCODING 229
SWIDTH 500 0
DWIDTH 6 0
BBX 5 10 0 0
BITMAP
20
50
20
00
68
98
88
88
98
68
ENDCHAR
STARTCHAR U+00E6
ENCODING 230
SWIDTH 500 0
DWIDTH 6 0
BBX 5 6 0 0
BITMAP
D0
28
68
B0
A0
58
ENDCHAR
STARTCHAR U+00E7
ENCODING 231
SWIDTH 500 0
DWIDTH 6 0
BBX 5 8 0 -2
BITMAP
70
88
80
80
88
70
20
40
ENDCHAR
STARTCHAR U+00E8
ENCODING 232
SWIDTH 500 0
DWIDTH 6 0
BBX 5 10 0 0
BITMAP
40
20
10
00
70
88
F8
80
88
70
ENDCHAR
STARTCHAR U+00E9
ENCODING 233
SWIDTH 500 0
DWIDTH 6 0
BBX 5 10 0 0
BITMAP
10
20
40
00
70
88
F8
80
88
70
ENDCHAR
STARTCHAR U+00EA
ENCODING 234
SWIDTH 500 0
DWIDTH 6 0
BBX 5 10 0 0
BITMAP
20
50
88
00
70
88
F8
80
88
70
ENDCHAR
STARTCHAR U+00EB
ENCODING 235
SWIDTH 500 0
DWIDTH 6 0
BBX 5 9 0 0
BITMAP
50
00
00
70
88
F8
80
88
70
ENDCHAR
STARTCHAR U+00EC
ENCODING 236
SWIDTH 500 0
DWIDTH 6 0
BBX 3 10 1 0
BITMAP
80
40
20
00
40
40
40
40
40
40
ENDCHAR
STARTCHAR U+00ED
ENCODING 237
SWIDTH 500 0
DWIDTH 6 0
BBX 3 10 1 0
BITMAP
20
40
80
00
40
40
40
40
40
40
ENDCHAR
STARTCHAR U+00EE
ENCODING 238
SWIDTH 500 0
DWIDTH 6 0
BBX 3 9 1 0
BITMAP
40
A0
00
40
40
40
40
40
40
ENDCHAR
STARTCHAR U+00EF
ENCODING 239
SWIDTH 500 0
DWIDTH 6 0
BBX 3 8 1 0
BITMAP
A0
00
40
40
40
40
40
40
ENDCHAR
STARTCHAR U+00F0
ENCODING 240
SWIDTH 500 0
DWIDTH 6 0
BBX 5 9 0 0
BITMAP
40
38
E0
10
70
88
88
88
70
ENDCHAR
STARTCHAR U+00F1
ENCODING 241
SWIDTH 500 0
DWIDTH 6 0
BBX 5 9 0 0
BITMAP
68
90
00
B0
C8
88
88
88
88
ENDCHAR
STARTCHAR U+00F2
ENCODING 242
SWIDTH 500 0
DWIDTH 6 0
BBX 5 10 0 0
BITMAP
40
20
10
00
70
88
88
88
88
70
ENDCHAR
STARTCHAR U+00F3
ENCODING 243
SWIDTH 500 0
DWIDTH 6 0
BBX 5 10 0 0
BITMAP
10
20
40
00
70
88
88
88
88
70
ENDCHAR
STARTCHAR U+00F4
ENCODING 244
SWIDTH 500 0
DWIDTH 6 0
BBX 5 9 0 0
BITMAP
20
50
00
70
88
88
88
88
70
ENDCHAR
STARTCHAR U+00F5
ENCODING 245
SWIDTH 500 0
DWIDTH 6 0
BBX 5 9 0 0
BITMAP
68
90
00
70
88
88
88
88
70
ENDCHAR
STARTCHAR U+00F6
ENCODING 246
SWIDTH 500 0
DWIDTH 6 0
BBX 5 9 0 0
BITMAP
50
00
00
70
88
88
88
88
70
ENDCHAR
STARTCHAR U+00F7
ENCODING 247
SWIDTH 1000 0
DWIDTH 12 0
BBX 10 9 0 -1
BITMAP
0C00
0C00
0000
0000
FFC0
0000
0000
0C00
0C00
ENDCHAR
STARTCHAR U+00F8
ENCODING 248
SWIDTH 500 0
DWIDTH 6 0
BBX 5 8 0 -1
BITMAP
08
70
98
A8
A8
C8
70
80
ENDCHAR
STARTCHAR U+00F9
ENCODING 249
SWIDTH 500 0
DWIDTH 6 0
BBX 5 10 0 0
BITMAP
40
20
10
00
88
88
88
88
98
68
ENDCHAR
STARTCHAR U+00FA
ENCODING 250
SWIDTH 500 0
DWIDTH 6 0
BBX 5 10 0 0
BITMAP
10
20
40
00
88
88
88
88
98
68
ENDCHAR
STARTCHAR U+00FB
ENCODING 251
SWIDTH 500 0
DWIDTH 6 0
BBX 5 9 0 0
BITMAP
20
50
00
88
88
88
88
98
68
ENDCHAR
STARTCHAR U+00FC
ENCODING 252
SWIDTH 500 0
DWIDTH 6 0
BBX 5 7 0 0
BITMAP
88
00
88
88
88
98
68
ENDCHAR
STARTCHAR U+00FD
ENCODING 253
SWIDTH 500 0
DWIDTH 6 0
BBX 5 11 0 -2
BITMAP
10
20
00
88
88
88
98
68
08
90
60
ENDCHAR
STARTCHAR U+00FE
ENCODING 254
SWIDTH 500 0
DWIDTH 6 0
BBX 5 10 0 -2
BITMAP
80
80
B0
C8
88
88
C8
B0
80
80
ENDCHAR
STARTCHAR U+00FF
ENCODING 255
SWIDTH 500 0
DWIDTH 6 0
BBX 5 10 0 -2
BITMAP
50
00
88
88
88
98
68
08
90
60
ENDCHAR
STARTCHAR U+0101
ENCODING 257
SWIDTH 500 0
DWIDTH 6 0
BBX 5 9 0 0
BITMAP
70
00
00
68
98
88
88
98
68
ENDCHAR
STARTCHAR U+0113
ENCODING 275
SWIDTH 500 0
DWIDTH 6 0
BBX 5 9 0 0
BITMAP
70
00
00
70
88
F8
80
88
70
ENDCHAR
STARTCHAR U+011B
ENCODING 283
SWIDTH 500 0
DWIDTH 6 0
BBX 5 9 0 0
BITMAP
50
20
00
70
88
F8
80
88
70
ENDCHAR
STARTCHAR U+012B
ENCODING 299
SWIDTH 500 0
DWIDTH 6 0
BBX 3 9 1 0
BITMAP
E0
00
00
40
40
40
40
40
40
ENDCHAR
STARTCHAR U+014D
ENCODING 333
SWIDTH 500 0
DWIDTH 6 0
BBX 5 9 0 0
BITMAP
70
00
00
70
88
88
88
88
70
ENDCHAR
STARTCHAR U+016B
ENCODING 363
SWIDTH 500 0
DWIDTH 6 0
BBX 5 9 0 0
BITMAP
70
00
00
88
88
88
88
98
68
ENDCHAR
STARTCHAR U+01CE
ENCODING 462
SWIDTH 500 0
DWIDTH 6 0
BBX 5 9 0 0
BITMAP
50
20
00
68
98
88
88
98
68
ENDCHAR
STARTCHAR U+01D0
ENCODING 464
SWIDTH 500 0
DWIDTH 6 0
BBX 3 9 1 0
BITMAP
A0
40
00
40
40
40
40
40
40
ENDCHAR
STARTCHAR U+01D2
ENCODING 466
SWIDTH 500 0
DWIDTH 6 0
BBX 5 9 0 0
BITMAP
50
20
00
70
88
88
88
88
70
ENDCHAR
STARTCHAR U+01D4
ENCODING 468
SWIDTH 500 0
DWIDTH 6 0
BBX 5 9 0 0
BITMAP
50
20
00
88
88
88
88
98
68
ENDCHAR
STARTCHAR U+01D6
ENCODING 470
SWIDTH 500 0
DWIDTH 6 0
BBX 5 9 0 0
BITMAP
70
00
88
00
88
88
88
98
68
ENDCHAR
STARTCHAR U+01D8
ENCODING 472
SWIDTH 500 0
DWIDTH 6 0
BBX 5 10 0 0
BITMAP
20
40
00
88
00
88
88
88
98
68
ENDCHAR
STARTCHAR U+01DA
ENCODING 474
SWIDTH 500 0
DWIDTH 6 0
BBX 5 10 0 0
BITMAP
50
20
00
88
00
88
88
88
98
68
ENDCHAR
STARTCHAR U+01DC
ENCODING 476
SWIDTH 500 0
DWIDTH 6 0
BBX 5 10 0 0
BITMAP
40
20
00
88
00
88
88
88
98
68
ENDCHAR
STARTCHAR U+02C7
ENCODING 711
SWIDTH 1000 0
DWIDTH 12 0
BBX 5 3 3 7
BITMAP
88
50
20
ENDCHAR
STARTCHAR U+02C9
ENCODING 713
SWIDTH 1000 0
DWIDTH 12 0
BBX 7 1 2 8
BITMAP
FE
ENDCHAR
STARTCHAR U+0384
ENCODING 900
SWIDTH 500 0
DWIDTH 6 0
BBX 2 2 2 7
BITMAP
40
80
ENDCHAR
STARTCHAR U+0385
ENCODING 901
SWIDTH 500 0
DWIDTH 6 0
BBX 3 4 1 6
BITMAP
20
40
00
A0
ENDCHAR
STARTCHAR U+0386
ENCODING 902
SWIDTH 500 0
DWIDTH 6 0
BBX 5 10 0 0
BITMAP
40
80
20
20
50
50
70
88
88
88
ENDCHAR
STARTCHAR U+0388
ENCODING 904
SWIDTH 500 0
DWIDTH 6 0
BBX 5 10 0 0
BITMAP
40
80
00
F8
80
80
F0
80
80
F8
ENDCHAR
STARTCHAR U+0389
ENCODING 905
SWIDTH 500 0
DWIDTH 6 0
BBX 5 10 0 0
BITMAP
40
80
00
88
88
88
F8
88
88
88
ENDCHAR
STARTCHAR U+038A
ENCODING 906
SWIDTH 500 0
DWIDTH 6 0
BBX 5 10 0 0
BITMAP
40
80
38
10
10
10
10
10
10
38
ENDCHAR
STARTCHAR U+038C
ENCODING 908
SWIDTH 500 0
DWIDTH 6 0
BBX 5 10 0 0
BITMAP
40
80
70
88
88
88
88
88
88
70
ENDCHAR
STARTCHAR U+038E
ENCODING 910
SWIDTH 500 0
DWIDTH 6 0
BBX 5 10 0 0
BITMAP
40
80
00
88
88
50
20
20
20
20
ENDCHAR
STARTCHAR U+038F
ENCODING 911
SWIDTH 500 0
DWIDTH 6 0
BBX 5 10 0 0
BITMAP
40
80
00
70
88
88
88
88
50
D8
ENDCHAR
STARTCHAR U+0390
ENCODING 912
SWIDTH 500 0
DWIDTH 6 0
BBX 3 10 1 0
BITMAP
20
40
00
A0
00
C0
40
40
40
20
ENDCHAR
STARTCHAR U+0391
ENCODING 913
SWIDTH 500 0
DWIDTH 6 0
BBX 5 8 0 0
BITMAP
20
20
50
50
70
88
88
88
ENDCHAR
STARTCHAR U+0392
ENCODING 914
SWIDTH 500 0
DWIDTH 6 0
BBX 5 8 0 0
BITMAP
F0
88
88
F0
88
88
88
F0
ENDCHAR
STARTCHAR U+0393
ENCODING 915
SWIDTH 500 0
DWIDTH 6 0
BBX 5 8 0 0
BITMAP
F8
80
80
80
80
80
80
80
ENDCHAR
STARTCHAR U+0394
ENCODING 916
SWIDTH 500 0
DWIDTH 6 0
BBX 5 8 0 0
BITMAP
20
20
50
50
50
88
88
F8
ENDCHAR
STARTCHAR U+0395
ENCODING 917
SWIDTH 500 0
DWIDTH 6 0
BBX 5 8 0 0
BITMAP
F8
80
80
F0
80
80
80
F8
ENDCHAR
STARTCHAR U+0396
ENCODING 918
SWIDTH 500 0
DWIDTH 6 0
BBX 5 8 0 0
BITMAP
F8
10
10
20
20
40
40
F8
ENDCHAR
STARTCHAR U+0397
ENCODING 919
SWIDTH 500 0
DWIDTH 6 0
BBX 5 8 0 0
BITMAP
88
88
88
F8
88
88
88
88
ENDCHAR
STARTCHAR U+0398
ENCODING 920
SWIDTH 500 0
DWIDTH 6 0
BBX 5 8 0 0
BITMAP
70
88
88
E8
88
88
88
70
ENDCHAR
STARTCHAR U+0399
ENCODING 921
SWIDTH 500 0
DWIDTH 6 0
BBX 3 8 1 0
BITMAP
E0
40
40
40
40
40
40
E0
ENDCHAR
STARTCHAR U+039A
ENCODING 922
SWIDTH 500 0
DWIDTH 6 0
BBX 5 8 0 0
BITMAP
88
90
A0
C0
A0
90
88
88
ENDCHAR
STARTCHAR U+039B
ENCODING 923
SWIDTH 500 0
DWIDTH 6 0
BBX 5 8 0 0
BITMAP
20
20
50
50
50
88
88
88
ENDCHAR
STARTCHAR U+039C
ENCODING 924
SWIDTH 500 0
DWIDTH 6 0
BBX 5 8 0 0
BITMAP
88
D8
A8
A8
88
88
88
88
ENDCHAR
STARTCHAR U+039D
ENCODING 925
SWIDTH 500 0
DWIDTH 6 0
BBX 5 8 0 0
BITMAP
88
C8
C8
A8
A8
98
98
88
ENDCHAR
STARTCHAR U+039E
ENCODING 926
SWIDTH 500 0
DWIDTH 6 0
BBX 5 8 0 0
BITMAP
F8
00
00
70
00
00
00
F8
ENDCHAR
STARTCHAR U+039F
ENCODING 927
SWIDTH 500 0
DWIDTH 6 0
BBX 5 8 0 0
BITMAP
70
88
88
88
88
88
88
70
ENDCHAR
STARTCHAR U+03A0
ENCODING 928
SWIDTH 500 0
DWIDTH 6 0
BBX 5 8 0 0
BITMAP
F8
88
88
88
88
88
88
88
ENDCHAR
STARTCHAR U+03A1
ENCODING 929
SWIDTH 500 0
DWIDTH 6 0
BBX 5 8 0 0
BITMAP
F0
88
88
88
F0
80
80
80
ENDCHAR
STARTCHAR U+03A3
ENCODING 931
SWIDTH 500 0
DWIDTH 6 0
BBX 5 8 0 0
BITMAP
F8
40
20
10
20
40
80
F8
ENDCHAR
STARTCHAR U+03A4
ENCODING 932
SWIDTH 500 0
DWIDTH 6 0
BBX 5 8 0 0
BITMAP
F8
20
20
20
20
20
20
20
ENDCHAR
STARTCHAR U+03A5
ENCODING 933
SWIDTH 500 0
DWIDTH 6 0
BBX 5 8 0 0
BITMAP
88
88
50
50
20
20
20
20
ENDCHAR
STARTCHAR U+03A6
ENCODING 934
SWIDTH 500 0
DWIDTH 6 0
BBX 5 8 0 0
BITMAP
20
70
A8
A8
A8
A8
70
20
ENDCHAR
STARTCHAR U+03A7
ENCODING 935
SWIDTH 500 0
DWIDTH 6 0
BBX 5 8 0 0
BITMAP
88
50
50
20
50
50
88
88
ENDCHAR
STARTCHAR U+03A8
ENCODING 936
SWIDTH 500 0
DWIDTH 6 0
BBX 5 8 0 0
BITMAP
A8
A8
A8
A8
70
20
20
20
ENDCHAR
STARTCHAR U+03A9
ENCODING 937
SWIDTH 500 0
DWIDTH 6 0
BBX 5 8 0 0
BITMAP
70
88
88
88
88
88
50
D8
ENDCHAR
STARTCHAR U+03AA
ENCODING 938
SWIDTH 500 0
DWIDTH 6 0
BBX 3 10 1 0
BITMAP
A0
00
E0
40
40
40
40
40
40
E0
ENDCHAR
STARTCHAR U+03AB
ENCODING 939
SWIDTH 500 0
DWIDTH 6 0
BBX 5 10 0 0
BITMAP
50
00
88
88
50
50
20
20
20
20
ENDCHAR
STARTCHAR U+03AC
ENCODING 940
SWIDTH 500 0
DWIDTH 6 0
BBX 5 10 0 0
BITMAP
10
20
40
00
68
98
88
88
98
68
ENDCHAR
STARTCHAR U+03AD
ENCODING 941
SWIDTH 500 0
DWIDTH 6 0
BBX 5 10 0 0
BITMAP
10
20
40
00
70
88
60
80
88
70
ENDCHAR
STARTCHAR U+03AE
ENCODING 942
SWIDTH 500 0
DWIDTH 6 0
BBX 5 12 0 -2
BITMAP
10
20
40
00
B0
C8
88
88
88
88
08
08
ENDCHAR
STARTCHAR U+03AF
ENCODING 943
SWIDTH 500 0
DWIDTH 6 0
BBX 3 10 1 0
BITMAP
20
40
80
00
40
40
40
40
40
20
ENDCHAR
STARTCHAR U+03B0
ENCODING 944
SWIDTH 500 0
DWIDTH 6 0
BBX 5 10 0 0
BITMAP
10
20
00
50
00
88
88
88
88
70
ENDCHAR
STARTCHAR U+03B1
ENCODING 945
SWIDTH 500 0
DWIDTH 6 0
BBX 5 6 0 0
BITMAP
68
98
88
88
98
68
ENDCHAR
STARTCHAR U+03B2
ENCODING 946
SWIDTH 500 0
DWIDTH 6 0
BBX 5 10 0 -2
BITMAP
60
90
90
A0
90
88
C8
B0
80
80
ENDCHAR
STARTCHAR U+03B3
ENCODING 947
SWIDTH 500 0
DWIDTH 6 0
BBX 5 8 0 -2
BITMAP
88
88
48
50
50
20
20
20
ENDCHAR
STARTCHAR U+03B4
ENCODING 948
SWIDTH 500 0
DWIDTH 6 0
BBX 5 8 0 0
BITMAP
70
88
40
30
48
88
88
70
ENDCHAR
STARTCHAR U+03B5
ENCODING 949
SWIDTH 500 0
DWIDTH 6 0
BBX 5 6 0 0
BITMAP
70
88
60
80
88
70
ENDCHAR
STARTCHAR U+03B6
ENCODING 950
SWIDTH 500 0
DWIDTH 6 0
BBX 5 10 0 -2
BITMAP
F8
10
20
40
40
80
80
70
08
10
ENDCHAR
STARTCHAR U+03B7
ENCODING 951
SWIDTH 500 0
DWIDTH 6 0
BBX 5 8 0 -2
BITMAP
B0
C8
88
88
88
88
08
08
ENDCHAR
STARTCHAR U+03B8
ENCODING 952
SWIDTH 500 0
DWIDTH 6 0
BBX 5 8 0 0
BITMAP
70
88
88
F8
88
88
88
70
ENDCHAR
STARTCHAR U+03B9
ENCODING 953
SWIDTH 500 0
DWIDTH 6 0
BBX 2 6 2 0
BITMAP
80
80
80
80
80
40
ENDCHAR
STARTCHAR U+03BA
ENCODING 954
SWIDTH 500 0
DWIDTH 6 0
BBX 5 6 0 0
BITMAP
88
90
E0
90
88
88
ENDCHAR
STARTCHAR U+03BB
ENCODING 955
SWIDTH 500 0
DWIDTH 6 0
BBX 5 8 0 0
BITMAP
C0
20
20
50
50
88
88
88
ENDCHAR
STARTCHAR U+03BC
ENCODING 956
SWIDTH 500 0
DWIDTH 6 0
BBX 5 8 0 -2
BITMAP
90
90
90
90
90
E8
80
80
ENDCHAR
STARTCHAR U+03BD
ENCODING 957
SWIDTH 500 0
DWIDTH 6 0
BBX 5 6 0 0
BITMAP
88
88
48
50
20
20
ENDCHAR
STARTCHAR U+03BE
ENCODING 958
SWIDTH 500 0
DWIDTH 6 0
BBX 5 10 0 -2
BITMAP
F8
40
80
70
40
80
80
70
08
10
ENDCHAR
STARTCHAR U+03BF
ENCODING 959
SWIDTH 500 0
DWIDTH 6 0
BBX 5 6 0 0
BITMAP
70
88
88
88
88
70
ENDCHAR
STARTCHAR U+03C0
ENCODING 960
SWIDTH 500 0
DWIDTH 6 0
BBX 5 6 0 0
BITMAP
F8
50
50
50
50
98
ENDCHAR
STARTCHAR U+03C1
ENCODING 961
SWIDTH 500 0
DWIDTH 6 0
BBX 5 8 0 -2
BITMAP
70
88
88
88
C8
B0
80
80
ENDCHAR
STARTCHAR U+03C2
ENCODING 962
SWIDTH 500 0
DWIDTH 6 0
BBX 5 8 0 -2
BITMAP
70
88
80
80
40
30
08
10
ENDCHAR
STARTCHAR U+03C3
ENCODING 963
SWIDTH 500 0
DWIDTH 6 0
BBX 5 6 0 0
BITMAP
78
90
88
88
88
70
ENDCHAR
STARTCHAR U+03C4
ENCODING 964
SWIDTH 500 0
DWIDTH 6 0
BBX 5 6 0 0
BITMAP
F8
20
20
20
28
10
ENDCHAR
STARTCHAR U+03C5
ENCODING 965
SWIDTH 500 0
DWIDTH 6 0
BBX 5 6 0 0
BITMAP
88
88
88
88
88
70
ENDCHAR
STARTCHAR U+03C6
ENCODING 966
SWIDTH 500 0
DWIDTH 6 0
BBX 5 9 0 -2
BITMAP
20
20
70
A8
A8
A8
70
20
20
ENDCHAR
STARTCHAR U+03C7
ENCODING 967
SWIDTH 500 0
DWIDTH 6 0
BBX 5 8 0 -2
BITMAP
88
88
50
20
20
50
88
88
ENDCHAR
STARTCHAR U+03C8
ENCODING 968
SWIDTH 500 0
DWIDTH 6 0
BBX 5 8 0 -2
BITMAP
20
A8
A8
A8
A8
70
20
20
ENDCHAR
STARTCHAR U+03C9
ENCODING 969
SWIDTH 500 0
DWIDTH 6 0
BBX 5 6 0 0
BITMAP
50
88
88
A8
A8
50
ENDCHAR
STARTCHAR U+03CA
ENCODING 970
SWIDTH 500 0
DWIDTH 6 0
BBX 3 9 1 0
BITMAP
A0
00
00
40
40
40
40
40
20
ENDCHAR
STARTCHAR U+03CB
ENCODING 971
SWIDTH 500 0
DWIDTH 6 0
BBX 5 9 0 0
BITMAP
50
00
00
88
88
88
88
88
70
ENDCHAR
STARTCHAR U+03CC
ENCODING 972
SWIDTH 500 0
DWIDTH 6 0
BBX 5 10 0 0
BITMAP
10
20
40
00
70
88
88
88
88
70
ENDCHAR
STARTCHAR U+03CD
ENCODING 973
SWIDTH 500 0
DWIDTH 6 0
BBX 5 10 0 0
BITMAP
10
20
40
00
88
88
88
88
88
70
ENDCHAR
STARTCHAR U+03CE
ENCODING 974
SWIDTH 500 0
DWIDTH 6 0
BBX 5 10 0 0
BITMAP
10
20
40
00
50
88
88
A8
A8
50
ENDCHAR
STARTCHAR U+0401
ENCODING 1025
SWIDTH 500 0
DWIDTH 6 0
BBX 5 10 0 0
BITMAP
50
00
F8
80
80
F0
80
80
80
F8
ENDCHAR
STARTCHAR U+0410
ENCODING 1040
SWIDTH 500 0
DWIDTH 6 0
BBX 5 8 0 0
BITMAP
20
20
50
50
70
88
88
88
ENDCHAR
STARTCHAR U+0411
ENCODING 1041
SWIDTH 500 0
DWIDTH 6 0
BBX 5 8 0 0
BITMAP
F0
80
80
F0
88
88
88
F0
ENDCHAR
STARTCHAR U+0412
ENCODING 1042
SWIDTH 500 0
DWIDTH 6 0
BBX 5 8 0 0
BITMAP
F0
88
88
F0
88
88
88
F0
ENDCHAR
STARTCHAR U+0413
ENCODING 1043
SWIDTH 500 0
DWIDTH 6 0
BBX 5 8 0 0
BITMAP
F8
80
80
80
80
80
80
80
ENDCHAR
STARTCHAR U+0414
ENCODING 1044
SWIDTH 500 0
DWIDTH 6 0
BBX 5 10 0 -2
BITMAP
78
48
48
48
48
48
88
F8
88
88
ENDCHAR
STARTCHAR U+0415
ENCODING 1045
SWIDTH 500 0
DWIDTH 6 0
BBX 5 8 0 0
BITMAP
F8
80
80
F0
80
80
80
F8
ENDCHAR
STARTCHAR U+0416
ENCODING 1046
SWIDTH 500 0
DWIDTH 6 0
BBX 5 8 0 0
BITMAP
A8
A8
A8
70
70
A8
A8
A8
ENDCHAR
STARTCHAR U+0417
ENCODING 1047
SWIDTH 500 0
DWIDTH 6 0
BBX 5 8 0 0
BITMAP
70
88
08
30
08
08
88
70
ENDCHAR
STARTCHAR U+0418
ENCODING 1048
SWIDTH 500 0
DWIDTH 6 0
BBX 5 8 0 0
BITMAP
88
98
98
A8
A8
C8
C8
88
ENDCHAR
STARTCHAR U+0419
ENCODING 1049
SWIDTH 500 0
DWIDTH 6 0
BBX 5 10 0 0
BITMAP
88
70
00
88
98
A8
A8
C8
C8
88
ENDCHAR
STARTCHAR U+041A
ENCODING 1050
SWIDTH 500 0
DWIDTH 6 0
BBX 5 8 0 0
BITMAP
88
90
90
E0
90
90
88
88
ENDCHAR
STARTCHAR U+041B
ENCODING 1051
SWIDTH 500 0
DWIDTH 6 0
BBX 5 8 0 0
BITMAP
78
48
48
48
48
48
48
88
ENDCHAR
STARTCHAR U+041C
ENCODING 1052
SWIDTH 500 0
DWIDTH 6 0
BBX 5 8 0 0
BITMAP
88
D8
A8
A8
88
88
88
88
ENDCHAR
STARTCHAR U+041D
ENCODING 1053
SWIDTH 500 0
DWIDTH 6 0
BBX 5 8 0 0
BITMAP
88
88
88
F8
88
88
88
88
ENDCHAR
STARTCHAR U+041E
ENCODING 1054
SWIDTH 500 0
DWIDTH 6 0
BBX 5 8 0 0
BITMAP
70
88
88
88
88
88
88
70
ENDCHAR
STARTCHAR U+041F
ENCODING 1055
SWIDTH 500 0
DWIDTH 6 0
BBX 5 8 0 0
BITMAP
F8
88
88
88
88
88
88
88
ENDCHAR
STARTCHAR U+0420
ENCODING 1056
SWIDTH 500 0
DWIDTH 6 0
BBX 5 8 0 0
BITMAP
F0
88
88
88
F0
80
80
80
ENDCHAR
STARTCHAR U+0421
ENCODING 1057
SWIDTH 500 0
DWIDTH 6 0
BBX 5 8 0 0
BITMAP
70
88
80
80
80
80
88
70
ENDCHAR
STARTCHAR U+0422
ENCODING 1058
SWIDTH 500 0
DWIDTH 6 0
BBX 5 8 0 0
BITMAP
F8
20
20
20
20
20
20
20
ENDCHAR
STARTCHAR U+0423
ENCODING 1059
SWIDTH 500 0
DWIDTH 6 0
BBX 5 8 0 0
BITMAP
88
88
88
50
50
20
20
C0
ENDCHAR
STARTCHAR U+0424
ENCODING 1060
SWIDTH 500 0
DWIDTH 6 0
BBX 5 8 0 0
BITMAP
20
70
A8
A8
A8
A8
70
20
ENDCHAR
STARTCHAR U+0425
ENCODING 1061
SWIDTH 500 0
DWIDTH 6 0
BBX 5 8 0 0
BITMAP
88
88
50
20
20
50
88
88
ENDCHAR
STARTCHAR U+0426
ENCODING 1062
SWIDTH 500 0
DWIDTH 6 0
BBX 5 10 0 -2
BITMAP
90
90
90
90
90
90
90
F8
08
08
ENDCHAR
STARTCHAR U+0427
ENCODING 1063
SWIDTH 500 0
DWIDTH 6 0
BBX 5 8 0 0
BITMAP
88
88
88
88
78
08
08
08
ENDCHAR
STARTCHAR U+0428
ENCODING 1064
SWIDTH 500 0
DWIDTH 6 0
BBX 5 8 0 0
BITMAP
A8
A8
A8
A8
A8
A8
A8
F8
ENDCHAR
STARTCHAR U+0429
ENCODING 1065
SWIDTH 500 0
DWIDTH 6 0
BBX 5 10 0 -2
BITMAP
A8
A8
A8
A8
A8
A8
A8
F8
08
08
ENDCHAR
STARTCHAR U+042A
ENCODING 1066
SWIDTH 500 0
DWIDTH 6 0
BBX 5 8 0 0
BITMAP
C0
40
40
70
48
48
48
70
ENDCHAR
STARTCHAR U+042B
ENCODING 1067
SWIDTH 500 0
DWIDTH 6 0
BBX 5 8 0 0
BITMAP
88
88
88
C8
A8
A8
A8
C8
ENDCHAR
STARTCHAR U+042C
ENCODING 1068
SWIDTH 500 0
DWIDTH 6 0
BBX 5 8 0 0
BITMAP
80
80
80
F0
88
88
88
F0
ENDCHAR
STARTCHAR U+042D
ENCODING 1069
SWIDTH 500 0
DWIDTH 6 0
BBX 5 8 0 0
BITMAP
70
88
08
78
08
08
88
70
ENDCHAR
STARTCHAR U+042E
ENCODING 1070
SWIDTH 500 0
DWIDTH 6 0
BBX 5 8 0 0
BITMAP
90
A8
A8
E8
A8
A8
A8
90
ENDCHAR
STARTCHAR U+042F
ENCODING 1071
SWIDTH 500 0
DWIDTH 6 0
BBX 5 8 0 0
BITMAP
78
88
88
88
78
28
48
88
ENDCHAR
STARTCHAR U+0430
ENCODING 1072
SWIDTH 500 0
DWIDTH 6 0
BBX 5 6 0 0
BITMAP
70
08
78
88
98
68
ENDCHAR
STARTCHAR U+0431
ENCODING 1073
SWIDTH 500 0
DWIDTH 6 0
BBX 5 8 0 0
BITMAP
10
60
80
F0
88
88
88
70
ENDCHAR
STARTCHAR U+0432
ENCODING 1074
SWIDTH 500 0
DWIDTH 6 0
BBX 5 6 0 0
BITMAP
F0
88
F0
88
88
F0
ENDCHAR
STARTCHAR U+0433
ENCODING 1075
SWIDTH 500 0
DWIDTH 6 0
BBX 4 6 0 0
BITMAP
F0
80
80
80
80
80
ENDCHAR
STARTCHAR U+0434
ENCODING 1076
SWIDTH 500 0
DWIDTH 6 0
BBX 5 8 0 -2
BITMAP
78
48
48
48
48
F8
88
88
ENDCHAR
STARTCHAR U+0435
ENCODING 1077
SWIDTH 500 0
DWIDTH 6 0
BBX 5 6 0 0
BITMAP
70
88
F8
80
88
70
ENDCHAR
STARTCHAR U+0436
ENCODING 1078
SWIDTH 500 0
DWIDTH 6 0
BBX 5 6 0 0
BITMAP
A8
A8
70
70
A8
A8
ENDCHAR
STARTCHAR U+0437
ENCODING 1079
SWIDTH 500 0
DWIDTH 6 0
BBX 5 6 0 0
BITMAP
70
88
10
08
88
70
ENDCHAR
STARTCHAR U+0438
ENCODING 1080
SWIDTH 500 0
DWIDTH 6 0
BBX 5 6 0 0
BITMAP
88
98
A8
A8
C8
88
ENDCHAR
STARTCHAR U+0439
ENCODING 1081
SWIDTH 500 0
DWIDTH 6 0
BBX 5 9 0 0
BITMAP
88
70
00
88
98
A8
A8
C8
88
ENDCHAR
STARTCHAR U+043A
ENCODING 1082
SWIDTH 500 0
DWIDTH 6 0
BBX 5 6 0 0
BITMAP
88
90
E0
90
88
88
ENDCHAR
STARTCHAR U+043B
ENCODING 1083
SWIDTH 500 0
DWIDTH 6 0
BBX 5 6 0 0
BITMAP
78
48
48
48
48
88
ENDCHAR
STARTCHAR U+043C
ENCODING 1084
SWIDTH 500 0
DWIDTH 6 0
BBX 5 6 0 0
BITMAP
88
D8
A8
A8
88
88
ENDCHAR
STARTCHAR U+043D
ENCODING 1085
SWIDTH 500 0
DWIDTH 6 0
BBX 5 6 0 0
BITMAP
88
88
F8
88
88
88
ENDCHAR
STARTCHAR U+043E
ENCODING 1086
SWIDTH 500 0
DWIDTH 6 0
BBX 5 6 0 0
BITMAP
70
88
88
88
88
70
ENDCHAR
STARTCHAR U+043F
ENCODING 1087
SWIDTH 500 0
DWIDTH 6 0
BBX 5 6 0 0
BITMAP
F8
88
88
88
88
88
ENDCHAR
STARTCHAR U+0440
ENCODING 1088
SWIDTH 500 0
DWIDTH 6 0
BBX 5 8 0 -2
BITMAP
B0
C8
88
88
C8
B0
80
80
ENDCHAR
STARTCHAR U+0441
ENCODING 1089
SWIDTH 500 0
DWIDTH 6 0
BBX 5 6 0 0
BITMAP
70
88
80
80
88
70
ENDCHAR
STARTCHAR U+0442
ENCODING 1090
SWIDTH 500 0
DWIDTH 6 0
BBX 5 6 0 0
BITMAP
F8
20
20
20
20
20
ENDCHAR
STARTCHAR U+0443
ENCODING 1091
SWIDTH 500 0
DWIDTH 6 0
BBX 5 8 0 -2
BITMAP
88
88
88
50
50
20
20
C0
ENDCHAR
STARTCHAR U+0444
ENCODING 1092
SWIDTH 500 0
DWIDTH 6 0
BBX 5 10 0 -2
BITMAP
20
20
70
A8
A8
A8
A8
70
20
20
ENDCHAR
STARTCHAR U+0445
ENCODING 1093
SWIDTH 500 0
DWIDTH 6 0
BBX 5 6 0 0
BITMAP
88
50
20
20
50
88
ENDCHAR
STARTCHAR U+0446
ENCODING 1094
SWIDTH 500 0
DWIDTH 6 0
BBX 5 8 0 -2
BITMAP
90
90
90
90
90
F8
08
08
ENDCHAR
STARTCHAR U+0447
ENCODING 1095
SWIDTH 500 0
DWIDTH 6 0
BBX 5 6 0 0
BITMAP
88
88
88
78
08
08
ENDCHAR
STARTCHAR U+0448
ENCODING 1096
SWIDTH 500 0
DWIDTH 6 0
BBX 5 6 0 0
BITMAP
A8
A8
A8
A8
A8
F8
ENDCHAR
STARTCHAR U+0449
ENCODING 1097
SWIDTH 500 0
DWIDTH 6 0
BBX 5 8 0 -2
BITMAP
A8
A8
A8
A8
A8
F8
08
08
ENDCHAR
STARTCHAR U+044A
ENCODING 1098
SWIDTH 500 0
DWIDTH 6 0
BBX 5 6 0 0
BITMAP
C0
40
70
48
48
70
ENDCHAR
STARTCHAR U+044B
ENCODING 1099
SWIDTH 500 0
DWIDTH 6 0
BBX 5 6 0 0
BITMAP
88
88
C8
A8
A8
C8
ENDCHAR
STARTCHAR U+044C
ENCODING 1100
SWIDTH 500 0
DWIDTH 6 0
BBX 5 6 0 0
BITMAP
80
80
F0
88
88
F0
ENDCHAR
STARTCHAR U+044D
ENCODING 1101
SWIDTH 500 0
DWIDTH 6 0
BBX 5 6 0 0
BITMAP
70
88
38
08
88
70
ENDCHAR
STARTCHAR U+044E
ENCODING 1102
SWIDTH 500 0
DWIDTH 6 0
BBX 5 6 0 0
BITMAP
90
A8
E8
A8
A8
90
ENDCHAR
STARTCHAR U+044F
ENCODING 1103
SWIDTH 500 0
DWIDTH 6 0
BBX 5 6 0 0
BITMAP
78
88
88
78
48
88
ENDCHAR
STARTCHAR U+0450
ENCODING 1104
SWIDTH 500 0
DWIDTH 6 0
BBX 5 10 0 0
BITMAP
40
20
10
00
70
88
F8
80
88
70
ENDCHAR
STARTCHAR U+0451
ENCODING 1105
SWIDTH 500 0
DWIDTH 6 0
BBX 5 8 0 0
BITMAP
50
00
70
88
F8
80
88
70
ENDCHAR
STARTCHAR U+0455
ENCODING 1109
SWIDTH 500 0
DWIDTH 6 0
BBX 5 6 0 0
BITMAP
70
88
60
10
88
70
ENDCHAR
STARTCHAR U+0456
ENCODING 1110
SWIDTH 500 0
DWIDTH 6 0
BBX 3 8 1 0
BITMAP
40
00
C0
40
40
40
40
E0
ENDCHAR
STARTCHAR U+0457
ENCODING 1111
SWIDTH 500 0
DWIDTH 6 0
BBX 3 8 1 0
BITMAP
A0
00
C0
40
40
40
40
E0
ENDCHAR
STARTCHAR U+0458
ENCODING 1112
SWIDTH 500 0
DWIDTH 6 0
BBX 4 10 0 -2
BITMAP
10
00
10
10
10
10
10
10
90
60
ENDCHAR
STARTCHAR U+045A
ENCODING 1114
SWIDTH 500 0
DWIDTH 6 0
BBX 5 6 0 0
BITMAP
A0
A0
F0
A8
A8
B0
ENDCHAR
STARTCHAR U+045C
ENCODING 1116
SWIDTH 500 0
DWIDTH 6 0
BBX 5 10 0 0
BITMAP
10
20
40
00
88
90
E0
90
88
88
ENDCHAR
STARTCHAR U+045D
ENCODING 1117
SWIDTH 500 0
DWIDTH 6 0
BBX 5 10 0 0
BITMAP
40
20
10
00
88
98
A8
A8
C8
88
ENDCHAR
STARTCHAR U+045E
ENCODING 1118
SWIDTH 500 0
DWIDTH 6 0
BBX 5 11 0 -2
BITMAP
88
70
00
88
88
88
50
50
20
20
C0
ENDCHAR
STARTCHAR U+2010
ENCODING 8208
SWIDTH 1000 0
DWIDTH 12 0
BBX 5 1 3 4
BITMAP
F8
ENDCHAR
STARTCHAR U+2013
ENCODING 8211
SWIDTH 500 0
DWIDTH 6 0
BBX 6 1 0 4
BITMAP
FC
ENDCHAR
STARTCHAR U+2014
ENCODING 8212
SWIDTH 1000 0
DWIDTH 12 0
BBX 11 1 0 4
BITMAP
FFE0
ENDCHAR
STARTCHAR U+2015
ENCODING 8213
SWIDTH 1000 0
DWIDTH 12 0
BBX 11 1 0 4
BITMAP
FFE0
ENDCHAR
STARTCHAR U+2016
ENCODING 8214
SWIDTH 1000 0
DWIDTH 12 0
BBX 3 12 4 -2
BITMAP
A0
A0
A0
A0
A0
A0
A0
A0
A0
A0
A0
A0
ENDCHAR
STARTCHAR U+2018
ENCODING 8216
SWIDTH 1000 0
DWIDTH 12 0
BBX 2 4 7 6
BITMAP
40
80
C0
C0
ENDCHAR
STARTCHAR U+2019
ENCODING 8217
SWIDTH 1000 0
DWIDTH 12 0
BBX 2 4 2 6
BITMAP
C0
C0
40
80
ENDCHAR
STARTCHAR U+201C
ENCODING 8220
SWIDTH 1000 0
DWIDTH 12 0
BBX 5 4 5 6
BITMAP
48
90
D8
D8
ENDCHAR
STARTCHAR U+201D
ENCODING 8221
SWIDTH 1000 0
DWIDTH 12 0
BBX 5 4 2 6
BITMAP
D8
D8
48
90
ENDCHAR
STARTCHAR U+2020
ENCODING 8224
SWIDTH 1000 0
DWIDTH 12 0
BBX 7 10 2 -1
BITMAP
10
10
FE
10
10
10
10
10
10
10
ENDCHAR
STARTCHAR U+2021
ENCODING 8225
SWIDTH 1000 0
DWIDTH 12 0
BBX 7 10 2 -1
BITMAP
10
10
FE
10
10
10
10
FE
10
10
ENDCHAR
STARTCHAR U+2025
ENCODING 8229
SWIDTH 1000 0
DWIDTH 12 0
BBX 7 2 2 3
BITMAP
C6
C6
ENDCHAR
STARTCHAR U+2026
ENCODING 8230
SWIDTH 1000 0
DWIDTH 12 0
BBX 10 2 1 3
BITMAP
CCC0
CCC0
ENDCHAR
STARTCHAR U+2030
ENCODING 8240
SWIDTH 1000 0
DWIDTH 12 0
BBX 10 10 0 -1
BITMAP
6000
9000
9200
6400
0800
1000
2D80
5240
9240
0D80
ENDCHAR
STARTCHAR U+2032
ENCODING 8242
SWIDTH 500 0
DWIDTH 6 0
BBX 1 3 2 6
BITMAP
80
80
80
ENDCHAR
STARTCHAR U+2033
ENCODING 8243
SWIDTH 500 0
DWIDTH 6 0
BBX 3 3 1 6
BITMAP
A0
A0
A0
ENDCHAR
STARTCHAR U+203B
ENCODING 8251
SWIDTH 1000 0
DWIDTH 12 0
BBX 9 9 1 -1
BITMAP
8880
4100
2200
1400
8880
1400
2200
4100
8880
ENDCHAR
STARTCHAR U+20AC
ENCODING 8364
SWIDTH 500 0
DWIDTH 6 0
BBX 5 8 0 0
BITMAP
30
48
E0
40
40
E0
48
30
ENDCHAR
STARTCHAR U+2103
ENCODING 8451
SWIDTH 1000 0
DWIDTH 12 0
BBX 10 9 1 0
BITMAP
6000
9380
9440
6400
0400
0400
0400
0440
0380
ENDCHAR
STARTCHAR U+2116
ENCODING 8470
SWIDTH 1000 0
DWIDTH 12 0
BBX 11 9 0 -1
BITMAP
8400
C400
A400
A4C0
9520
9520
8CC0
8C00
85E0
ENDCHAR
STARTCHAR U+2160
ENCODING 8544
SWIDTH 1000 0
DWIDTH 12 0
BBX 1 10 5 -1
BITMAP
80
80
80
80
80
80
80
80
80
80
ENDCHAR
STARTCHAR U+2161
ENCODING 8545
SWIDTH 1000 0
DWIDTH 12 0
BBX 5 10 3 -1
BITMAP
88
88
88
88
88
88
88
88
88
88
ENDCHAR
STARTCHAR U+2162
ENCODING 8546
SWIDTH 1000 0
DWIDTH 12 0
BBX 7 10 2 -1
BITMAP
92
92
92
92
92
92
92
92
92
92
ENDCHAR
STARTCHAR U+2163
ENCODING 8547
SWIDTH 1000 0
DWIDTH 12 0
BBX 10 10 1 -1
BITMAP
9040
9040
9040
8880
8880
8880
8500
8500
8200
8200
ENDCHAR
STARTCHAR U+2164
ENCODING 8548
SWIDTH 1000 0
DWIDTH 12 0
BBX 7 10 2 -1
BITMAP
82
82
82
44
44
44
28
28
10
10
ENDCHAR
STARTCHAR U+2165
ENCODING 8549
SWIDTH 1000 0
DWIDTH 12 0
BBX 10 10 1 -1
BITMAP
8240
8240
8240
4440
4440
4440
2840
2840
1040
1040
ENDCHAR
STARTCHAR U+2166
ENCODING 8550
SWIDTH 1000 0
DWIDTH 12 0
BBX 11 10 0 -1
BITMAP
82A0
82A0
82A0
44A0
44A0
44A0
28A0
28A0
10A0
10A0
ENDCHAR
STARTCHAR U+2167
ENCODING 8551
SWIDTH 1000 0
DWIDTH 12 0
BBX 11 10 0 -1
BITMAP
8AA0
8AA0
8AA0
8AA0
52A0
52A0
52A0
22A0
22A0
22A0
ENDCHAR
STARTCHAR U+2168
ENCODING 8552
SWIDTH 1000 0
DWIDTH 12 0
BBX 10 10 1 -1
BITMAP
9040
9040
8880
8500
8200
8200
8500
8880
9040
9040
ENDCHAR
STARTCHAR U+2169
ENCODING 8553
SWIDTH 1000 0
DWIDTH 12 0
BBX 7 10 2 -1
BITMAP
82
82
44
28
10
10
28
44
82
82
ENDCHAR
STARTCHAR U+216A
ENCODING 8554
SWIDTH 1000 0
DWIDTH 12 0
BBX 10 10 0 -1
BITMAP
8240
8240
4440
2840
1040
1040
2840
4440
8240
8240
ENDCHAR
STARTCHAR U+216B
ENCODING 8555
SWIDTH 1000 0
DWIDTH 12 0
BBX 11 10 0 -1
BITMAP
82A0
82A0
44A0
28A0
10A0
10A0
28A0
44A0
82A0
82A0
ENDCHAR
STARTCHAR U+2190
ENCODING 8592
SWIDTH 1000 0
DWIDTH 12 0
BBX 11 7 0 0
BITMAP
1000
2000
4000
FFE0
4000
2000
1000
ENDCHAR
STARTCHAR U+2191
ENCODING 8593
SWIDTH 1000 0
DWIDTH 12 0
BBX 7 11 2 -2
BITMAP
10
38
54
92
10
10
10
10
10
10
10
ENDCHAR
STARTCHAR U+2192
ENCODING 8594
SWIDTH 1000 0
DWIDTH 12 0
BBX 11 7 0 0
BITMAP
0100
0080
0040
FFE0
0040
0080
0100
ENDCHAR
STARTCHAR U+2193
ENCODING 8595
SWIDTH 1000 0
DWIDTH 12 0
BBX 7 11 2 -2
BITMAP
10
10
10
10
10
10
10
92
54
38
10
ENDCHAR
STARTCHAR U+2194
ENCODING 8596
SWIDTH 1000 0
DWIDTH 12 0
BBX 11 5 0 1
BITMAP
2080
4040
FFE0
4040
2080
ENDCHAR
STARTCHAR U+2195
ENCODING 8597
SWIDTH 1000 0
DWIDTH 12 0
BBX 5 11 3 -2
BITMAP
20
70
A8
20
20
20
20
20
A8
70
20
ENDCHAR
STARTCHAR U+2196
ENCODING 8598
SWIDTH 1000 0
DWIDTH 12 0
BBX 11 11 0 -2
BITMAP
F800
C000
A000
9000
8800
0400
0200
0100
0080
0040
0020
ENDCHAR
STARTCHAR U+2197
ENCODING 8599
SWIDTH 1000 0
DWIDTH 12 0
BBX 11 11 0 -2
BITMAP
03E0
0060
00A0
0120
0220
0400
0800
1000
2000
4000
8000
ENDCHAR
STARTCHAR U+2198
ENCODING 8600
SWIDTH 1000 0
DWIDTH 12 0
BBX 11 11 0 -2
BITMAP
8000
4000
2000
1000
0800
0400
0220
0120
00A0
0060
03E0
ENDCHAR
STARTCHAR U+2199
ENCODING 8601
SWIDTH 1000 0
DWIDTH 12 0
BBX 11 11 0 -2
BITMAP
0020
0040
0080
0100
0200
0400
8800
9000
A000
C000
F800
ENDCHAR
STARTCHAR U+21A9
ENCODING 8617
SWIDTH 1000 0
DWIDTH 12 0
BBX 9 8 1 0
BITMAP
0E00
0100
0080
2080
4100
FE00
4000
2000
ENDCHAR
STARTCHAR U+21AA
ENCODING 8618
SWIDTH 1000 0
DWIDTH 12 0
BBX 9 8 1 0
BITMAP
3800
4000
8000
8200
4100
3F80
0100
0200
ENDCHAR
STARTCHAR U+21B0
ENCODING 8624
SWIDTH 1000 0
DWIDTH 12 0
BBX 8 9 1 0
BITMAP
20
40
FF
41
21
01
01
01
01
ENDCHAR
STARTCHAR U+21B1
ENCODING 8625
SWIDTH 1000 0
DWIDTH 12 0
BBX 8 9 2 0
BITMAP
04
02
FF
82
84
80
80
80
80
ENDCHAR
STARTCHAR U+21B2
ENCODING 8626
SWIDTH 1000 0
DWIDTH 12 0
BBX 8 9 1 -1
BITMAP
01
01
01
01
21
41
FF
40
20
ENDCHAR
STARTCHAR U+21B3
ENCODING 8627
SWIDTH 1000 0
DWIDTH 12 0
BBX 8 9 2 -1
BITMAP
80
80
80
80
84
82
FF
02
04
ENDCHAR
STARTCHAR U+21B4
ENCODING 8628
SWIDTH 1000 0
DWIDTH 12 0
BBX 11 7 0 0
BITMAP
FF80
0080
0080
0080
02A0
01C0
0080
ENDCHAR
STARTCHAR U+21B5
ENCODING 8629
SWIDTH 1000 0
DWIDTH 12 0
BBX 10 7 1 -1
BITMAP
0040
0040
2040
4040
FFC0
4000
2000
ENDCHAR
STARTCHAR U+21B6
ENCODING 8630
SWIDTH 1000 0
DWIDTH 12 0
BBX 9 9 0 -1
BITMAP
0E00
1100
2080
2080
2080
2080
A880
7000
2000
ENDCHAR
STARTCHAR U+21B7
ENCODING 8631
SWIDTH 1000 0
DWIDTH 12 0
BBX 9 9 2 -1
BITMAP
3800
4400
8200
8200
8200
8200
8A80
0700
0200
ENDCHAR
STARTCHAR U+21B9
ENCODING 8633
SWIDTH 1000 0
DWIDTH 12 0
BBX 11 10 0 -1
BITMAP
9000
A000
FFE0
A000
9000
0120
00A0
FFE0
00A0
0120
ENDCHAR
STARTCHAR U+21BA
ENCODING 8634
SWIDTH 1000 0
DWIDTH 12 0
BBX 9 10 1 -1
BITMAP
0780
2600
4500
8480
8080
8080
8080
8080
4100
3E00
ENDCHAR
STARTCHAR U+21BB
ENCODING 8635
SWIDTH 1000 0
DWIDTH 12 0
BBX 9 10 1 -1
BITMAP
F000
3200
5100
9080
8080
8080
8080
8080
4100
3E00
ENDCHAR
STARTCHAR U+21BC
ENCODING 8636
SWIDTH 1000 0
DWIDTH 12 0
BBX 11 4 0 3
BITMAP
1000
2000
4000
FFE0
ENDCHAR
STARTCHAR U+21BD
ENCODING 8637
SWIDTH 1000 0
DWIDTH 12 0
BBX 11 4 0 0
BITMAP
FFE0
4000
2000
1000
ENDCHAR
STARTCHAR U+21BE
ENCODING 8638
SWIDTH 1000 0
DWIDTH 12 0
BBX 4 11 5 -2
BITMAP
80
C0
A0
90
80
80
80
80
80
80
80
ENDCHAR
STARTCHAR U+21BF
ENCODING 8639
SWIDTH 1000 0
DWIDTH 12 0
BBX 4 11 2 -2
BITMAP
10
30
50
90
10
10
10
10
10
10
10
ENDCHAR
STARTCHAR U+21C0
ENCODING 8640
SWIDTH 1000 0
DWIDTH 12 0
BBX 11 4 0 3
BITMAP
0100
0080
0040
FFE0
ENDCHAR
STARTCHAR U+21C1
ENCODING 8641
SWIDTH 1000 0
DWIDTH 12 0
BBX 11 4 0 0
BITMAP
FFE0
0040
0080
0100
ENDCHAR
STARTCHAR U+21C2
ENCODING 8642
SWIDTH 1000 0
DWIDTH 12 0
BBX 4 11 5 -2
BITMAP
80
80
80
80
80
80
80
90
A0
C0
80
ENDCHAR
STARTCHAR U+21C3
ENCODING 8643
SWIDTH 1000 0
DWIDTH 12 0
BBX 4 11 2 -2
BITMAP
10
10
10
10
10
10
10
90
50
30
10
ENDCHAR
STARTCHAR U+21C4
ENCODING 8644
SWIDTH 1000 0
DWIDTH 12 0
BBX 11 9 0 -1
BITMAP
0080
0040
FFE0
0040
2080
4000
FFE0
4000
2000
ENDCHAR
STARTCHAR U+21C5
ENCODING 8645
SWIDTH 1000 0
DWIDTH 12 0
BBX 9 11 1 -2
BITMAP
2200
7200
AA00
2200
2200
2200
2200
2200
2A80
2700
2200
ENDCHAR
STARTCHAR U+21C6
ENCODING 8646
SWIDTH 1000 0
DWIDTH 12 0
BBX 11 9 0 -1
BITMAP
2000
4000
FFE0
4000
2080
0040
FFE0
0040
0080
ENDCHAR
STARTCHAR U+21CB
ENCODING 8651
SWIDTH 1000 0
DWIDTH 12 0
BBX 11 8 0 0
BITMAP
2000
4000
FFE0
0000
0000
FFE0
0040
0080
ENDCHAR
STARTCHAR U+21CC
ENCODING 8652
SWIDTH 1000 0
DWIDTH 12 0
BBX 11 8 0 0
BITMAP
0080
0040
FFE0
0000
0000
FFE0
4000
2000
ENDCHAR
STARTCHAR U+21D0
ENCODING 8656
SWIDTH 1000 0
DWIDTH 12 0
BBX 11 7 0 0
BITMAP
1000
2000
7FE0
8000
7FE0
2000
1000
ENDCHAR
STARTCHAR U+21D1
ENCODING 8657
SWIDTH 1000 0
DWIDTH 12 0
BBX 7 11 2 -2
BITMAP
10
28
6C
AA
28
28
28
28
28
28
28
ENDCHAR
STARTCHAR U+21D2
ENCODING 8658
SWIDTH 1000 0
DWIDTH 12 0
BBX 11 7 0 0
BITMAP
0100
0080
FFC0
0020
FFC0
0080
0100
ENDCHAR
STARTCHAR U+21D3
ENCODING 8659
SWIDTH 1000 0
DWIDTH 12 0
BBX 7 11 2 -2
BITMAP
28
28
28
28
28
28
28
AA
6C
28
10
ENDCHAR
STARTCHAR U+21D4
ENCODING 8660
SWIDTH 1000 0
DWIDTH 12 0
BBX 11 7 0 0
BITMAP
1100
2080
7FC0
8020
7FC0
2080
1100
ENDCHAR
STARTCHAR U+21D5
ENCODING 8661
SWIDTH 1000 0
DWIDTH 12 0
BBX 7 11 2 -2
BITMAP
10
28
6C
AA
28
28
28
AA
6C
28
10
ENDCHAR
STARTCHAR U+21DA
ENCODING 8666
SWIDTH 1000 0
DWIDTH 12 0
BBX 11 9 0 -1
BITMAP
0800
1000
3FE0
4000
FFE0
4000
3FE0
1000
0800
ENDCHAR
STARTCHAR U+21DB
ENCODING 8667
SWIDTH 1000 0
DWIDTH 12 0
BBX 11 9 0 -1
BITMAP
0200
0100
FF80
0040
FFE0
0040
FF80
0100
0200
ENDCHAR
STARTCHAR U+21E0
ENCODING 8672
SWIDTH 1000 0
DWIDTH 12 0
BBX 11 7 0 0
BITMAP
1000
2000
4000
F760
4000
2000
1000
ENDCHAR
STARTCHAR U+21E1
ENCODING 8673
SWIDTH 1000 0
DWIDTH 12 0
BBX 7 11 2 -2
BITMAP
10
38
54
92
00
10
10
10
00
10
10
ENDCHAR
STARTCHAR U+21E2
ENCODING 8674
SWIDTH 1000 0
DWIDTH 12 0
BBX 11 7 0 0
BITMAP
0100
0080
0040
DDE0
0040
0080
0100
ENDCHAR
STARTCHAR U+21E3
ENCODING 8675
SWIDTH 1000 0
DWIDTH 12 0
BBX 7 11 2 -2
BITMAP
10
10
00
10
10
10
00
92
54
38
10
ENDCHAR
STARTCHAR U+21E4
ENCODING 8676
SWIDTH 1000 0
DWIDTH 12 0
BBX 11 7 0 0
BITMAP
8400
8800
9000
BFE0
9000
8800
8400
ENDCHAR
STARTCHAR U+21E5
ENCODING 8677
SWIDTH 1000 0
DWIDTH 12 0
BBX 11 7 0 0
BITMAP
0420
0220
0120
FFA0
0120
0220
0420
ENDCHAR
STARTCHAR U+21E6
ENCODING 8678
SWIDTH 1000 0
DWIDTH 12 0
BBX 11 9 0 -1
BITMAP
0800
1800
2FE0
4020
8020
4020
2FE0
1800
0800
ENDCHAR
STARTCHAR U+21E7
ENCODING 8679
SWIDTH 1000 0
DWIDTH 12 0
BBX 9 11 1 -2
BITMAP
0800
1400
2200
4100
E380
2200
2200
2200
2200
2200
3E00
ENDCHAR
STARTCHAR U+21E8
ENCODING 8680
SWIDTH 1000 0
DWIDTH 12 0
BBX 11 9 0 -1
BITMAP
0200
0300
FE80
8040
8020
8040
FE80
0300
0200
ENDCHAR
STARTCHAR U+21E9
ENCODING 8681
SWIDTH 1000 0
DWIDTH 12 0
BBX 9 11 1 -2
BITMAP
3E00
2200
2200
2200
2200
2200
E380
4100
2200
1400
0800
ENDCHAR
STARTCHAR U+21EA
ENCODING 8682
SWIDTH 1000 0
DWIDTH 12 0
BBX 9 11 1 -2
BITMAP
0800
1400
2200
4100
E380
2200
3E00
0000
3E00
2200
3E00
ENDCHAR
STARTCHAR U+21EB
ENCODING 8683
SWIDTH 1000 0
DWIDTH 12 0
BBX 9 11 1 -2
BITMAP
0800
1400
2200
4100
E380
2200
2200
2200
E380
8080
FF80
ENDCHAR
STARTCHAR U+21EE
ENCODING 8686
SWIDTH 1000 0
DWIDTH 12 0
BBX 9 11 1 -2
BITMAP
0800
1400
2A00
5500
A280
4100
E380
2200
2200
2200
3E00
ENDCHAR
STARTCHAR U+21EF
ENCODING 8687
SWIDTH 1000 0
DWIDTH 12 0
BBX 9 11 1 -2
BITMAP
0800
1400
2A00
5500
A280
4100
E380
2200
E380
8080
FF80
ENDCHAR
STARTCHAR U+21F0
ENCODING 8688
SWIDTH 1000 0
DWIDTH 12 0
BBX 11 9 0 -1
BITMAP
E200
A300
BE80
8040
8020
8040
BE80
A300
E200
ENDCHAR
STARTCHAR U+21F1
ENCODING 8689
SWIDTH 1000 0
DWIDTH 12 0
BBX 11 11 0 -2
BITMAP
FFE0
8000
BC00
B000
A800
A400
8200
8100
8080
8040
8020
ENDCHAR
STARTCHAR U+21F2
ENCODING 8690
SWIDTH 1000 0
DWIDTH 12 0
BBX 11 11 0 -2
BITMAP
8020
4020
2020
1020
0820
04A0
02A0
01A0
07A0
0020
FFE0
ENDCHAR
STARTCHAR U+2200
ENCODING 8704
SWIDTH 1000 0
DWIDTH 12 0
BBX 9 10 1 -1
BITMAP
8080
8080
4100
7F00
2200
2200
1400
1400
0800
0800
ENDCHAR
STARTCHAR U+2203
ENCODING 8707
SWIDTH 1000 0
DWIDTH 12 0
BBX 7 10 2 -1
BITMAP
FE
02
02
02
7E
02
02
02
02
FE
ENDCHAR
STARTCHAR U+2208
ENCODING 8712
SWIDTH 1000 0
DWIDTH 12 0
BBX 9 7 1 0
BITMAP
1F80
6000
8000
FF80
8000
6000
1F80
ENDCHAR
STARTCHAR U+220F
ENCODING 8719
SWIDTH 1000 0
DWIDTH 12 0
BBX 7 10 2 -1
BITMAP
FE
82
82
82
82
82
82
82
82
82
ENDCHAR
STARTCHAR U+2211
ENCODING 8721
SWIDTH 1000 0
DWIDTH 12 0
BBX 7 10 2 -1
BITMAP
FE
40
20
10
08
10
20
40
80
FE
ENDCHAR
STARTCHAR U+2212
ENCODING 8722
SWIDTH 1000 0
DWIDTH 12 0
BBX 7 1 2 4
BITMAP
FE
ENDCHAR
STARTCHAR U+221A
ENCODING 8730
SWIDTH 1000 0
DWIDTH 12 0
BBX 9 10 1 -1
BITMAP
0080
0080
0100
0100
2200
6200
9400
1400
0800
0800
ENDCHAR
STARTCHAR U+221D
ENCODING 8733
SWIDTH 1000 0
DWIDTH 12 0
BBX 10 5 0 2
BITMAP
31C0
4A00
8400
4A00
31C0
ENDCHAR
STARTCHAR U+221E
ENCODING 8734
SWIDTH 1000 0
DWIDTH 12 0
BBX 11 5 0 2
BITMAP
3180
4A40
8420
4A40
3180
ENDCHAR
STARTCHAR U+2220
ENCODING 8736
SWIDTH 1000 0
DWIDTH 12 0
BBX 10 10 0 -1
BITMAP
0040
0080
0100
0200
0400
0800
1000
2000
4000
FFC0
ENDCHAR
STARTCHAR U+2225
ENCODING 8741
SWIDTH 1000 0
DWIDTH 12 0
BBX 6 10 2 -1
BITMAP
24
24
24
48
48
48
48
90
90
90
ENDCHAR
STARTCHAR U+2227
ENCODING 8743
SWIDTH 1000 0
DWIDTH 12 0
BBX 9 10 1 -1
BITMAP
0800
0800
1400
1400
2200
2200
4100
4100
8080
8080
ENDCHAR
STARTCHAR U+2228
ENCODING 8744
SWIDTH 1000 0
DWIDTH 12 0
BBX 9 10 1 -1
BITMAP
8080
8080
4100
4100
2200
2200
1400
1400
0800
0800
ENDCHAR
STARTCHAR U+2229
ENCODING 8745
SWIDTH 1000 0
DWIDTH 12 0
BBX 7 10 2 -1
BITMAP
38
44
44
82
82
82
82
82
82
82
ENDCHAR
STARTCHAR U+222A
ENCODING 8746
SWIDTH 1000 0
DWIDTH 12 0
BBX 7 10 2 -1
BITMAP
82
82
82
82
82
82
82
44
44
38
ENDCHAR
STARTCHAR U+222B
ENCODING 8747
SWIDTH 1000 0
DWIDTH 12 0
BBX 5 10 3 -1
BITMAP
10
28
20
20
20
20
20
20
A0
40
ENDCHAR
STARTCHAR U+222E
ENCODING 8750
SWIDTH 1000 0
DWIDTH 12 0
BBX 5 10 3 -1
BITMAP
10
28
20
70
A8
A8
70
20
A0
40
ENDCHAR
STARTCHAR U+2234
ENCODING 8756
SWIDTH 1000 0
DWIDTH 12 0
BBX 8 8 1 0
BITMAP
18
18
00
00
00
00
C3
C3
ENDCHAR
STARTCHAR U+2235
ENCODING 8757
SWIDTH 1000 0
DWIDTH 12 0
BBX 8 8 1 0
BITMAP
C3
C3
00
00
00
00
18
18
ENDCHAR
STARTCHAR U+2236
ENCODING 8758
SWIDTH 1000 0
DWIDTH 12 0
BBX 2 8 4 0
BITMAP
C0
C0
00
00
00
00
C0
C0
ENDCHAR
STARTCHAR U+2237
ENCODING 8759
SWIDTH 1000 0
DWIDTH 12 0
BBX 8 8 1 0
BITMAP
C3
C3
00
00
00
00
C3
C3
ENDCHAR
STARTCHAR U+223D
ENCODING 8765
SWIDTH 1000 0
DWIDTH 12 0
BBX 9 4 1 2
BITMAP
4300
8480
8880
7100
ENDCHAR
STARTCHAR U+2248
ENCODING 8776
SWIDTH 1000 0
DWIDTH 12 0
BBX 9 6 1 1
BITMAP
3080
4900
8600
3080
4900
8600
ENDCHAR
STARTCHAR U+224C
ENCODING 8780
SWIDTH 1000 0
DWIDTH 12 0
BBX 9 8 1 0
BITMAP
4300
8480
8880
7100
0000
FF80
0000
FF80
ENDCHAR
STARTCHAR U+2252
ENCODING 8786
SWIDTH 1000 0
DWIDTH 12 0
BBX 9 8 1 0
BITMAP
8000
0000
FF80
0000
0000
FF80
0000
0080
ENDCHAR
STARTCHAR U+2260
ENCODING 8800
SWIDTH 1000 0
DWIDTH 12 0
BBX 9 10 1 -1
BITMAP
0200
0200
0400
FF80
0800
0800
FF80
1000
2000
2000
ENDCHAR
STARTCHAR U+2261
ENCODING 8801
SWIDTH 1000 0
DWIDTH 12 0
BBX 9 7 1 0
BITMAP
FF80
0000
0000
FF80
0000
0000
FF80
ENDCHAR
STARTCHAR U+2264
ENCODING 8804
SWIDTH 1000 0
DWIDTH 12 0
BBX 10 11 0 -2
BITMAP
00C0
0300
0C00
3000
C000
3000
CC00
3300
0CC0
0300
00C0
ENDCHAR
STARTCHAR U+2265
ENCODING 8805
SWIDTH 1000 0
DWIDTH 12 0
BBX 10 11 0 -2
BITMAP
C000
3000
0C00
0300
00C0
0300
0CC0
3300
CC00
3000
C000
ENDCHAR
STARTCHAR U+2266
ENCODING 8806
SWIDTH 1000 0
DWIDTH 12 0
BBX 10 11 0 -2
BITMAP
00C0
0700
3800
C000
3800
0700
00C0
0000
FFC0
0000
FFC0
ENDCHAR
STARTCHAR U+2267
ENCODING 8807
SWIDTH 1000 0
DWIDTH 12 0
BBX 10 11 1 -2
BITMAP
C000
3800
0700
00C0
0700
3800
C000
0000
FFC0
0000
FFC0
ENDCHAR
STARTCHAR U+226E
ENCODING 8814
SWIDTH 1000 0
DWIDTH 12 0
BBX 10 11 0 -2
BITMAP
0400
04C0
0700
0C00
3400
C400
3400
0C00
0700
04C0
0400
ENDCHAR
STARTCHAR U+226F
ENCODING 8815
SWIDTH 1000 0
DWIDTH 12 0
BBX 10 11 0 -2
BITMAP
0800
C800
3800
0C00
0B00
08C0
0B00
0C00
3800
C800
0800
ENDCHAR
STARTCHAR U+2299
ENCODING 8857
SWIDTH 1000 0
DWIDTH 12 0
BBX 9 9 1 -1
BITMAP
1C00
2200
4100
8080
8880
8080
4100
2200
1C00
ENDCHAR
STARTCHAR U+22A5
ENCODING 8869
SWIDTH 1000 0
DWIDTH 12 0
BBX 9 10 1 -1
BITMAP
0800
0800
0800
0800
0800
0800
0800
0800
0800
FF80
ENDCHAR
STARTCHAR U+2302
ENCODING 8962
SWIDTH 1000 0
DWIDTH 12 0
BBX 11 9 0 -1
BITMAP
0400
0A00
3180
C060
4040
4040
4040
4040
7FC0
ENDCHAR
STARTCHAR U+2312
ENCODING 8978
SWIDTH 1000 0
DWIDTH 12 0
BBX 9 3 1 7
BITMAP
1C00
6300
8080
ENDCHAR
STARTCHAR U+2316
ENCODING 8982
SWIDTH 1000 0
DWIDTH 12 0
BBX 11 11 0 -2
BITMAP
0400
0E00
1500
2480
4040
F1E0
4040
2480
1500
0E00
0400
ENDCHAR
STARTCHAR U+2317
ENCODING 8983
SWIDTH 1000 0
DWIDTH 12 0
BBX 11 11 0 -2
BITMAP
1100
1100
1100
FFE0
1100
1100
1100
FFE0
1100
1100
1100
ENDCHAR
STARTCHAR U+2318
ENCODING 8984
SWIDTH 1000 0
DWIDTH 12 0
BBX 11 11 0 -2
BITMAP
60C0
9120
9120
7FC0
1100
1100
1100
7FC0
9120
9120
60C0
ENDCHAR
STARTCHAR U+231A
ENCODING 8986
SWIDTH 1000 0
DWIDTH 12 0
BBX 7 11 2 -2
BITMAP
38
38
7C
92
92
9E
82
82
7C
38
38
ENDCHAR
STARTCHAR U+231B
ENCODING 8987
SWIDTH 1000 0
DWIDTH 12 0
BBX 9 11 1 -2
BITMAP
FF80
4100
4100
4100
2200
1400
3E00
7F00
7F00
7F00
FF80
ENDCHAR
STARTCHAR U+2328
ENCODING 9000
SWIDTH 1000 0
DWIDTH 12 0
BBX 11 9 0 -1
BITMAP
FFE0
8020
AAA0
8020
AAA0
8020
9F20
8020
FFE0
ENDCHAR
STARTCHAR U+232B
ENCODING 9003
SWIDTH 1000 0
DWIDTH 12 0
BBX 11 7 0 0
BITMAP
1FE0
28A0
4520
8220
4520
28A0
1FE0
ENDCHAR
STARTCHAR U+23CE
ENCODING 9166
SWIDTH 1000 0
DWIDTH 12 0
BBX 10 10 0 -2
BITMAP
01C0
0140
0140
1940
2940
4F40
8040
4F80
2800
1800
ENDCHAR
STARTCHAR U+23CF
ENCODING 9167
SWIDTH 1000 0
DWIDTH 12 0
BBX 9 8 1 0
BITMAP
0800
1C00
3E00
7F00
FF80
0000
FF80
FF80
ENDCHAR
STARTCHAR U+23E8
ENCODING 9192
SWIDTH 1000 0
DWIDTH 12 0
BBX 7 6 2 -2
BITMAP
4C
D2
56
5A
52
4C
ENDCHAR
STARTCHAR U+23E9
ENCODING 9193
SWIDTH 1000 0
DWIDTH 12 0
BBX 9 7 1 0
BITMAP
8400
C600
E700
F780
E700
C600
8400
ENDCHAR
STARTCHAR U+23EA
ENCODING 9194
SWIDTH 1000 0
DWIDTH 12 0
BBX 9 7 1 0
BITMAP
1080
3180
7380
F780
7380
3180
1080
ENDCHAR
STARTCHAR U+23EB
ENCODING 9195
SWIDTH 1000 0
DWIDTH 12 0
BBX 7 9 2 -1
BITMAP
10
38
7C
FE
00
10
38
7C
FE
ENDCHAR
STARTCHAR U+23EC
ENCODING 9196
SWIDTH 1000 0
DWIDTH 12 0
BBX 7 9 2 -1
BITMAP
FE
7C
38
10
00
FE
7C
38
10
ENDCHAR
STARTCHAR U+23ED
ENCODING 9197
SWIDTH 1000 0
DWIDTH 12 0
BBX 9 7 1 0
BITMAP
8880
CC80
EE80
FF80
EE80
CC80
8880
ENDCHAR
STARTCHAR U+23EE
ENCODING 9198
SWIDTH 1000 0
DWIDTH 12 0
BBX 9 7 1 0
BITMAP
8880
9980
BB80
FF80
BB80
9980
8880
ENDCHAR
STARTCHAR U+23EF
ENCODING 9199
SWIDTH 1000 0
DWIDTH 12 0
BBX 8 7 2 0
BITMAP
85
C5
E5
F5
E5
C5
85
ENDCHAR
STARTCHAR U+23F0
ENCODING 9200
SWIDTH 1000 0
DWIDTH 12 0
BBX 11 10 0 -1
BITMAP
71C0
FFE0
E4E0
4440
4440
4740
4040
4040
2080
5F40
ENDCHAR
STARTCHAR U+23F1
ENCODING 9201
SWIDTH 1000 0
DWIDTH 12 0
BBX 9 11 1 -2
BITMAP
1C00
0800
3E00
4100
8A80
8C80
8880
8080
8080
4100
3E00
ENDCHAR
STARTCHAR U+23F3
ENCODING 9203
SWIDTH 1000 0
DWIDTH 12 0
BBX 9 11 1 -2
BITMAP
FF80
4100
4100
7F00
3E00
1C00
2A00
4900
7F00
7F00
FF80
ENDCHAR
STARTCHAR U+23F4
ENCODING 9204
SWIDTH 1000 0
DWIDTH 12 0
BBX 4 7 3 0
BITMAP
10
30
70
F0
70
30
10
ENDCHAR
STARTCHAR U+23F5
ENCODING 9205
SWIDTH 1000 0
DWIDTH 12 0
BBX 4 7 4 0
BITMAP
80
C0
E0
F0
E0
C0
80
ENDCHAR
STARTCHAR U+23F6
ENCODING 9206
SWIDTH 1000 0
DWIDTH 12 0
BBX 7 4 2 2
BITMAP
10
38
7C
FE
ENDCHAR
STARTCHAR U+23F7
ENCODING 9207
SWIDTH 1000 0
DWIDTH 12 0
BBX 7 4 2 1
BITMAP
FE
7C
38
10
ENDCHAR
STARTCHAR U+23F8
ENCODING 9208
SWIDTH 1000 0
DWIDTH 12 0
BBX 5 5 3 1
BITMAP
D8
D8
D8
D8
D8
ENDCHAR
STARTCHAR U+23F9
ENCODING 9209
SWIDTH 1000 0
DWIDTH 12 0
BBX 5 5 3 1
BITMAP
F8
F8
F8
F8
F8
ENDCHAR
STARTCHAR U+23FA
ENCODING 9210
SWIDTH 1000 0
DWIDTH 12 0
BBX 5 5 3 1
BITMAP
70
F8
F8
F8
70
ENDCHAR
STARTCHAR U+23FB
ENCODING 9211
SWIDTH 1000 0
DWIDTH 12 0
BBX 9 10 1 -1
BITMAP
0800
2A00
4900
8880
8880
8880
8080
8080
4100
3E00
ENDCHAR
STARTCHAR U+23FC
ENCODING 9212
SWIDTH 1000 0
DWIDTH 12 0
BBX 9 9 1 -1
BITMAP
3E00
4100
8880
8880
8880
8880
8880
4100
3E00
ENDCHAR
STARTCHAR U+23FE
ENCODING 9214
SWIDTH 1000 0
DWIDTH 12 0
BBX 11 11 0 -2
BITMAP
0C00
3800
7000
7000
F000
F000
F800
7C20
7FC0
3F80
0E00
ENDCHAR
STARTCHAR U+2460
ENCODING 9312
SWIDTH 1000 0
DWIDTH 12 0
BBX 11 11 0 -2
BITMAP
0E00
3180
4440
4C40
8420
8420
8420
4440
4440
3180
0E00
ENDCHAR
STARTCHAR U+2461
ENCODING 9313
SWIDTH 1000 0
DWIDTH 12 0
BBX 11 11 0 -2
BITMAP
0E00
3180
4E40
5140
8120
8E20
9020
5040
5F40
3180
0E00
ENDCHAR
STARTCHAR U+2462
ENCODING 9314
SWIDTH 1000 0
DWIDTH 12 0
BBX 11 11 0 -2
BITMAP
0E00
3180
4E40
5140
8120
8620
8120
5140
4E40
3180
0E00
ENDCHAR
STARTCHAR U+2463
ENCODING 9315
SWIDTH 1000 0
DWIDTH 12 0
BBX 11 11 0 -2
BITMAP
0E00
3180
4240
4640
8A20
9220
9F20
4240
4240
3180
0E00
ENDCHAR
STARTCHAR U+2464
ENCODING 9316
SWIDTH 1000 0
DWIDTH 12 0
BBX 11 11 0 -2
BITMAP
0E00
3180
5F40
5040
9E20
8120
8120
5140
4E40
3180
0E00
ENDCHAR
STARTCHAR U+2465
ENCODING 9317
SWIDTH 1000 0
DWIDTH 12 0
BBX 11 11 0 -2
BITMAP
0E00
3180
4640
4840
9020
9E20
9120
5140
4E40
3180
0E00
ENDCHAR
STARTCHAR U+2466
ENCODING 9318
SWIDTH 1000 0
DWIDTH 12 0
BBX 11 11 0 -2
BITMAP
0E00
3180
5F40
4140
8220
8220
8420
4440
4440
3180
0E00
ENDCHAR
STARTCHAR U+2467
ENCODING 9319
SWIDTH 1000 0
DWIDTH 12 0
BBX 11 11 0 -2
BITMAP
0E00
3180
4E40
5140
9120
8E20
9120
5140
4E40
3180
0E00
ENDCHAR
STARTCHAR U+2468
ENCODING 9320
SWIDTH 1000 0
DWIDTH 12 0
BBX 11 11 0 -2
BITMAP
0E00
3180
4E40
5140
9120
8F20
8120
4240
4C40
3180
0E00
ENDCHAR
STARTCHAR U+2469
ENCODING 9321
SWIDTH 1000 0
DWIDTH 12 0
BBX 11 11 0 -2
BITMAP
0E00
3180
5340
74C0
94A0
94A0
94A0
54C0
5340
3180
0E00
ENDCHAR
STARTCHAR U+246A
ENCODING 9322
SWIDTH 1000 0
DWIDTH 12 0
BBX 11 11 0 -2
BITMAP
0E00
3180
4940
5B40
8920
8920
8920
4940
4940
3180
0E00
ENDCHAR
STARTCHAR U+246B
ENCODING 9323
SWIDTH 1000 0
DWIDTH 12 0
BBX 11 11 0 -2
BITMAP
0E00
3180
5340
74C0
90A0
9120
9220
5440
57C0
3180
0E00
ENDCHAR
STARTCHAR U+246C
ENCODING 9324
SWIDTH 1000 0
DWIDTH 12 0
BBX 11 11 0 -2
BITMAP
0E00
3180
5340
74C0
90A0
9120
90A0
54C0
5340
3180
0E00
ENDCHAR
STARTCHAR U+246D
ENCODING 9325
SWIDTH 1000 0
DWIDTH 12 0
BBX 11 11 0 -2
BITMAP
0E00
3180
5140
7340
9520
9520
97A0
5140
5140
3180
0E00
ENDCHAR
STARTCHAR U+246E
ENCODING 9326
SWIDTH 1000 0
DWIDTH 12 0
BBX 11 11 0 -2
BITMAP
0E00
3180
57C0
7440
9720
90A0
90A0
54C0
5340
3180
0E00
ENDCHAR
STARTCHAR U+246F
ENCODING 9327
SWIDTH 1000 0
DWIDTH 12 0
BBX 11 11 0 -2
BITMAP
0E00
3180
5140
7240
9420
9720
94A0
54C0
5340
3180
0E00
ENDCHAR
STARTCHAR U+2470
ENCODING 9328
SWIDTH 1000 0
DWIDTH 12 0
BBX 11 11 0 -2
BITMAP
0E00
3180
57C0
70C0
9120
9120
9220
5240
5240
3180
0E00
ENDCHAR
STARTCHAR U+2471
ENCODING 9329
SWIDTH 1000 0
DWIDTH 12 0
BBX 11 11 0 -2
BITMAP
0E00
3180
5340
74C0
94A0
9320
94A0
54C0
5340
3180
0E00
ENDCHAR
STARTCHAR U+2472
ENCODING 9330
SWIDTH 1000 0
DWIDTH 12 0
BBX 11 11 0 -2
BITMAP
0E00
3180
5340
74C0
94A0
93A0
90A0
5140
5240
3180
0E00
ENDCHAR
STARTCHAR U+2473
ENCODING 9331
SWIDTH 1000 0
DWIDTH 12 0
BBX 11 11 0 -2
BITMAP
0E00
3180
5140
6AC0
8AA0
92A0
A2A0
62C0
7940
3180
0E00
ENDCHAR
STARTCHAR U+2474
ENCODING 9332
SWIDTH 1000 0
DWIDTH 12 0
BBX 11 10 0 -1
BITMAP
2080
4040
4440
8C20
8420
8420
8420
4440
4040
2080
ENDCHAR
STARTCHAR U+2475
ENCODING 9333
SWIDTH 1000 0
DWIDTH 12 0
BBX 11 10 0 -1
BITMAP
2080
4040
4E40
9120
8220
8420
8820
5F40
4040
2080
ENDCHAR
STARTCHAR U+2476
ENCODING 9334
SWIDTH 1000 0
DWIDTH 12 0
BBX 11 10 0 -1
BITMAP
2080
4040
4E40
9120
8620
8120
9120
4E40
4040
2080
ENDCHAR
STARTCHAR U+2477
ENCODING 9335
SWIDTH 1000 0
DWIDTH 12 0
BBX 11 10 0 -1
BITMAP
2080
4040
4640
8A20
9220
9F20
8220
4240
4040
2080
ENDCHAR
STARTCHAR U+2478
ENCODING 9336
SWIDTH 1000 0
DWIDTH 12 0
BBX 11 10 0 -1
BITMAP
2080
4040
5F40
9020
9E20
8120
9120
4E40
4040
2080
ENDCHAR
STARTCHAR U+2479
ENCODING 9337
SWIDTH 1000 0
DWIDTH 12 0
BBX 11 10 0 -1
BITMAP
2080
4040
4640
8820
9E20
9120
9120
4E40
4040
2080
ENDCHAR
STARTCHAR U+247A
ENCODING 9338
SWIDTH 1000 0
DWIDTH 12 0
BBX 11 10 0 -1
BITMAP
2080
4040
5F40
8120
8220
8220
8420
4440
4040
2080
ENDCHAR
STARTCHAR U+247B
ENCODING 9339
SWIDTH 1000 0
DWIDTH 12 0
BBX 11 10 0 -1
BITMAP
2080
4040
4E40
9120
8E20
9120
9120
4E40
4040
2080
ENDCHAR
STARTCHAR U+247C
ENCODING 9340
SWIDTH 1000 0
DWIDTH 12 0
BBX 11 10 0 -1
BITMAP
2080
4040
4E40
9120
9120
8F20
8220
4C40
4040
2080
ENDCHAR
STARTCHAR U+247D
ENCODING 9341
SWIDTH 1000 0
DWIDTH 12 0
BBX 11 10 0 -1
BITMAP
2080
4040
5340
B4A0
94A0
94A0
94A0
5340
4040
2080
ENDCHAR
STARTCHAR U+247E
ENCODING 9342
SWIDTH 1000 0
DWIDTH 12 0
BBX 11 10 0 -1
BITMAP
2080
4040
4940
9B20
8920
8920
8920
4940
4040
2080
ENDCHAR
STARTCHAR U+247F
ENCODING 9343
SWIDTH 1000 0
DWIDTH 12 0
BBX 11 10 0 -1
BITMAP
2080
4040
5340
B4A0
9120
9220
9420
57C0
4040
2080
ENDCHAR
STARTCHAR U+2480
ENCODING 9344
SWIDTH 1000 0
DWIDTH 12 0
BBX 11 10 0 -1
BITMAP
2080
4040
5340
B4A0
9120
90A0
94A0
5340
4040
2080
ENDCHAR
STARTCHAR U+2481
ENCODING 9345
SWIDTH 1000 0
DWIDTH 12 0
BBX 11 10 0 -1
BITMAP
2080
4040
5140
B320
9520
97A0
9120
5140
4040
2080
ENDCHAR
STARTCHAR U+2482
ENCODING 9346
SWIDTH 1000 0
DWIDTH 12 0
BBX 11 10 0 -1
BITMAP
2080
4040
57C0
B420
9720
90A0
94A0
5340
4040
2080
ENDCHAR
STARTCHAR U+2483
ENCODING 9347
SWIDTH 1000 0
DWIDTH 12 0
BBX 11 10 0 -1
BITMAP
2080
4040
5140
B220
9720
94A0
94A0
5340
4040
2080
ENDCHAR
STARTCHAR U+2484
ENCODING 9348
SWIDTH 1000 0
DWIDTH 12 0
BBX 11 10 0 -1
BITMAP
2080
4040
57C0
B0A0
9120
9120
9220
5240
4040
2080
ENDCHAR
STARTCHAR U+2485
ENCODING 9349
SWIDTH 1000 0
DWIDTH 12 0
BBX 11 10 0 -1
BITMAP
2080
4040
5340
B4A0
9320
94A0
94A0
5340
4040
2080
ENDCHAR
STARTCHAR U+2486
ENCODING 9350
SWIDTH 1000 0
DWIDTH 12 0
BBX 11 10 0 -1
BITMAP
2080
4040
5340
B4A0
94A0
93A0
9120
5240
4040
2080
ENDCHAR
STARTCHAR U+2487
ENCODING 9351
SWIDTH 1000 0
DWIDTH 12 0
BBX 11 10 0 -1
BITMAP
2080
4040
5140
AAA0
8AA0
92A0
A2A0
7940
4040
2080
ENDCHAR
STARTCHAR U+2488
ENCODING 9352
SWIDTH 1000 0
DWIDTH 12 0
BBX 5 8 3 0
BITMAP
40
C0
40
40
40
40
40
48
ENDCHAR
STARTCHAR U+2489
ENCODING 9353
SWIDTH 1000 0
DWIDTH 12 0
BBX 8 8 1 0
BITMAP
70
88
08
30
40
80
80
F9
ENDCHAR
STARTCHAR U+248A
ENCODING 9354
SWIDTH 1000 0
DWIDTH 12 0
BBX 8 8 1 0
BITMAP
F8
08
10
20
10
08
88
71
ENDCHAR
STARTCHAR U+248B
ENCODING 9355
SWIDTH 1000 0
DWIDTH 12 0
BBX 8 8 1 0
BITMAP
10
30
50
50
90
F8
10
11
ENDCHAR
STARTCHAR U+248C
ENCODING 9356
SWIDTH 1000 0
DWIDTH 12 0
BBX 8 8 1 0
BITMAP
F8
80
80
F0
08
08
88
71
ENDCHAR
STARTCHAR U+248D
ENCODING 9357
SWIDTH 1000 0
DWIDTH 12 0
BBX 8 8 1 0
BITMAP
70
88
80
F0
88
88
88
71
ENDCHAR
STARTCHAR U+248E
ENCODING 9358
SWIDTH 1000 0
DWIDTH 12 0
BBX 7 8 2 0
BITMAP
F8
08
10
10
10
20
20
22
ENDCHAR
STARTCHAR U+248F
ENCODING 9359
SWIDTH 1000 0
DWIDTH 12 0
BBX 8 8 1 0
BITMAP
70
88
88
70
88
88
88
71
ENDCHAR
STARTCHAR U+2490
ENCODING 9360
SWIDTH 1000 0
DWIDTH 12 0
BBX 8 8 1 0
BITMAP
70
88
88
88
78
08
88
71
ENDCHAR
STARTCHAR U+2491
ENCODING 9361
SWIDTH 1000 0
DWIDTH 12 0
BBX 11 8 0 0
BITMAP
4700
C880
4980
4A80
4C80
4880
4880
4720
ENDCHAR
STARTCHAR U+2492
ENCODING 9362
SWIDTH 1000 0
DWIDTH 12 0
BBX 9 8 1 0
BITMAP
4400
CC00
4400
4400
4400
4400
4400
4480
ENDCHAR
STARTCHAR U+2493
ENCODING 9363
SWIDTH 1000 0
DWIDTH 12 0
BBX 11 8 0 0
BITMAP
4700
C880
4080
4100
4600
4800
4800
4FA0
ENDCHAR
STARTCHAR U+2494
ENCODING 9364
SWIDTH 1000 0
DWIDTH 12 0
BBX 11 8 0 0
BITMAP
5F00
C100
4200
4400
4200
4100
5100
4E20
ENDCHAR
STARTCHAR U+2495
ENCODING 9365
SWIDTH 1000 0
DWIDTH 12 0
BBX 11 8 0 0
BITMAP
4100
C300
4500
4500
4900
4F80
4100
4120
ENDCHAR
STARTCHAR U+2496
ENCODING 9366
SWIDTH 1000 0
DWIDTH 12 0
BBX 11 8 0 0
BITMAP
4F80
C800
4800
4F00
4080
4080
4880
4720
ENDCHAR
STARTCHAR U+2497
ENCODING 9367
SWIDTH 1000 0
DWIDTH 12 0
BBX 11 8 0 0
BITMAP
4700
C880
4800
4F00
4880
4880
4880
4720
ENDCHAR
STARTCHAR U+2498
ENCODING 9368
SWIDTH 1000 0
DWIDTH 12 0
BBX 11 8 0 0
BITMAP
4F80
C080
4100
4100
4100
4200
4200
4220
ENDCHAR
STARTCHAR U+2499
ENCODING 9369
SWIDTH 1000 0
DWIDTH 12 0
BBX 11 8 0 0
BITMAP
4700
C880
4880
4700
4880
4880
4880
4720
ENDCHAR
STARTCHAR U+249A
ENCODING 9370
SWIDTH 1000 0
DWIDTH 12 0
BBX 11 8 0 0
BITMAP
4700
C880
4880
4880
4780
4080
4880
4720
ENDCHAR
STARTCHAR U+249B
ENCODING 9371
SWIDTH 1000 0
DWIDTH 12 0
BBX 11 8 0 0
BITMAP
6300
9480
1480
2580
4680
8480
8480
F320
ENDCHAR
STARTCHAR U+24EB
ENCODING 9451
SWIDTH 1000 0
DWIDTH 12 0
BBX 11 11 0 -2
BITMAP
0E00
3F80
6EC0
4CC0
EEE0
EEE0
EEE0
6EC0
6EC0
3F80
0E00
ENDCHAR
STARTCHAR U+24EC
ENCODING 9452
SWIDTH 1000 0
DWIDTH 12 0
BBX 11 11 0 -2
BITMAP
0E00
3F80
6CC0
4B40
EF60
EEE0
EDE0
6BC0
6840
3F80
0E00
ENDCHAR
STARTCHAR U+24ED
ENCODING 9453
SWIDTH 1000 0
DWIDTH 12 0
BBX 11 11 0 -2
BITMAP
0E00
3F80
6CC0
4B40
EF60
EEE0
EF60
6B40
6CC0
3F80
0E00
ENDCHAR
STARTCHAR U+24EE
ENCODING 9454
SWIDTH 1000 0
DWIDTH 12 0
BBX 11 11 0 -2
BITMAP
0E00
3F80
6EC0
4CC0
EAE0
EAE0
E860
6EC0
6EC0
3F80
0E00
ENDCHAR
STARTCHAR U+24EF
ENCODING 9455
SWIDTH 1000 0
DWIDTH 12 0
BBX 11 11 0 -2
BITMAP
0E00
3F80
6840
4BC0
E8E0
EF60
EF60
6B40
6CC0
3F80
0E00
ENDCHAR
STARTCHAR U+24F0
ENCODING 9456
SWIDTH 1000 0
DWIDTH 12 0
BBX 11 11 0 -2
BITMAP
0E00
3F80
6EC0
4DC0
EBE0
E8E0
EB60
6B40
6CC0
3F80
0E00
ENDCHAR
STARTCHAR U+24F1
ENCODING 9457
SWIDTH 1000 0
DWIDTH 12 0
BBX 11 11 0 -2
BITMAP
0E00
3F80
6840
4F40
EEE0
EEE0
EDE0
6DC0
6DC0
3F80
0E00
ENDCHAR
STARTCHAR U+24F2
ENCODING 9458
SWIDTH 1000 0
DWIDTH 12 0
BBX 11 11 0 -2
BITMAP
0E00
3F80
6CC0
4B40
EB60
ECE0
EB60
6B40
6CC0
3F80
0E00
ENDCHAR
STARTCHAR U+24F3
ENCODING 9459
SWIDTH 1000 0
DWIDTH 12 0
BBX 11 11 0 -2
BITMAP
0E00
3F80
6CC0
4B40
EB60
EC60
EF60
6EC0
6DC0
3F80
0E00
ENDCHAR
STARTCHAR U+24F4
ENCODING 9460
SWIDTH 1000 0
DWIDTH 12 0
BBX 11 11 0 -2
BITMAP
0E00
3F80
6EC0
5540
F560
ED60
DD60
5D40
46C0
3F80
0E00
ENDCHAR
STARTCHAR U+24FF
ENCODING 9471
SWIDTH 1000 0
DWIDTH 12 0
BBX 11 11 0 -2
BITMAP
0E00
3F80
71C0
6EC0
ECE0
EAE0
E6E0
6EC0
71C0
3F80
0E00
ENDCHAR
STARTCHAR U+2500
ENCODING 9472
SWIDTH 1000 0
DWIDTH 12 0
BBX 12 1 0 4
BITMAP
FFF0
ENDCHAR
STARTCHAR U+2501
ENCODING 9473
SWIDTH 1000 0
DWIDTH 12 0
BBX 12 2 0 3
BITMAP
FFF0
FFF0
ENDCHAR
STARTCHAR U+2502
ENCODING 9474
SWIDTH 1000 0
DWIDTH 12 0
BBX 1 12 5 -2
BITMAP
80
80
80
80
80
80
80
80
80
80
80
80
ENDCHAR
STARTCHAR U+2503
ENCODING 9475
SWIDTH 1000 0
DWIDTH 12 0
BBX 2 12 5 -2
BITMAP
C0
C0
C0
C0
C0
C0
C0
C0
C0
C0
C0
C0
ENDCHAR
STARTCHAR U+2504
ENCODING 9476
SWIDTH 1000 0
DWIDTH 12 0
BBX 11 1 0 4
BITMAP
EEE0
ENDCHAR
STARTCHAR U+2505
ENCODING 9477
SWIDTH 1000 0
DWIDTH 12 0
BBX 11 2 0 3
BITMAP
EEE0
EEE0
ENDCHAR
STARTCHAR U+2506
ENCODING 9478
SWIDTH 1000 0
DWIDTH 12 0
BBX 1 11 5 -1
BITMAP
80
80
80
00
80
80
80
00
80
80
80
ENDCHAR
STARTCHAR U+2507
ENCODING 9479
SWIDTH 1000 0
DWIDTH 12 0
BBX 2 11 5 -1
BITMAP
C0
C0
C0
00
C0
C0
C0
00
C0
C0
C0
ENDCHAR
STARTCHAR U+2508
ENCODING 9480
SWIDTH 1000 0
DWIDTH 12 0
BBX 11 1 0 4
BITMAP
DB60
ENDCHAR
STARTCHAR U+2509
ENCODING 9481
SWIDTH 1000 0
DWIDTH 12 0
BBX 11 2 0 3
BITMAP
DB60
DB60
ENDCHAR
STARTCHAR U+250A
ENCODING 9482
SWIDTH 1000 0
DWIDTH 12 0
BBX 1 11 5 -1
BITMAP
80
80
00
80
80
00
80
80
00
80
80
ENDCHAR
STARTCHAR U+250B
ENCODING 9483
SWIDTH 1000 0
DWIDTH 12 0
BBX 2 11 5 -1
BITMAP
C0
C0
00
C0
C0
00
C0
C0
00
C0
C0
ENDCHAR
STARTCHAR U+250C
ENCODING 9484
SWIDTH 1000 0
DWIDTH 12 0
BBX 7 7 5 -2
BITMAP
FE
80
80
80
80
80
80
ENDCHAR
STARTCHAR U+250D
ENCODING 9485
SWIDTH 1000 0
DWIDTH 12 0
BBX 7 7 5 -2
BITMAP
FE
FE
80
80
80
80
80
ENDCHAR
STARTCHAR U+250E
ENCODING 9486
SWIDTH 1000 0
DWIDTH 12 0
BBX 7 7 5 -2
BITMAP
FE
C0
C0
C0
C0
C0
C0
ENDCHAR
STARTCHAR U+250F
ENCODING 9487
SWIDTH 1000 0
DWIDTH 12 0
BBX 7 7 5 -2
BITMAP
FE
FE
C0
C0
C0
C0
C0
ENDCHAR
STARTCHAR U+2510
ENCODING 9488
SWIDTH 1000 0
DWIDTH 12 0
BBX 6 7 0 -2
BITMAP
FC
04
04
04
04
04
04
ENDCHAR
STARTCHAR U+2511
ENCODING 9489
SWIDTH 1000 0
DWIDTH 12 0
BBX 6 7 0 -2
BITMAP
FC
FC
04
04
04
04
04
ENDCHAR
STARTCHAR U+2512
ENCODING 9490
SWIDTH 1000 0
DWIDTH 12 0
BBX 6 7 0 -2
BITMAP
FC
0C
0C
0C
0C
0C
0C
ENDCHAR
STARTCHAR U+2513
ENCODING 9491
SWIDTH 1000 0
DWIDTH 12 0
BBX 7 7 0 -2
BITMAP
FE
FE
06
06
06
06
06
ENDCHAR
STARTCHAR U+2514
ENCODING 9492
SWIDTH 1000 0
DWIDTH 12 0
BBX 7 6 5 4
BITMAP
80
80
80
80
80
FE
ENDCHAR
STARTCHAR U+2515
ENCODING 9493
SWIDTH 1000 0
DWIDTH 12 0
BBX 7 7 5 3
BITMAP
80
80
80
80
80
FE
FE
ENDCHAR
STARTCHAR U+2516
ENCODING 9494
SWIDTH 1000 0
DWIDTH 12 0
BBX 8 6 4 4
BITMAP
C0
C0
C0
C0
C0
FF
ENDCHAR
STARTCHAR U+2517
ENCODING 9495
SWIDTH 1000 0
DWIDTH 12 0
BBX 7 7 5 3
BITMAP
C0
C0
C0
C0
C0
FE
FE
ENDCHAR
STARTCHAR U+2518
ENCODING 9496
SWIDTH 1000 0
DWIDTH 12 0
BBX 6 6 0 4
BITMAP
04
04
04
04
04
FC
ENDCHAR
STARTCHAR U+2519
ENCODING 9497
SWIDTH 1000 0
DWIDTH 12 0
BBX 6 7 0 3
BITMAP
04
04
04
04
04
FC
FC
ENDCHAR
STARTCHAR U+251A
ENCODING 9498
SWIDTH 1000 0
DWIDTH 12 0
BBX 7 6 0 4
BITMAP
06
06
06
06
06
FE
ENDCHAR
STARTCHAR U+251B
ENCODING 9499
SWIDTH 1000 0
DWIDTH 12 0
BBX 7 7 0 3
BITMAP
06
06
06
06
06
FE
FE
ENDCHAR
STARTCHAR U+251C
ENCODING 9500
SWIDTH 1000 0
DWIDTH 12 0
BBX 7 12 5 -2
BITMAP
80
80
80
80
80
FE
80
80
80
80
80
80
ENDCHAR
STARTCHAR U+251D
ENCODING 9501
SWIDTH 1000 0
DWIDTH 12 0
BBX 7 12 5 -2
BITMAP
80
80
80
80
80
FE
FE
80
80
80
80
80
ENDCHAR
STARTCHAR U+251E
ENCODING 9502
SWIDTH 1000 0
DWIDTH 12 0
BBX 7 12 5 -2
BITMAP
C0
C0
C0
C0
C0
FE
80
80
80
80
80
80
ENDCHAR
STARTCHAR U+251F
ENCODING 9503
SWIDTH 1000 0
DWIDTH 12 0
BBX 7 12 5 -2
BITMAP
80
80
80
80
80
FE
C0
C0
C0
C0
C0
C0
ENDCHAR
STARTCHAR U+2520
ENCODING 9504
SWIDTH 1000 0
DWIDTH 12 0
BBX 7 12 5 -2
BITMAP
C0
C0
C0
C0
C0
FE
C0
C0
C0
C0
C0
C0
ENDCHAR
STARTCHAR U+2521
ENCODING 9505
SWIDTH 1000 0
DWIDTH 12 0
BBX 7 12 5 -2
BITMAP
C0
C0
C0
C0
C0
FE
FE
80
80
80
80
80
ENDCHAR
STARTCHAR U+2522
ENCODING 9506
SWIDTH 1000 0
DWIDTH 12 0
BBX 7 12 5 -2
BITMAP
80
80
80
80
80
FE
FE
C0
C0
C0
C0
C0
ENDCHAR
STARTCHAR U+2523
ENCODING 9507
SWIDTH 1000 0
DWIDTH 12 0
BBX 7 12 5 -2
BITMAP
C0
C0
C0
C0
C0
FE
FE
C0
C0
C0
C0
C0
ENDCHAR
STARTCHAR U+2524
ENCODING 9508
SWIDTH 1000 0
DWIDTH 12 0
BBX 6 12 0 -2
BITMAP
04
04
04
04
04
FC
04
04
04
04
04
04
ENDCHAR
STARTCHAR U+2525
ENCODING 9509
SWIDTH 1000 0
DWIDTH 12 0
BBX 6 12 0 -2
BITMAP
04
04
04
04
04
FC
FC
04
04
04
04
04
ENDCHAR
STARTCHAR U+2526
ENCODING 9510
SWIDTH 1000 0
DWIDTH 12 0
BBX 7 12 0 -2
BITMAP
06
06
06
06
06
FE
04
04
04
04
04
04
ENDCHAR
STARTCHAR U+2527
ENCODING 9511
SWIDTH 1000 0
DWIDTH 12 0
BBX 7 12 0 -2
BITMAP
04
04
04
04
04
FE
06
06
06
06
06
06
ENDCHAR
STARTCHAR U+2528
ENCODING 9512
SWIDTH 1000 0
DWIDTH 12 0
BBX 7 12 0 -2
BITMAP
06
06
06
06
06
FE
06
06
06
06
06
06
ENDCHAR
STARTCHAR U+2529
ENCODING 9513
SWIDTH 1000 0
DWIDTH 12 0
BBX 7 12 0 -2
BITMAP
06
06
06
06
06
FE
04
04
04
04
04
04
ENDCHAR
STARTCHAR U+252A
ENCODING 9514
SWIDTH 1000 0
DWIDTH 12 0
BBX 7 12 0 -2
BITMAP
04
04
04
04
04
FE
FE
06
06
06
06
06
ENDCHAR
STARTCHAR U+252B
ENCODING 9515
SWIDTH 1000 0
DWIDTH 12 0
BBX 7 12 0 -2
BITMAP
06
06
06
06
06
FE
FE
06
06
06
06
06
ENDCHAR
STARTCHAR U+252C
ENCODING 9516
SWIDTH 1000 0
DWIDTH 12 0
BBX 12 7 0 -2
BITMAP
FFF0
0400
0400
0400
0400
0400
0400
ENDCHAR
STARTCHAR U+252D
ENCODING 9517
SWIDTH 1000 0
DWIDTH 12 0
BBX 12 7 0 -2
BITMAP
FFF0
FC00
0400
0400
0400
0400
0400
ENDCHAR
STARTCHAR U+252E
ENCODING 9518
SWIDTH 1000 0
DWIDTH 12 0
BBX 12 7 0 -2
BITMAP
FFF0
07F0
0400
0400
0400
0400
0400
ENDCHAR
STARTCHAR U+252F
ENCODING 9519
SWIDTH 1000 0
DWIDTH 12 0
BBX 12 7 0 -2
BITMAP
FFF0
FFF0
0400
0400
0400
0400
0400
ENDCHAR
STARTCHAR U+2530
ENCODING 9520
SWIDTH 1000 0
DWIDTH 12 0
BBX 12 7 0 -2
BITMAP
FFF0
0600
0600
0600
0600
0600
0600
ENDCHAR
STARTCHAR U+2531
ENCODING 9521
SWIDTH 1000 0
DWIDTH 12 0
BBX 12 7 0 -2
BITMAP
FFF0
FE00
0600
0600
0600
0600
0600
ENDCHAR
STARTCHAR U+2532
ENCODING 9522
SWIDTH 1000 0
DWIDTH 12 0
BBX 12 7 0 -2
BITMAP
FFF0
07F0
0600
0600
0600
0600
0600
ENDCHAR
STARTCHAR U+2533
ENCODING 9523
SWIDTH 1000 0
DWIDTH 12 0
BBX 12 7 0 -2
BITMAP
FFF0
FFF0
0600
0600
0600
0600
0600
ENDCHAR
STARTCHAR U+2534
ENCODING 9524
SWIDTH 1000 0
DWIDTH 12 0
BBX 12 6 0 4
BITMAP
0400
0400
0400
0400
0400
FFF0
ENDCHAR
STARTCHAR U+2535
ENCODING 9525
SWIDTH 1000 0
DWIDTH 12 0
BBX 12 7 0 3
BITMAP
0400
0400
0400
0400
0400
FFF0
FC00
ENDCHAR
STARTCHAR U+2536
ENCODING 9526
SWIDTH 1000 0
DWIDTH 12 0
BBX 12 7 0 3
BITMAP
0400
0400
0400
0400
0400
FFF0
07F0
ENDCHAR
STARTCHAR U+2537
ENCODING 9527
SWIDTH 1000 0
DWIDTH 12 0
BBX 12 7 0 3
BITMAP
0400
0400
0400
0400
0400
FFF0
FFF0
ENDCHAR
STARTCHAR U+2538
ENCODING 9528
SWIDTH 1000 0
DWIDTH 12 0
BBX 12 6 0 4
BITMAP
0600
0600
0600
0600
0600
FFF0
ENDCHAR
STARTCHAR U+2539
ENCODING 9529
SWIDTH 1000 0
DWIDTH 12 0
BBX 12 7 0 3
BITMAP
0600
0600
0600
0600
0600
FFF0
FE00
ENDCHAR
STARTCHAR U+253A
ENCODING 9530
SWIDTH 1000 0
DWIDTH 12 0
BBX 12 7 0 3
BITMAP
0600
0600
0600
0600
0600
FFF0
07F0
ENDCHAR
STARTCHAR U+253B
ENCODING 9531
SWIDTH 1000 0
DWIDTH 12 0
BBX 12 7 0 3
BITMAP
0600
0600
0600
0600
0600
FFF0
FFF0
ENDCHAR
STARTCHAR U+253C
ENCODING 9532
SWIDTH 1000 0
DWIDTH 12 0
BBX 12 12 0 -2
BITMAP
0400
0400
0400
0400
0400
FFF0
0400
0400
0400
0400
0400
0400
ENDCHAR
STARTCHAR U+253D
ENCODING 9533
SWIDTH 1000 0
DWIDTH 12 0
BBX 12 12 0 -2
BITMAP
0400
0400
0400
0400
0400
FFF0
FC00
0400
0400
0400
0400
0400
ENDCHAR
STARTCHAR U+253E
ENCODING 9534
SWIDTH 1000 0
DWIDTH 12 0
BBX 12 12 0 -2
BITMAP
0400
0400
0400
0400
0400
FFF0
07F0
0400
0400
0400
0400
0400
ENDCHAR
STARTCHAR U+253F
ENCODING 9535
SWIDTH 1000 0
DWIDTH 12 0
BBX 12 12 0 -2
BITMAP
0400
0400
0400
0400
0400
FFF0
FFF0
0400
0400
0400
0400
0400
ENDCHAR
STARTCHAR U+2540
ENCODING 9536
SWIDTH 1000 0
DWIDTH 12 0
BBX 12 12 0 -2
BITMAP
0600
0600
0600
0600
0600
FFF0
0400
0400
0400
0400
0400
0400
ENDCHAR
STARTCHAR U+2541
ENCODING 9537
SWIDTH 1000 0
DWIDTH 12 0
BBX 12 12 0 -2
BITMAP
0400
0400
0400
0400
0400
FFF0
0600
0600
0600
0600
0600
0600
ENDCHAR
STARTCHAR U+2542
ENCODING 9538
SWIDTH 1000 0
DWIDTH 12 0
BBX 12 12 0 -2
BITMAP
0600
0600
0600
0600
0600
FFF0
0600
0600
0600
0600
0600
0600
ENDCHAR
STARTCHAR U+2543
ENCODING 9539
SWIDTH 1000 0
DWIDTH 12 0
BBX 12 12 0 -2
BITMAP
0600
0600
0600
0600
0600
FFF0
FE00
0400
0400
0400
0400
0400
ENDCHAR
STARTCHAR U+2544
ENCODING 9540
SWIDTH 1000 0
DWIDTH 12 0
BBX 12 12 0 -2
BITMAP
0600
0600
0600
0600
0600
FFF0
07F0
0400
0400
0400
0400
0400
ENDCHAR
STARTCHAR U+2545
ENCODING 9541
SWIDTH 1000 0
DWIDTH 12 0
BBX 12 12 0 -2
BITMAP
0400
0400
0400
0400
0400
FFF0
FE00
0600
0600
0600
0600
0600
ENDCHAR
STARTCHAR U+2546
ENCODING 9542
SWIDTH 1000 0
DWIDTH 12 0
BBX 12 12 0 -2
BITMAP
0400
0400
0400
0400
0400
FFF0
07F0
0600
0600
0600
0600
0600
ENDCHAR
STARTCHAR U+2547
ENCODING 9543
SWIDTH 1000 0
DWIDTH 12 0
BBX 12 12 0 -2
BITMAP
0600
0600
0600
0600
0600
FFF0
FFF0
0400
0400
0400
0400
0400
ENDCHAR
STARTCHAR U+2548
ENCODING 9544
SWIDTH 1000 0
DWIDTH 12 0
BBX 12 12 0 -2
BITMAP
0400
0400
0400
0400
0400
FFF0
FFF0
0600
0600
0600
0600
0600
ENDCHAR
STARTCHAR U+2549
ENCODING 9545
SWIDTH 1000 0
DWIDTH 12 0
BBX 12 12 0 -2
BITMAP
0600
0600
0600
0600
0600
FFF0
FE00
0600
0600
0600
0600
0600
ENDCHAR
STARTCHAR U+254A
ENCODING 9546
SWIDTH 1000 0
DWIDTH 12 0
BBX 12 12 0 -2
BITMAP
0600
0600
0600
0600
0600
FFF0
07F0
0600
0600
0600
0600
0600
ENDCHAR
STARTCHAR U+254B
ENCODING 9547
SWIDTH 1000 0
DWIDTH 12 0
BBX 12 12 0 -2
BITMAP
0600
0600
0600
0600
0600
FFF0
FFF0
0600
0600
0600
0600
0600
ENDCHAR
STARTCHAR U+25A0
ENCODING 9632
SWIDTH 1000 0
DWIDTH 12 0
BBX 9 9 1 -1
BITMAP
FF80
FF80
FF80
FF80
FF80
FF80
FF80
FF80
FF80
ENDCHAR
STARTCHAR U+25A1
ENCODING 9633
SWIDTH 1000 0
DWIDTH 12 0
BBX 9 9 1 -1
BITMAP
FF80
8080
8080
8080
8080
8080
8080
8080
FF80
ENDCHAR
STARTCHAR U+25B2
ENCODING 9650
SWIDTH 1000 0
DWIDTH 12 0
BBX 9 10 1 -1
BITMAP
0800
0800
1C00
1C00
3E00
3E00
7F00
7F00
FF80
FF80
ENDCHAR
STARTCHAR U+25B3
ENCODING 9651
SWIDTH 1000 0
DWIDTH 12 0
BBX 9 10 1 -1
BITMAP
0800
0800
1400
1400
2200
2200
4100
4100
8080
FF80
ENDCHAR
STARTCHAR U+25BC
ENCODING 9660
SWIDTH 1000 0
DWIDTH 12 0
BBX 9 10 1 -1
BITMAP
FF80
FF80
7F00
7F00
3E00
3E00
1C00
1C00
0800
0800
ENDCHAR
STARTCHAR U+25BD
ENCODING 9661
SWIDTH 1000 0
DWIDTH 12 0
BBX 9 10 1 -1
BITMAP
FF80
8080
4100
4100
2200
2200
1400
1400
0800
0800
ENDCHAR
STARTCHAR U+25C6
ENCODING 9670
SWIDTH 1000 0
DWIDTH 12 0
BBX 11 11 0 -2
BITMAP
0400
0E00
1F00
3F80
7FC0
FFE0
7FC0
3F80
1F00
0E00
0400
ENDCHAR
STARTCHAR U+25C7
ENCODING 9671
SWIDTH 1000 0
DWIDTH 12 0
BBX 11 11 0 -2
BITMAP
0400
0A00
1100
2080
4040
8020
4040
2080
1100
0A00
0400
ENDCHAR
STARTCHAR U+25CB
ENCODING 9675
SWIDTH 1000 0
DWIDTH 12 0
BBX 11 11 0 -2
BITMAP
0E00
3180
4040
4040
8020
8020
8020
4040
4040
3180
0E00
ENDCHAR
STARTCHAR U+25CE
ENCODING 9678
SWIDTH 1000 0
DWIDTH 12 0
BBX 11 11 0 -2
BITMAP
0E00
3180
4E40
5140
A0A0
A0A0
A0A0
5140
4E40
3180
0E00
ENDCHAR
STARTCHAR U+25CF
ENCODING 9679
SWIDTH 1000 0
DWIDTH 12 0
BBX 11 11 0 -2
BITMAP
0E00
3F80
7FC0
7FC0
FFE0
FFE0
FFE0
7FC0
7FC0
3F80
0E00
ENDCHAR
STARTCHAR U+25EF
ENCODING 9711
SWIDTH 1000 0
DWIDTH 12 0
BBX 11 11 0 -2
BITMAP
0E00
3180
4040
4040
8020
8020
8020
4040
4040
3180
0E00
ENDCHAR
STARTCHAR U+2605
ENCODING 9733
SWIDTH 1000 0
DWIDTH 12 0
BBX 11 11 0 -2
BITMAP
0400
0400
0E00
0E00
FFE0
3F80
1F00
1F00
3B80
3180
4040
ENDCHAR
STARTCHAR U+2606
ENCODING 9734
SWIDTH 1000 0
DWIDTH 12 0
BBX 11 11 0 -2
BITMAP
0400
0400
0A00
0A00
F1E0
2080
1100
1500
2A80
3180
4040
ENDCHAR
STARTCHAR U+2640
ENCODING 9792
SWIDTH 1000 0
DWIDTH 12 0
BBX 7 11 2 -2
BITMAP
38
44
44
44
38
10
10
FE
10
10
10
ENDCHAR
STARTCHAR U+2642
ENCODING 9794
SWIDTH 1000 0
DWIDTH 12 0
BBX 9 9 1 -1
BITMAP
0780
0180
0280
0480
7800
8800
8800
8800
7000
ENDCHAR
STARTCHAR U+2661
ENCODING 9825
SWIDTH 1000 0
DWIDTH 12 0
BBX 11 11 0 -2
BITMAP
3180
4A40
8420
8020
8020
8020
4040
2080
1100
0A00
0400
ENDCHAR
STARTCHAR U+2665
ENCODING 9829
SWIDTH 1000 0
DWIDTH 12 0
BBX 11 11 0 -2
BITMAP
3180
7BC0
FFE0
FFE0
FFE0
FFE0
7FC0
3F80
1F00
0E00
0400
ENDCHAR
STARTCHAR U+266A
ENCODING 9834
SWIDTH 1000 0
DWIDTH 12 0
BBX 9 12 1 -2
BITMAP
0800
0C00
0A00
0900
0880
0880
0900
0800
7800
F800
F000
6000
ENDCHAR
STARTCHAR U+267F
ENCODING 9855
SWIDTH 1000 0
DWIDTH 12 0
BBX 11 11 0 -2
BITMAP
7FC0
FE60
FE60
F1E0
FDE0
CBE0
B5E0
BAE0
BA60
C7E0
7FC0
ENDCHAR
STARTCHAR U+26D4
ENCODING 9940
SWIDTH 1000 0
DWIDTH 12 0
BBX 11 11 0 -2
BITMAP
0E00
3F80
7FC0
7FC0
C060
C060
FFE0
7FC0
7FC0
3F80
0E00
ENDCHAR
STARTCHAR U+26E9
ENCODING 9961
SWIDTH 1000 0
DWIDTH 12 0
BBX 11 11 0 -2
BITMAP
E0E0
7FC0
3F80
2480
FFE0
2080
2080
2080
2080
2080
71C0
ENDCHAR
STARTCHAR U+2705
ENCODING 9989
SWIDTH 1000 0
DWIDTH 12 0
BBX 11 11 0 -2
BITMAP
7FC0
FFE0
FFA0
FF20
FE60
BCE0
99E0
C3E0
E7E0
FFE0
7FC0
ENDCHAR
STARTCHAR U+274E
ENCODING 10062
SWIDTH 1000 0
DWIDTH 12 0
BBX 11 11 0 -2
BITMAP
7FC0
FFE0
CE60
E4E0
F1E0
FBE0
F1E0
E4E0
CE60
FFE0
7FC0
ENDCHAR
STARTCHAR U+2776
ENCODING 10102
SWIDTH 1000 0
DWIDTH 12 0
BBX 11 11 0 -2
BITMAP
0E00
3F80
7BC0
73C0
FBE0
FBE0
FBE0
7BC0
7BC0
3F80
0E00
ENDCHAR
STARTCHAR U+2777
ENCODING 10103
SWIDTH 1000 0
DWIDTH 12 0
BBX 11 11 0 -2
BITMAP
0E00
3F80
71C0
6EC0
FEE0
F1E0
EFE0
6FC0
60C0
3F80
0E00
ENDCHAR
STARTCHAR U+2778
ENCODING 10104
SWIDTH 1000 0
DWIDTH 12 0
BBX 11 11 0 -2
BITMAP
0E00
3F80
71C0
6EC0
FEE0
F9E0
FEE0
6EC0
71C0
3F80
0E00
ENDCHAR
STARTCHAR U+2779
ENCODING 10105
SWIDTH 1000 0
DWIDTH 12 0
BBX 11 11 0 -2
BITMAP
0E00
3F80
7DC0
79C0
F5E0
EDE0
E0E0
7DC0
7DC0
3F80
0E00
ENDCHAR
STARTCHAR U+277A
ENCODING 10106
SWIDTH 1000 0
DWIDTH 12 0
BBX 11 11 0 -2
BITMAP
0E00
3F80
60C0
6FC0
E1E0
FEE0
FEE0
6EC0
71C0
3F80
0E00
ENDCHAR
STARTCHAR U+277B
ENCODING 10107
SWIDTH 1000 0
DWIDTH 12 0
BBX 11 11 0 -2
BITMAP
0E00
3F80
79C0
77C0
EFE0
E1E0
EEE0
6EC0
71C0
3F80
0E00
ENDCHAR
STARTCHAR U+277C
ENCODING 10108
SWIDTH 1000 0
DWIDTH 12 0
BBX 11 11 0 -2
BITMAP
0E00
3F80
60C0
7EC0
FDE0
FDE0
FBE0
7BC0
7BC0
3F80
0E00
ENDCHAR
STARTCHAR U+277D
ENCODING 10109
SWIDTH 1000 0
DWIDTH 12 0
BBX 11 11 0 -2
BITMAP
0E00
3F80
71C0
6EC0
EEE0
F1E0
EEE0
6EC0
71C0
3F80
0E00
ENDCHAR
STARTCHAR U+277E
ENCODING 10110
SWIDTH 1000 0
DWIDTH 12 0
BBX 11 11 0 -2
BITMAP
0E00
3F80
71C0
6EC0
EEE0
F0E0
FEE0
7DC0
73C0
3F80
0E00
ENDCHAR
STARTCHAR U+277F
ENCODING 10111
SWIDTH 1000 0
DWIDTH 12 0
BBX 11 11 0 -2
BITMAP
0E00
3F80
6CC0
4B40
EB60
EB60
EB60
6B40
6CC0
3F80
0E00
ENDCHAR
STARTCHAR U+2FF0
ENCODING 12272
SWIDTH 1000 0
DWIDTH 12 0
BBX 11 11 0 -2
BITMAP
DB60
8420
0400
8020
8420
0400
8420
8020
0400
8420
DB60
ENDCHAR
STARTCHAR U+2FF1
ENCODING 12273
SWIDTH 1000 0
DWIDTH 12 0
BBX 11 11 0 -2
BITMAP
DB60
8020
0000
8020
8020
6EC0
8020
8020
0000
8020
DB60
ENDCHAR
STARTCHAR U+2FF2
ENCODING 12274
SWIDTH 1000 0
DWIDTH 12 0
BBX 11 11 0 -2
BITMAP
DB60
8020
1100
9120
8020
1100
8020
9120
1100
8020
DB60
ENDCHAR
STARTCHAR U+2FF3
ENCODING 12275
SWIDTH 1000 0
DWIDTH 12 0
BBX 11 11 0 -2
BITMAP
DB60
8020
0000
B5A0
8020
0000
8020
B5A0
0000
8020
DB60
ENDCHAR
STARTCHAR U+2FF4
ENCODING 12276
SWIDTH 1000 0
DWIDTH 12 0
BBX 11 11 0 -2
BITMAP
DB60
8020
3580
A0A0
8020
2080
8020
A0A0
3580
8020
DB60
ENDCHAR
STARTCHAR U+2FF5
ENCODING 12277
SWIDTH 1000 0
DWIDTH 12 0
BBX 11 11 0 -2
BITMAP
DB60
8020
0000
9B20
9120
0000
9120
9120
1100
8020
DB60
ENDCHAR
STARTCHAR U+2FF6
ENCODING 12278
SWIDTH 1000 0
DWIDTH 12 0
BBX 11 11 0 -2
BITMAP
DB60
8020
1100
9120
9120
0000
9120
9B20
0000
8020
DB60
ENDCHAR
STARTCHAR U+2FF7
ENCODING 12279
SWIDTH 1000 0
DWIDTH 12 0
BBX 11 11 0 -2
BITMAP
DB60
8020
0000
9BA0
9020
0000
9020
9BA0
0000
8020
DB60
ENDCHAR
STARTCHAR U+2FF8
ENCODING 12280
SWIDTH 1000 0
DWIDTH 12 0
BBX 11 11 0 -2
BITMAP
DB60
8020
0000
9BA0
9020
0000
9020
9020
1000
8020
DB60
ENDCHAR
STARTCHAR U+2FF9
ENCODING 12281
SWIDTH 1000 0
DWIDTH 12 0
BBX 11 11 0 -2
BITMAP
DB60
8020
0000
BB20
8120
0000
8120
8120
0100
8020
DB60
ENDCHAR
STARTCHAR U+2FFA
ENCODING 12282
SWIDTH 1000 0
DWIDTH 12 0
BBX 11 11 0 -2
BITMAP
DB60
8020
1000
9020
9020
0000
9020
9BA0
0000
8020
DB60
ENDCHAR
STARTCHAR U+2FFB
ENCODING 12283
SWIDTH 1000 0
DWIDTH 12 0
BBX 11 11 0 -2
BITMAP
DB00
8100
0000
9B60
9120
0000
9120
DB20
0000
1020
1B60
ENDCHAR
STARTCHAR U+3000
ENCODING 12288
SWIDTH 1000 0
DWIDTH 12 0
BBX 0 0 0 0
BITMAP
ENDCHAR
STARTCHAR U+3001
ENCODING 12289
SWIDTH 1000 0
DWIDTH 12 0
BBX 3 4 4 2
BITMAP
80
40
20
20
ENDCHAR
STARTCHAR U+3002
ENCODING 12290
SWIDTH 1000 0
DWIDTH 12 0
BBX 4 4 4 2
BITMAP
60
90
90
60
ENDCHAR
STARTCHAR U+3003
ENCODING 12291
SWIDTH 1000 0
DWIDTH 12 0
BBX 5 6 3 2
BITMAP
48
48
48
90
90
90
ENDCHAR
STARTCHAR U+3004
ENCODING 12292
SWIDTH 1000 0
DWIDTH 12 0
BBX 11 12 0 -2
BITMAP
1980
2140
4140
4520
8620
8420
8420
9C20
A040
9040
4880
3300
ENDCHAR
STARTCHAR U+3005
ENCODING 12293
SWIDTH 1000 0
DWIDTH 12 0
BBX 8 10 1 -1
BITMAP
20
20
3F
41
82
02
14
08
04
04
ENDCHAR
STARTCHAR U+3006
ENCODING 12294
SWIDTH 1000 0
DWIDTH 12 0
BBX 10 9 0 -1
BITMAP
0040
0080
1D00
2200
4500
8880
9040
A000
4000
ENDCHAR
STARTCHAR U+3007
ENCODING 12295
SWIDTH 1000 0
DWIDTH 12 0
BBX 11 11 0 -2
BITMAP
0E00
3180
4040
4040
8020
8020
8020
4040
4040
3180
0E00
ENDCHAR
STARTCHAR U+3008
ENCODING 12296
SWIDTH 1000 0
DWIDTH 12 0
BBX 3 10 6 -1
BITMAP
20
20
40
40
80
80
40
40
20
20
ENDCHAR
STARTCHAR U+3009
ENCODING 12297
SWIDTH 1000 0
DWIDTH 12 0
BBX 3 10 2 -1
BITMAP
80
80
40
40
20
20
40
40
80
80
ENDCHAR
STARTCHAR U+300A
ENCODING 12298
SWIDTH 1000 0
DWIDTH 12 0
BBX 6 10 4 -1
BITMAP
24
24
48
48
90
90
48
48
24
24
ENDCHAR
STARTCHAR U+300B
ENCODING 12299
SWIDTH 1000 0
DWIDTH 12 0
BBX 6 10 1 -1
BITMAP
90
90
48
48
24
24
48
48
90
90
ENDCHAR
STARTCHAR U+300C
ENCODING 12300
SWIDTH 1000 0
DWIDTH 12 0
BBX 3 8 6 2
BITMAP
E0
80
80
80
80
80
80
80
ENDCHAR
STARTCHAR U+300D
ENCODING 12301
SWIDTH 1000 0
DWIDTH 12 0
BBX 3 8 2 -2
BITMAP
20
20
20
20
20
20
20
E0
ENDCHAR
STARTCHAR U+300E
ENCODING 12302
SWIDTH 1000 0
DWIDTH 12 0
BBX 5 9 5 1
BITMAP
F8
88
B8
A0
A0
A0
A0
A0
E0
ENDCHAR
STARTCHAR U+300F
ENCODING 12303
SWIDTH 1000 0
DWIDTH 12 0
BBX 5 9 1 -2
BITMAP
38
28
28
28
28
28
E8
88
F8
ENDCHAR
STARTCHAR U+3010
ENCODING 12304
SWIDTH 1000 0
DWIDTH 12 0
BBX 5 12 5 -2
BITMAP
F8
F0
E0
E0
C0
C0
C0
C0
E0
E0
F0
F8
ENDCHAR
STARTCHAR U+3011
ENCODING 12305
SWIDTH 1000 0
DWIDTH 12 0
BBX 5 12 1 -2
BITMAP
F8
78
38
38
18
18
18
18
38
38
78
F8
ENDCHAR
STARTCHAR U+3012
ENCODING 12306
SWIDTH 1000 0
DWIDTH 12 0
BBX 9 10 1 -1
BITMAP
FF80
0000
0000
FF80
0800
0800
0800
0800
0800
0800
ENDCHAR
STARTCHAR U+3013
ENCODING 12307
SWIDTH 1000 0
DWIDTH 12 0
BBX 9 9 1 -1
BITMAP
FF80
FF80
FF80
0000
0000
0000
FF80
FF80
FF80
ENDCHAR
STARTCHAR U+3014
ENCODING 12308
SWIDTH 1000 0
DWIDTH 12 0
BBX 3 10 7 -1
BITMAP
20
40
80
80
80
80
80
80
40
20
ENDCHAR
STARTCHAR U+3015
ENCODING 12309
SWIDTH 1000 0
DWIDTH 12 0
BBX 3 10 1 -1
BITMAP
80
40
20
20
20
20
20
20
40
80
ENDCHAR
STARTCHAR U+3016
ENCODING 12310
SWIDTH 1000 0
DWIDTH 12 0
BBX 5 12 5 -2
BITMAP
F8
88
90
90
A0
A0
A0
A0
90
90
88
F8
ENDCHAR
STARTCHAR U+3017
ENCODING 12311
SWIDTH 1000 0
DWIDTH 12 0
BBX 5 12 1 -2
BITMAP
F8
88
48
48
28
28
28
28
48
48
88
F8
ENDCHAR
STARTCHAR U+301C
ENCODING 12316
SWIDTH 1000 0
DWIDTH 12 0
BBX 11 3 0 3
BITMAP
3820
4440
8380
ENDCHAR
STARTCHAR U+3020
ENCODING 12320
SWIDTH 1000 0
DWIDTH 12 0
BBX 11 11 0 -2
BITMAP
7FC0
0000
7FC0
0400
B5A0
B5A0
8420
A0A0
9F20
4040
3F80
ENDCHAR
STARTCHAR U+3036
ENCODING 12342
SWIDTH 1000 0
DWIDTH 12 0
BBX 11 11 0 -2
BITMAP
0E00
3180
4040
5F40
8020
9F20
8420
4440
4440
3180
0E00
ENDCHAR
STARTCHAR U+303F
ENCODING 12351
SWIDTH 500 0
DWIDTH 6 0
BBX 5 10 0 -1
BITMAP
F8
88
D8
D8
A8
A8
D8
D8
88
F8
ENDCHAR
STARTCHAR U+3041
ENCODING 12353
SWIDTH 1000 0
DWIDTH 12 0
BBX 9 9 1 -2
BITMAP
1000
1600
F800
2200
3F00
6480
A880
7100
2600
ENDCHAR
STARTCHAR U+3042
ENCODING 12354
SWIDTH 1000 0
DWIDTH 12 0
BBX 11 11 0 -2
BITMAP
1000
1380
FC00
1100
1780
3940
5120
9220
9420
7840
1380
ENDCHAR
STARTCHAR U+3043
ENCODING 12355
SWIDTH 1000 0
DWIDTH 12 0
BBX 8 8 1 -2
BITMAP
40
44
82
82
81
41
51
20
ENDCHAR
STARTCHAR U+3044
ENCODING 12356
SWIDTH 1000 0
DWIDTH 12 0
BBX 10 11 1 -2
BITMAP
4000
4100
4080
8080
8080
8040
8840
4840
5040
5000
2000
ENDCHAR
STARTCHAR U+3045
ENCODING 12357
SWIDTH 1000 0
DWIDTH 12 0
BBX 7 9 2 -2
BITMAP
70
0C
00
38
C4
02
02
0C
70
ENDCHAR
STARTCHAR U+3046
ENCODING 12358
SWIDTH 1000 0
DWIDTH 12 0
BBX 9 11 1 -2
BITMAP
7C00
0300
0000
1E00
E100
0080
0080
0080
0100
0600
3800
ENDCHAR
STARTCHAR U+3047
ENCODING 12359
SWIDTH 1000 0
DWIDTH 12 0
BBX 8 9 2 -2
BITMAP
60
18
00
FC
08
10
28
48
87
ENDCHAR
STARTCHAR U+3048
ENCODING 12360
SWIDTH 1000 0
DWIDTH 12 0
BBX 10 11 0 -2
BITMAP
3800
0700
0000
0000
7E00
0200
0400
0C00
1200
2200
C1C0
ENDCHAR
STARTCHAR U+3049
ENCODING 12361
SWIDTH 1000 0
DWIDTH 12 0
BBX 8 9 1 -2
BITMAP
22
21
F8
20
3E
61
A1
A2
4C
ENDCHAR
STARTCHAR U+304A
ENCODING 12362
SWIDTH 1000 0
DWIDTH 12 0
BBX 11 11 0 -2
BITMAP
1000
1080
FE40
1020
1000
1F00
3080
5040
9040
9080
6700
ENDCHAR
STARTCHAR U+304B
ENCODING 12363
SWIDTH 1000 0
DWIDTH 12 0
BBX 11 11 0 -2
BITMAP
1000
1000
1080
FC40
1240
1220
2220
2220
2200
4400
9800
ENDCHAR
STARTCHAR U+304C
ENCODING 12364
SWIDTH 1000 0
DWIDTH 12 0
BBX 11 12 0 -2
BITMAP
0040
1120
1080
1000
FC80
1240
1240
2220
2220
2200
4400
9800
ENDCHAR
STARTCHAR U+304D
ENCODING 12365
SWIDTH 1000 0
DWIDTH 12 0
BBX 9 11 1 -2
BITMAP
0800
0F00
F800
0800
0780
FC00
0200
4600
8000
7000
0F00
ENDCHAR
STARTCHAR U+304E
ENCODING 12366
SWIDTH 1000 0
DWIDTH 12 0
BBX 10 12 1 -2
BITMAP
0080
0A40
0900
FE00
0800
0780
FC00
0200
4600
8000
7000
0F00
ENDCHAR
STARTCHAR U+304F
ENCODING 12367
SWIDTH 1000 0
DWIDTH 12 0
BBX 6 11 2 -2
BITMAP
08
10
20
40
80
80
40
20
10
08
04
ENDCHAR
STARTCHAR U+3050
ENCODING 12368
SWIDTH 1000 0
DWIDTH 12 0
BBX 8 11 2 -2
BITMAP
08
10
22
49
84
80
40
20
10
08
04
ENDCHAR
STARTCHAR U+3051
ENCODING 12369
SWIDTH 1000 0
DWIDTH 12 0
BBX 10 11 1 -2
BITMAP
4100
4100
4100
9FC0
8100
8100
8100
A100
A200
4200
4400
ENDCHAR
STARTCHAR U+3052
ENCODING 12370
SWIDTH 1000 0
DWIDTH 12 0
BBX 11 12 0 -2
BITMAP
0140
40A0
4100
4100
5FC0
8100
8100
8100
A100
A200
4200
4400
ENDCHAR
STARTCHAR U+3053
ENCODING 12371
SWIDTH 1000 0
DWIDTH 12 0
BBX 9 10 1 -2
BITMAP
7F00
0200
0400
0000
4000
8000
8000
8000
4000
3F80
ENDCHAR
STARTCHAR U+3054
ENCODING 12372
SWIDTH 1000 0
DWIDTH 12 0
BBX 10 12 1 -2
BITMAP
0080
0040
7E80
0240
0400
0000
4000
8000
8000
8000
4000
3F80
ENDCHAR
STARTCHAR U+3055
ENCODING 12373
SWIDTH 1000 0
DWIDTH 12 0
BBX 9 11 1 -2
BITMAP
0800
0800
0F80
F800
0400
0400
4200
8600
8000
6000
1F00
ENDCHAR
STARTCHAR U+3056
ENCODING 12374
SWIDTH 1000 0
DWIDTH 12 0
BBX 10 12 1 -2
BITMAP
0080
0A40
0900
0F80
F800
0400
0400
4200
8600
8000
6000
1F00
ENDCHAR
STARTCHAR U+3057
ENCODING 12375
SWIDTH 1000 0
DWIDTH 12 0
BBX 8 11 2 -2
BITMAP
80
80
80
80
80
80
80
81
82
8C
70
ENDCHAR
STARTCHAR U+3058
ENCODING 12376
SWIDTH 1000 0
DWIDTH 12 0
BBX 8 11 2 -2
BITMAP
82
89
84
80
80
80
80
81
82
8C
70
ENDCHAR
STARTCHAR U+3059
ENCODING 12377
SWIDTH 1000 0
DWIDTH 12 0
BBX 11 11 0 -2
BITMAP
0200
0200
FFE0
0200
1A00
2600
2500
1900
0200
0400
1800
ENDCHAR
STARTCHAR U+305A
ENCODING 12378
SWIDTH 1000 0
DWIDTH 12 0
BBX 11 12 0 -2
BITMAP
0140
02A0
0200
FFE0
0200
1A00
2600
2500
1900
0200
0400
1800
ENDCHAR
STARTCHAR U+305B
ENCODING 12379
SWIDTH 1000 0
DWIDTH 12 0
BBX 11 11 0 -2
BITMAP
0100
2100
2100
FFE0
2100
2100
2900
2600
2000
1000
0FC0
ENDCHAR
STARTCHAR U+305C
ENCODING 12380
SWIDTH 1000 0
DWIDTH 12 0
BBX 11 12 0 -2
BITMAP
0040
0120
2140
2120
FF80
2100
2100
2900
2600
2000
1000
0FC0
ENDCHAR
STARTCHAR U+305D
ENCODING 12381
SWIDTH 1000 0
DWIDTH 12 0
BBX 11 11 0 -2
BITMAP
3F00
0200
0400
0800
3FE0
C400
0800
1000
1000
0800
0780
ENDCHAR
STARTCHAR U+305E
ENCODING 12382
SWIDTH 1000 0
DWIDTH 12 0
BBX 11 12 0 -2
BITMAP
0040
3F20
0240
0420
0800
3FE0
C400
0800
1000
1000
0800
0780
ENDCHAR
STARTCHAR U+305F
ENCODING 12383
SWIDTH 1000 0
DWIDTH 12 0
BBX 11 11 0 -2
BITMAP
1000
1000
1700
F800
1000
1380
2040
2400
4800
4800
87E0
ENDCHAR
STARTCHAR U+3060
ENCODING 12384
SWIDTH 1000 0
DWIDTH 12 0
BBX 11 11 0 -2
BITMAP
1140
10A0
1700
F800
1000
1380
2040
2400
4800
4800
87E0
ENDCHAR
STARTCHAR U+3061
ENCODING 12385
SWIDTH 1000 0
DWIDTH 12 0
BBX 10 11 0 -2
BITMAP
1000
1000
1380
FC00
1000
2700
3880
4040
0040
0180
1E00
ENDCHAR
STARTCHAR U+3062
ENCODING 12386
SWIDTH 1000 0
DWIDTH 12 0
BBX 11 12 0 -2
BITMAP
0140
10A0
1000
1380
FC00
1000
2700
3880
4040
0040
0180
1E00
ENDCHAR
STARTCHAR U+3063
ENCODING 12387
SWIDTH 1000 0
DWIDTH 12 0
BBX 9 7 1 -2
BITMAP
3E00
C100
0080
0080
0080
0300
1C00
ENDCHAR
STARTCHAR U+3064
ENCODING 12388
SWIDTH 1000 0
DWIDTH 12 0
BBX 11 9 0 -2
BITMAP
1E00
6180
8040
0020
0020
0020
0040
0180
1E00
ENDCHAR
STARTCHAR U+3065
ENCODING 12389
SWIDTH 1000 0
DWIDTH 12 0
BBX 11 12 0 -2
BITMAP
0040
0120
0080
1E00
6180
8040
0020
0020
0020
0040
0180
1E00
ENDCHAR
STARTCHAR U+3066
ENCODING 12390
SWIDTH 1000 0
DWIDTH 12 0
BBX 10 10 0 -2
BITMAP
FFC0
0400
0800
1000
1000
1000
1000
0800
0400
0380
ENDCHAR
STARTCHAR U+3067
ENCODING 12391
SWIDTH 1000 0
DWIDTH 12 0
BBX 11 10 0 -2
BITMAP
FFC0
0400
0940
10A0
1000
1000
1000
0800
0400
0380
ENDCHAR
STARTCHAR U+3068
ENCODING 12392
SWIDTH 1000 0
DWIDTH 12 0
BBX 9 11 1 -2
BITMAP
4000
4000
2000
2700
1800
2000
4000
8000
8000
4180
3E00
ENDCHAR
STARTCHAR U+3069
ENCODING 12393
SWIDTH 1000 0
DWIDTH 12 0
BBX 10 12 1 -2
BITMAP
0080
4240
4100
2000
2700
1800
2000
4000
8000
8000
4180
3E00
ENDCHAR
STARTCHAR U+306A
ENCODING 12394
SWIDTH 1000 0
DWIDTH 12 0
BBX 11 11 0 -2
BITMAP
1000
1080
FC40
1020
1080
1080
2080
2780
48C0
88A0
0700
ENDCHAR
STARTCHAR U+306B
ENCODING 12395
SWIDTH 1000 0
DWIDTH 12 0
BBX 10 11 1 -2
BITMAP
4000
47C0
8800
8000
8000
8400
A800
A800
A400
43C0
4000
ENDCHAR
STARTCHAR U+306C
ENCODING 12396
SWIDTH 1000 0
DWIDTH 12 0
BBX 11 11 0 -2
BITMAP
0200
2200
2200
2F80
7240
A220
9420
9420
89A0
9240
61A0
ENDCHAR
STARTCHAR U+306D
ENCODING 12397
SWIDTH 1000 0
DWIDTH 12 0
BBX 11 11 0 -2
BITMAP
1000
1000
F300
1480
1840
1040
3040
3340
5480
94C0
1320
ENDCHAR
STARTCHAR U+306E
ENCODING 12398
SWIDTH 1000 0
DWIDTH 12 0
BBX 11 10 0 -2
BITMAP
1F00
2480
4440
4420
8420
8820
8840
4840
3080
0300
ENDCHAR
STARTCHAR U+306F
ENCODING 12399
SWIDTH 1000 0
DWIDTH 12 0
BBX 11 11 0 -2
BITMAP
4100
4100
9FE0
8100
8100
8100
A700
A980
4940
4920
4600
ENDCHAR
STARTCHAR U+3070
ENCODING 12400
SWIDTH 1000 0
DWIDTH 12 0
BBX 11 12 0 -2
BITMAP
0140
40A0
4100
9FC0
8100
8100
8100
A700
A980
4940
4920
4600
ENDCHAR
STARTCHAR U+3071
ENCODING 12401
SWIDTH 1000 0
DWIDTH 12 0
BBX 11 12 0 -2
BITMAP
0140
41A0
4140
9F80
8100
8100
8100
A700
A980
4940
4920
4600
ENDCHAR
STARTCHAR U+3072
ENCODING 12402
SWIDTH 1000 0
DWIDTH 12 0
BBX 11 10 0 -2
BITMAP
3880
D080
10C0
20A0
2080
2080
2100
2100
1100
0E00
ENDCHAR
STARTCHAR U+3073
ENCODING 12403
SWIDTH 1000 0
DWIDTH 12 0
BBX 11 12 0 -2
BITMAP
0140
00A0
3800
D080
10C0
20A0
2080
2080
2100
2100
1100
0E00
ENDCHAR
STARTCHAR U+3074
ENCODING 12404
SWIDTH 1000 0
DWIDTH 12 0
BBX 11 12 0 -2
BITMAP
0040
00A0
38A0
D040
1080
20C0
20A0
2080
2100
2100
1100
0E00
ENDCHAR
STARTCHAR U+3075
ENCODING 12405
SWIDTH 1000 0
DWIDTH 12 0
BBX 11 11 0 -2
BITMAP
1C00
0300
0000
0800
0440
2440
C220
0220
0220
1200
0C00
ENDCHAR
STARTCHAR U+3076
ENCODING 12406
SWIDTH 1000 0
DWIDTH 12 0
BBX 11 12 0 -2
BITMAP
0140
00A0
1C00
0300
0800
0840
2440
C220
0220
0220
1200
0C00
ENDCHAR
STARTCHAR U+3077
ENCODING 12407
SWIDTH 1000 0
DWIDTH 12 0
BBX 11 12 0 -2
BITMAP
0040
00A0
1CA0
0340
0800
0840
2440
C220
0220
0220
1200
0C00
ENDCHAR
STARTCHAR U+3078
ENCODING 12408
SWIDTH 1000 0
DWIDTH 12 0
BBX 11 6 0 1
BITMAP
1800
2400
4200
8100
0080
0060
ENDCHAR
STARTCHAR U+3079
ENCODING 12409
SWIDTH 1000 0
DWIDTH 12 0
BBX 11 8 0 1
BITMAP
0040
0120
1880
2400
4200
8100
0080
0060
ENDCHAR
STARTCHAR U+307A
ENCODING 12410
SWIDTH 1000 0
DWIDTH 12 0
BBX 11 8 0 1
BITMAP
0080
0140
1940
2480
4200
8100
0080
0060
ENDCHAR
STARTCHAR U+307B
ENCODING 12411
SWIDTH 1000 0
DWIDTH 12 0
BBX 11 11 0 -2
BITMAP
47C0
4100
8100
8FC0
8100
8100
A780
A940
4920
4900
4600
ENDCHAR
STARTCHAR U+307C
ENCODING 12412
SWIDTH 1000 0
DWIDTH 12 0
BBX 11 12 0 -2
BITMAP
0040
47A0
4140
8120
8FC0
8100
8100
A780
A940
4920
4900
4600
ENDCHAR
STARTCHAR U+307D
ENCODING 12413
SWIDTH 1000 0
DWIDTH 12 0
BBX 11 12 0 -2
BITMAP
0040
4FA0
42A0
8240
9F80
8200
8200
AF00
B280
5240
5200
4C00
ENDCHAR
STARTCHAR U+307E
ENCODING 12414
SWIDTH 1000 0
DWIDTH 12 0
BBX 9 11 1 -2
BITMAP
0800
0800
FF80
0800
7F00
0800
0800
7E00
8900
8880
7000
ENDCHAR
STARTCHAR U+307F
ENCODING 12415
SWIDTH 1000 0
DWIDTH 12 0
BBX 11 11 0 -2
BITMAP
7E00
0200
0440
0440
3E40
4980
8880
8940
9120
6200
0400
ENDCHAR
STARTCHAR U+3080
ENCODING 12416
SWIDTH 1000 0
DWIDTH 12 0
BBX 11 11 0 -2
BITMAP
1000
1080
FC40
1020
3020
4800
4800
3040
1040
1040
0F80
ENDCHAR
STARTCHAR U+3081
ENCODING 12417
SWIDTH 1000 0
DWIDTH 12 0
BBX 11 11 0 -2
BITMAP
0200
4200
4200
5F80
2240
6420
9420
8820
9440
6080
0300
ENDCHAR
STARTCHAR U+3082
ENCODING 12418
SWIDTH 1000 0
DWIDTH 12 0
BBX 9 11 1 -2
BITMAP
1000
1000
FE00
1000
2000
FD00
2080
2080
2080
2100
1E00
ENDCHAR
STARTCHAR U+3083
ENCODING 12419
SWIDTH 1000 0
DWIDTH 12 0
BBX 8 9 1 -2
BITMAP
08
44
40
3E
E1
21
11
16
10
ENDCHAR
STARTCHAR U+3084
ENCODING 12420
SWIDTH 1000 0
DWIDTH 12 0
BBX 11 11 0 -2
BITMAP
0200
2100
2000
13C0
1C20
F020
1020
0840
0980
0800
0800
ENDCHAR
STARTCHAR U+3085
ENCODING 12421
SWIDTH 1000 0
DWIDTH 12 0
BBX 9 9 1 -2
BITMAP
0400
8400
9F00
A480
C480
9480
8F00
8400
0800
ENDCHAR
STARTCHAR U+3086
ENCODING 12422
SWIDTH 1000 0
DWIDTH 12 0
BBX 11 11 0 -2
BITMAP
0200
8200
9F80
A240
C220
8220
8220
9440
8F80
8400
0800
ENDCHAR
STARTCHAR U+3087
ENCODING 12423
SWIDTH 1000 0
DWIDTH 12 0
BBX 7 9 2 -2
BITMAP
10
10
1E
10
10
78
94
92
60
ENDCHAR
STARTCHAR U+3088
ENCODING 12424
SWIDTH 1000 0
DWIDTH 12 0
BBX 11 11 0 -2
BITMAP
0400
0400
07C0
0400
0400
0400
1E00
6580
8440
8820
7000
ENDCHAR
STARTCHAR U+3089
ENCODING 12425
SWIDTH 1000 0
DWIDTH 12 0
BBX 9 11 1 -2
BITMAP
1800
4700
4000
4000
8E00
B100
C080
0080
0080
0300
3C00
ENDCHAR
STARTCHAR U+308A
ENCODING 12426
SWIDTH 1000 0
DWIDTH 12 0
BBX 8 11 2 -2
BITMAP
8E
91
A1
C1
81
81
82
02
04
08
30
ENDCHAR
STARTCHAR U+308B
ENCODING 12427
SWIDTH 1000 0
DWIDTH 12 0
BBX 9 11 1 -2
BITMAP
FE00
0400
0800
1000
3C00
C300
0080
3080
4900
4A00
3C00
ENDCHAR
STARTCHAR U+308C
ENCODING 12428
SWIDTH 1000 0
DWIDTH 12 0
BBX 11 11 0 -2
BITMAP
1000
1000
F000
1700
1880
1080
3080
3120
5120
9120
10C0
ENDCHAR
STARTCHAR U+308D
ENCODING 12429
SWIDTH 1000 0
DWIDTH 12 0
BBX 9 11 1 -2
BITMAP
FE00
0400
0800
1000
3E00
C100
0080
0080
0100
0200
3C00
ENDCHAR
STARTCHAR U+308E
ENCODING 12430
SWIDTH 1000 0
DWIDTH 12 0
BBX 8 8 1 -2
BITMAP
20
E0
2E
31
21
61
A2
2C
ENDCHAR
STARTCHAR U+308F
ENCODING 12431
SWIDTH 1000 0
DWIDTH 12 0
BBX 11 11 0 -2
BITMAP
1000
1000
F000
1780
1840
1020
3020
3020
5040
9080
1300
ENDCHAR
STARTCHAR U+3090
ENCODING 12432
SWIDTH 1000 0
DWIDTH 12 0
BBX 11 11 0 -2
BITMAP
3C00
0400
0400
0800
3F80
4840
4820
9020
93A0
9440
6380
ENDCHAR
STARTCHAR U+3091
ENCODING 12433
SWIDTH 1000 0
DWIDTH 12 0
BBX 11 12 0 -2
BITMAP
7C00
0800
1700
3880
C080
1880
2500
1E00
0800
3180
4A40
8420
ENDCHAR
STARTCHAR U+3092
ENCODING 12434
SWIDTH 1000 0
DWIDTH 12 0
BBX 10 11 0 -2
BITMAP
0800
0800
FF00
1000
3800
45C0
8E00
1200
2200
4000
3FC0
ENDCHAR
STARTCHAR U+3093
ENCODING 12435
SWIDTH 1000 0
DWIDTH 12 0
BBX 10 11 1 -2
BITMAP
1000
1000
2000
2000
4000
5800
6440
4440
8480
8280
8100
ENDCHAR
STARTCHAR U+3094
ENCODING 12436
SWIDTH 1000 0
DWIDTH 12 0
BBX 10 12 1 -2
BITMAP
0280
7940
0600
0000
1E00
E100
0080
0080
0080
0100
0600
3800
ENDCHAR
STARTCHAR U+3095
ENCODING 12437
SWIDTH 1000 0
DWIDTH 12 0
BBX 9 9 1 -2
BITMAP
2000
2100
F900
2480
2480
2480
4400
4400
9800
ENDCHAR
STARTCHAR U+3096
ENCODING 12438
SWIDTH 1000 0
DWIDTH 12 0
BBX 8 8 2 -2
BITMAP
84
84
BF
84
84
84
C4
88
ENDCHAR
STARTCHAR U+3099
ENCODING 12441
SWIDTH 1000 0
DWIDTH 12 0
BBX 4 3 7 7
BITMAP
20
90
40
ENDCHAR
STARTCHAR U+309A
ENCODING 12442
SWIDTH 1000 0
DWIDTH 12 0
BBX 3 4 8 5
BITMAP
40
A0
A0
40
ENDCHAR
STARTCHAR U+309B
ENCODING 12443
SWIDTH 1000 0
DWIDTH 12 0
BBX 4 3 0 7
BITMAP
20
90
40
ENDCHAR
STARTCHAR U+309C
ENCODING 12444
SWIDTH 1000 0
DWIDTH 12 0
BBX 4 4 0 6
BITMAP
60
90
90
60
ENDCHAR
STARTCHAR U+309D
ENCODING 12445
SWIDTH 1000 0
DWIDTH 12 0
BBX 6 8 2 0
BITMAP
80
40
20
10
08
04
18
60
ENDCHAR
STARTCHAR U+309E
ENCODING 12446
SWIDTH 1000 0
DWIDTH 12 0
BBX 7 9 2 0
BITMAP
04
92
48
20
10
08
04
18
60
ENDCHAR
STARTCHAR U+309F
ENCODING 12447
SWIDTH 1000 0
DWIDTH 12 0
BBX 9 11 1 -2
BITMAP
1000
1600
1180
2000
2E00
3100
4100
4100
5200
9200
8C00
ENDCHAR
STARTCHAR U+30A0
ENCODING 12448
SWIDTH 1000 0
DWIDTH 12 0
BBX 5 4 3 2
BITMAP
F8
00
00
F8
ENDCHAR
STARTCHAR U+30A1
ENCODING 12449
SWIDTH 1000 0
DWIDTH 12 0
BBX 8 8 1 -2
BITMAP
FF
01
12
10
10
20
20
40
ENDCHAR
STARTCHAR U+30A2
ENCODING 12450
SWIDTH 1000 0
DWIDTH 12 0
BBX 10 11 1 -2
BITMAP
FFC0
0040
0880
0800
0800
0800
1000
1000
2000
2000
4000
ENDCHAR
STARTCHAR U+30A3
ENCODING 12451
SWIDTH 1000 0
DWIDTH 12 0
BBX 7 9 2 -2
BITMAP
02
04
08
38
C8
08
08
08
08
ENDCHAR
STARTCHAR U+30A4
ENCODING 12452
SWIDTH 1000 0
DWIDTH 12 0
BBX 9 11 1 -2
BITMAP
0080
0100
0200
0C00
3400
C400
0400
0400
0400
0400
0400
ENDCHAR
STARTCHAR U+30A5
ENCODING 12453
SWIDTH 1000 0
DWIDTH 12 0
BBX 7 9 2 -2
BITMAP
10
10
FE
82
02
04
04
08
30
ENDCHAR
STARTCHAR U+30A6
ENCODING 12454
SWIDTH 1000 0
DWIDTH 12 0
BBX 9 11 1 -2
BITMAP
0800
0800
FF80
8080
8080
0080
0100
0100
0200
0400
1800
ENDCHAR
STARTCHAR U+30A7
ENCODING 12455
SWIDTH 1000 0
DWIDTH 12 0
BBX 9 6 1 -1
BITMAP
7F00
0800
0800
0800
0800
FF80
ENDCHAR
STARTCHAR U+30A8
ENCODING 12456
SWIDTH 1000 0
DWIDTH 12 0
BBX 11 9 0 -1
BITMAP
7FC0
0400
0400
0400
0400
0400
0400
0400
FFE0
ENDCHAR
STARTCHAR U+30A9
ENCODING 12457
SWIDTH 1000 0
DWIDTH 12 0
BBX 8 9 2 -2
BITMAP
04
04
FF
0C
14
24
C4
14
08
ENDCHAR
STARTCHAR U+30AA
ENCODING 12458
SWIDTH 1000 0
DWIDTH 12 0
BBX 11 11 0 -2
BITMAP
0100
0100
0100
FFE0
0300
0500
0900
1100
2100
C500
0200
ENDCHAR
STARTCHAR U+30AB
ENCODING 12459
SWIDTH 1000 0
DWIDTH 12 0
BBX 10 11 0 -2
BITMAP
0400
0400
0400
7FC0
0440
0440
0840
0840
1040
2080
C300
ENDCHAR
STARTCHAR U+30AC
ENCODING 12460
SWIDTH 1000 0
DWIDTH 12 0
BBX 11 12 0 -2
BITMAP
0040
0520
0480
0400
7FC0
0440
0440
0840
0840
1040
2080
C300
ENDCHAR
STARTCHAR U+30AD
ENCODING 12461
SWIDTH 1000 0
DWIDTH 12 0
BBX 11 11 0 -2
BITMAP
0800
0800
0BC0
7C00
0400
0400
07E0
FA00
0200
0200
0200
ENDCHAR
STARTCHAR U+30AE
ENCODING 12462
SWIDTH 1000 0
DWIDTH 12 0
BBX 11 12 0 -2
BITMAP
0140
08A0
0800
0BC0
7C00
0400
0400
07E0
FA00
0200
0200
0200
ENDCHAR
STARTCHAR U+30AF
ENCODING 12463
SWIDTH 1000 0
DWIDTH 12 0
BBX 10 11 0 -2
BITMAP
1000
1000
1FC0
2040
4040
8080
0080
0100
0200
0C00
3000
ENDCHAR
STARTCHAR U+30B0
ENCODING 12464
SWIDTH 1000 0
DWIDTH 12 0
BBX 11 12 0 -2
BITMAP
0140
10A0
1000
1FC0
2040
4040
8080
0080
0100
0200
0C00
3000
ENDCHAR
STARTCHAR U+30B1
ENCODING 12465
SWIDTH 1000 0
DWIDTH 12 0
BBX 11 11 0 -2
BITMAP
1000
1000
1FE0
2100
4100
8100
0100
0200
0200
0400
1800
ENDCHAR
STARTCHAR U+30B2
ENCODING 12466
SWIDTH 1000 0
DWIDTH 12 0
BBX 11 12 0 -2
BITMAP
0140
10A0
1000
1FE0
2100
4100
8100
0100
0200
0200
0400
1800
ENDCHAR
STARTCHAR U+30B3
ENCODING 12467
SWIDTH 1000 0
DWIDTH 12 0
BBX 9 9 1 -2
BITMAP
FF80
0080
0080
0080
0080
0080
0080
FF80
0080
ENDCHAR
STARTCHAR U+30B4
ENCODING 12468
SWIDTH 1000 0
DWIDTH 12 0
BBX 10 12 1 -2
BITMAP
0280
0140
0000
FF80
0080
0080
0080
0080
0080
0080
FF80
0080
ENDCHAR
STARTCHAR U+30B5
ENCODING 12469
SWIDTH 1000 0
DWIDTH 12 0
BBX 11 11 0 -2
BITMAP
1100
1100
1100
FFE0
1100
1100
1100
0200
0200
0400
0800
ENDCHAR
STARTCHAR U+30B6
ENCODING 12470
SWIDTH 1000 0
DWIDTH 12 0
BBX 11 12 0 -2
BITMAP
0140
10A0
1100
1100
FFE0
1100
1100
1100
0200
0200
0400
0800
ENDCHAR
STARTCHAR U+30B7
ENCODING 12471
SWIDTH 1000 0
DWIDTH 12 0
BBX 10 11 1 -2
BITMAP
3000
0C00
0000
C040
3040
0080
0100
0200
0400
1800
E000
ENDCHAR
STARTCHAR U+30B8
ENCODING 12472
SWIDTH 1000 0
DWIDTH 12 0
BBX 10 12 1 -2
BITMAP
0280
3140
0C00
0000
C040
3040
0080
0100
0200
0400
1800
E000
ENDCHAR
STARTCHAR U+30B9
ENCODING 12473
SWIDTH 1000 0
DWIDTH 12 0
BBX 11 10 0 -2
BITMAP
7F80
0080
0100
0100
0200
0500
0880
1040
2020
C020
ENDCHAR
STARTCHAR U+30BA
ENCODING 12474
SWIDTH 1000 0
DWIDTH 12 0
BBX 11 12 0 -2
BITMAP
0140
00A0
7F80
0080
0100
0100
0200
0500
0880
1040
2020
C020
ENDCHAR
STARTCHAR U+30BB
ENCODING 12475
SWIDTH 1000 0
DWIDTH 12 0
BBX 10 11 0 -2
BITMAP
1000
1000
1000
17C0
F840
1080
1100
1000
1000
1000
0F80
ENDCHAR
STARTCHAR U+30BC
ENCODING 12476
SWIDTH 1000 0
DWIDTH 12 0
BBX 11 12 0 -2
BITMAP
0040
1120
1080
1000
17C0
F840
1080
1100
1000
1000
1000
0F80
ENDCHAR
STARTCHAR U+30BD
ENCODING 12477
SWIDTH 1000 0
DWIDTH 12 0
BBX 8 11 2 -2
BITMAP
01
81
42
42
04
04
08
10
20
40
80
ENDCHAR
STARTCHAR U+30BE
ENCODING 12478
SWIDTH 1000 0
DWIDTH 12 0
BBX 9 12 2 -2
BITMAP
0500
0280
8000
4200
4200
0400
0400
0800
1000
2000
4000
8000
ENDCHAR
STARTCHAR U+30BF
ENCODING 12479
SWIDTH 1000 0
DWIDTH 12 0
BBX 9 11 1 -2
BITMAP
1000
1000
1F80
2080
4100
9A00
0400
0A00
1100
2000
C000
ENDCHAR
STARTCHAR U+30C0
ENCODING 12480
SWIDTH 1000 0
DWIDTH 12 0
BBX 10 12 1 -2
BITMAP
0280
1140
1000
1F80
2080
4100
9A00
0400
0A00
1100
2000
C000
ENDCHAR
STARTCHAR U+30C1
ENCODING 12481
SWIDTH 1000 0
DWIDTH 12 0
BBX 11 11 0 -2
BITMAP
0380
3C00
0400
0400
0400
FFE0
0400
0800
0800
1000
2000
ENDCHAR
STARTCHAR U+30C2
ENCODING 12482
SWIDTH 1000 0
DWIDTH 12 0
BBX 11 12 0 -2
BITMAP
0040
0320
3C40
0420
0400
0400
FFE0
0400
0800
0800
1000
2000
ENDCHAR
STARTCHAR U+30C3
ENCODING 12483
SWIDTH 1000 0
DWIDTH 12 0
BBX 7 8 2 -2
BITMAP
02
22
92
44
04
08
10
20
ENDCHAR
STARTCHAR U+30C4
ENCODING 12484
SWIDTH 1000 0
DWIDTH 12 0
BBX 10 11 0 -2
BITMAP
1040
8840
4880
4080
0100
0100
0200
0400
0800
1000
2000
ENDCHAR
STARTCHAR U+30C5
ENCODING 12485
SWIDTH 1000 0
DWIDTH 12 0
BBX 11 12 0 -2
BITMAP
0140
10A0
8800
4880
4080
0100
0100
0200
0400
0800
1000
2000
ENDCHAR
STARTCHAR U+30C6
ENCODING 12486
SWIDTH 1000 0
DWIDTH 12 0
BBX 11 10 0 -2
BITMAP
3F80
0000
0000
FFE0
0400
0400
0800
1000
2000
4000
ENDCHAR
STARTCHAR U+30C7
ENCODING 12487
SWIDTH 1000 0
DWIDTH 12 0
BBX 11 12 0 -2
BITMAP
0140
00A0
3F00
0000
0000
FFE0
0400
0400
0800
1000
2000
4000
ENDCHAR
STARTCHAR U+30C8
ENCODING 12488
SWIDTH 1000 0
DWIDTH 12 0
BBX 6 11 4 -2
BITMAP
80
80
80
A0
90
88
84
80
80
80
80
ENDCHAR
STARTCHAR U+30C9
ENCODING 12489
SWIDTH 1000 0
DWIDTH 12 0
BBX 7 11 4 -2
BITMAP
84
92
88
A0
90
88
84
80
80
80
80
ENDCHAR
STARTCHAR U+30CA
ENCODING 12490
SWIDTH 1000 0
DWIDTH 12 0
BBX 10 11 1 -2
BITMAP
0400
0400
0400
FFC0
0400
0400
0400
0800
0800
1000
2000
ENDCHAR
STARTCHAR U+30CB
ENCODING 12491
SWIDTH 1000 0
DWIDTH 12 0
BBX 11 7 0 0
BITMAP
7FC0
0000
0000
0000
0000
0000
FFE0
ENDCHAR
STARTCHAR U+30CC
ENCODING 12492
SWIDTH 1000 0
DWIDTH 12 0
BBX 9 11 0 -2
BITMAP
7F80
0080
0080
3080
0900
0500
0200
0500
0880
1000
E000
ENDCHAR
STARTCHAR U+30CD
ENCODING 12493
SWIDTH 1000 0
DWIDTH 12 0
BBX 9 11 1 -2
BITMAP
0800
0800
FF00
0200
0400
0800
3B00
C880
0800
0800
0800
ENDCHAR
STARTCHAR U+30CE
ENCODING 12494
SWIDTH 1000 0
DWIDTH 12 0
BBX 9 11 0 -2
BITMAP
0080
0080
0080
0100
0100
0200
0200
0400
0800
3000
C000
ENDCHAR
STARTCHAR U+30CF
ENCODING 12495
SWIDTH 1000 0
DWIDTH 12 0
BBX 9 10 1 -2
BITMAP
0400
2400
2200
2200
2100
4100
4100
4080
8080
8080
ENDCHAR
STARTCHAR U+30D0
ENCODING 12496
SWIDTH 1000 0
DWIDTH 12 0
BBX 10 12 1 -2
BITMAP
0280
0140
0400
2400
2200
2200
2100
4100
4100
4080
8080
8080
ENDCHAR
STARTCHAR U+30D1
ENCODING 12497
SWIDTH 1000 0
DWIDTH 12 0
BBX 10 12 1 -2
BITMAP
0080
0140
0540
2480
2200
2200
2100
4100
4100
4080
8080
8080
ENDCHAR
STARTCHAR U+30D2
ENCODING 12498
SWIDTH 1000 0
DWIDTH 12 0
BBX 9 11 1 -2
BITMAP
8000
8000
8100
8200
8C00
F000
8000
8000
8000
8000
7F80
ENDCHAR
STARTCHAR U+30D3
ENCODING 12499
SWIDTH 1000 0
DWIDTH 12 0
BBX 10 12 1 -2
BITMAP
0280
8140
8000
8100
8200
8C00
F000
8000
8000
8000
8000
7F80
ENDCHAR
STARTCHAR U+30D4
ENCODING 12500
SWIDTH 1000 0
DWIDTH 12 0
BBX 10 12 1 -2
BITMAP
0080
8140
8140
8080
8200
8C00
F000
8000
8000
8000
8000
7F80
ENDCHAR
STARTCHAR U+30D5
ENCODING 12501
SWIDTH 1000 0
DWIDTH 12 0
BBX 10 9 0 -2
BITMAP
FFC0
0040
0040
0080
0080
0100
0200
0400
3800
ENDCHAR
STARTCHAR U+30D6
ENCODING 12502
SWIDTH 1000 0
DWIDTH 12 0
BBX 11 12 0 -2
BITMAP
0140
00A0
0000
FFC0
0040
0040
0080
0080
0100
0200
0400
3800
ENDCHAR
STARTCHAR U+30D7
ENCODING 12503
SWIDTH 1000 0
DWIDTH 12 0
BBX 11 12 0 -2
BITMAP
0040
00A0
00A0
FFC0
0040
0040
0080
0080
0100
0200
0400
3800
ENDCHAR
STARTCHAR U+30D8
ENCODING 12504
SWIDTH 1000 0
DWIDTH 12 0
BBX 11 7 0 0
BITMAP
1800
2400
4200
8100
0080
0040
0020
ENDCHAR
STARTCHAR U+30D9
ENCODING 12505
SWIDTH 1000 0
DWIDTH 12 0
BBX 11 9 0 0
BITMAP
0040
0120
1880
2400
4200
8100
0080
0040
0020
ENDCHAR
STARTCHAR U+30DA
ENCODING 12506
SWIDTH 1000 0
DWIDTH 12 0
BBX 11 9 0 0
BITMAP
0080
0140
1940
2480
4200
8100
0080
0040
0020
ENDCHAR
STARTCHAR U+30DB
ENCODING 12507
SWIDTH 1000 0
DWIDTH 12 0
BBX 11 11 0 -2
BITMAP
0400
0400
0400
FFE0
0400
2480
2440
4420
8420
1400
0800
ENDCHAR
STARTCHAR U+30DC
ENCODING 12508
SWIDTH 1000 0
DWIDTH 12 0
BBX 11 12 0 -2
BITMAP
0040
0520
0480
0400
FFE0
0400
2480
2440
4420
8420
1400
0800
ENDCHAR
STARTCHAR U+30DD
ENCODING 12509
SWIDTH 1000 0
DWIDTH 12 0
BBX 11 12 0 -2
BITMAP
0040
04A0
04A0
0440
FF80
0400
2480
2440
4420
8420
1400
0800
ENDCHAR
STARTCHAR U+30DE
ENCODING 12510
SWIDTH 1000 0
DWIDTH 12 0
BBX 10 10 0 -2
BITMAP
FFC0
0040
0040
0080
1100
0A00
0400
0400
0200
0200
ENDCHAR
STARTCHAR U+30DF
ENCODING 12511
SWIDTH 1000 0
DWIDTH 12 0
BBX 9 11 1 -2
BITMAP
3C00
0380
0000
0000
7800
0700
0000
0000
E000
1C00
0380
ENDCHAR
STARTCHAR U+30E0
ENCODING 12512
SWIDTH 1000 0
DWIDTH 12 0
BBX 11 11 0 -2
BITMAP
0400
0400
0400
0800
0800
1080
1040
2040
23E0
FC20
0020
ENDCHAR
STARTCHAR U+30E1
ENCODING 12513
SWIDTH 1000 0
DWIDTH 12 0
BBX 10 11 0 -2
BITMAP
0080
0080
1900
0500
0200
0200
0500
0880
1040
2000
C000
ENDCHAR
STARTCHAR U+30E2
ENCODING 12514
SWIDTH 1000 0
DWIDTH 12 0
BBX 11 11 0 -2
BITMAP
7FC0
0800
0800
0800
FFE0
0800
0800
0800
0800
0800
07C0
ENDCHAR
STARTCHAR U+30E3
ENCODING 12515
SWIDTH 1000 0
DWIDTH 12 0
BBX 8 9 2 -2
BITMAP
20
20
2F
F1
12
10
08
08
08
ENDCHAR
STARTCHAR U+30E4
ENCODING 12516
SWIDTH 1000 0
DWIDTH 12 0
BBX 11 11 0 -2
BITMAP
1000
1000
10E0
0F20
F840
0880
0400
0400
0200
0200
0200
ENDCHAR
STARTCHAR U+30E5
ENCODING 12517
SWIDTH 1000 0
DWIDTH 12 0
BBX 9 8 1 -2
BITMAP
7E00
0200
0200
0200
0400
0400
0400
FF80
ENDCHAR
STARTCHAR U+30E6
ENCODING 12518
SWIDTH 1000 0
DWIDTH 12 0
BBX 11 10 0 -2
BITMAP
7F80
0080
0080
0080
0080
0100
0100
0100
0100
FFE0
ENDCHAR
STARTCHAR U+30E7
ENCODING 12519
SWIDTH 1000 0
DWIDTH 12 0
BBX 8 8 2 -2
BITMAP
FF
01
01
7F
01
01
01
FF
ENDCHAR
STARTCHAR U+30E8
ENCODING 12520
SWIDTH 1000 0
DWIDTH 12 0
BBX 10 11 0 -2
BITMAP
FFC0
0040
0040
0040
0040
7FC0
0040
0040
0040
0040
FFC0
ENDCHAR
STARTCHAR U+30E9
ENCODING 12521
SWIDTH 1000 0
DWIDTH 12 0
BBX 9 11 1 -2
BITMAP
7F00
0000
0000
FF80
0080
0080
0100
0200
0400
1800
6000
ENDCHAR
STARTCHAR U+30EA
ENCODING 12522
SWIDTH 1000 0
DWIDTH 12 0
BBX 6 11 3 -2
BITMAP
04
84
84
84
84
84
88
08
10
20
40
ENDCHAR
STARTCHAR U+30EB
ENCODING 12523
SWIDTH 1000 0
DWIDTH 12 0
BBX 11 11 0 -2
BITMAP
1200
1200
1200
1200
1200
1220
1220
2240
2280
4300
8200
ENDCHAR
STARTCHAR U+30EC
ENCODING 12524
SWIDTH 1000 0
DWIDTH 12 0
BBX 9 11 1 -2
BITMAP
8000
8000
8000
8000
8080
8100
8200
8400
8800
B000
C000
ENDCHAR
STARTCHAR U+30ED
ENCODING 12525
SWIDTH 1000 0
DWIDTH 12 0
BBX 9 9 1 -1
BITMAP
FF80
8080
8080
8080
8080
8080
8080
FF80
8080
ENDCHAR
STARTCHAR U+30EE
ENCODING 12526
SWIDTH 1000 0
DWIDTH 12 0
BBX 8 8 2 -2
BITMAP
FF
81
01
02
02
04
08
30
ENDCHAR
STARTCHAR U+30EF
ENCODING 12527
SWIDTH 1000 0
DWIDTH 12 0
BBX 10 11 0 -2
BITMAP
FFC0
8040
8040
0040
0040
0080
0080
0100
0200
0400
1800
ENDCHAR
STARTCHAR U+30F0
ENCODING 12528
SWIDTH 1000 0
DWIDTH 12 0
BBX 11 11 0 -2
BITMAP
0100
0100
7FC0
1100
1100
1100
1100
FFE0
0100
0100
0100
ENDCHAR
STARTCHAR U+30F1
ENCODING 12529
SWIDTH 1000 0
DWIDTH 12 0
BBX 11 10 0 -2
BITMAP
7FC0
0040
0440
0480
0500
0400
0400
0400
0400
FFE0
ENDCHAR
STARTCHAR U+30F2
ENCODING 12530
SWIDTH 1000 0
DWIDTH 12 0
BBX 8 10 1 -2
BITMAP
FF
01
01
FE
02
02
04
08
10
60
ENDCHAR
STARTCHAR U+30F3
ENCODING 12531
SWIDTH 1000 0
DWIDTH 12 0
BBX 10 10 1 -2
BITMAP
6000
1000
0840
0040
0080
0100
0200
0400
1800
E000
ENDCHAR
STARTCHAR U+30F4
ENCODING 12532
SWIDTH 1000 0
DWIDTH 12 0
BBX 10 12 1 -2
BITMAP
0280
0940
0800
FF80
8080
8080
0080
0100
0100
0200
0400
1800
ENDCHAR
STARTCHAR U+30F5
ENCODING 12533
SWIDTH 1000 0
DWIDTH 12 0
BBX 8 8 2 -2
BITMAP
10
10
FF
11
11
21
41
86
ENDCHAR
STARTCHAR U+30F6
ENCODING 12534
SWIDTH 1000 0
DWIDTH 12 0
BBX 8 8 2 -2
BITMAP
40
7F
44
84
04
08
08
10
ENDCHAR
STARTCHAR U+30F7
ENCODING 12535
SWIDTH 1000 0
DWIDTH 12 0
BBX 10 12 1 -2
BITMAP
0280
0140
0000
FF80
8080
8080
0080
0100
0100
0200
0400
1800
ENDCHAR
STARTCHAR U+30F8
ENCODING 12536
SWIDTH 1000 0
DWIDTH 12 0
BBX 11 12 0 -2
BITMAP
0140
00A0
0100
0100
7FC0
1100
1100
1100
FFE0
0100
0100
0100
ENDCHAR
STARTCHAR U+30F9
ENCODING 12537
SWIDTH 1000 0
DWIDTH 12 0
BBX 11 12 0 -2
BITMAP
0140
00A0
0000
7FC0
0040
0480
0500
0400
0400
0400
0400
FFE0
ENDCHAR
STARTCHAR U+30FA
ENCODING 12538
SWIDTH 1000 0
DWIDTH 12 0
BBX 10 12 1 -2
BITMAP
0280
0140
0000
FF00
0100
0100
FE00
0200
0400
0800
1000
6000
ENDCHAR
STARTCHAR U+30FB
ENCODING 12539
SWIDTH 1000 0
DWIDTH 12 0
BBX 2 2 4 3
BITMAP
C0
C0
ENDCHAR
STARTCHAR U+30FC
ENCODING 12540
SWIDTH 1000 0
DWIDTH 12 0
BBX 9 1 1 4
BITMAP
FF80
ENDCHAR
STARTCHAR U+30FD
ENCODING 12541
SWIDTH 1000 0
DWIDTH 12 0
BBX 5 6 3 1
BITMAP
80
40
20
10
08
08
ENDCHAR
STARTCHAR U+30FE
ENCODING 12542
SWIDTH 1000 0
DWIDTH 12 0
BBX 7 8 3 1
BITMAP
04
12
88
40
20
10
08
08
ENDCHAR
STARTCHAR U+30FF
ENCODING 12543
SWIDTH 1000 0
DWIDTH 12 0
BBX 7 10 2 -1
BITMAP
FE
02
02
02
02
02
02
02
02
02
ENDCHAR
STARTCHAR U+3105
ENCODING 12549
SWIDTH 1000 0
DWIDTH 12 0
BBX 9 11 1 -1
BITMAP
2000
2000
4000
FF80
0080
0080
0080
0080
0080
0500
0200
ENDCHAR
STARTCHAR U+3106
ENCODING 12550
SWIDTH 1000 0
DWIDTH 12 0
BBX 8 11 1 -1
BITMAP
20
20
40
7F
01
32
0A
04
0A
31
C1
ENDCHAR
STARTCHAR U+3107
ENCODING 12551
SWIDTH 1000 0
DWIDTH 12 0
BBX 9 9 1 -1
BITMAP
FF80
8080
8080
8080
8080
8080
8080
8080
8080
ENDCHAR
STARTCHAR U+3108
ENCODING 12552
SWIDTH 1000 0
DWIDTH 12 0
BBX 10 9 1 -1
BITMAP
FFC0
4000
4000
4000
4000
4000
4000
4000
3FC0
ENDCHAR
STARTCHAR U+3109
ENCODING 12553
SWIDTH 1000 0
DWIDTH 12 0
BBX 10 11 0 -1
BITMAP
1000
1000
2000
3FC0
0840
0840
0840
1040
1040
2280
C100
ENDCHAR
STARTCHAR U+310A
ENCODING 12554
SWIDTH 1000 0
DWIDTH 12 0
BBX 9 11 1 -1
BITMAP
0800
0800
1000
FF80
1000
2000
2000
4200
4100
8780
F880
ENDCHAR
STARTCHAR U+310B
ENCODING 12555
SWIDTH 1000 0
DWIDTH 12 0
BBX 8 10 2 -1
BITMAP
FC
04
08
10
3F
01
01
01
0A
04
ENDCHAR
STARTCHAR U+310C
ENCODING 12556
SWIDTH 1000 0
DWIDTH 12 0
BBX 10 11 0 -1
BITMAP
0400
2400
4400
7FC0
0440
0440
0840
0840
1040
2280
C100
ENDCHAR
STARTCHAR U+310D
ENCODING 12557
SWIDTH 1000 0
DWIDTH 12 0
BBX 9 9 1 0
BITMAP
0880
1100
2200
4400
8800
4400
2200
1100
0880
ENDCHAR
STARTCHAR U+310E
ENCODING 12558
SWIDTH 1000 0
DWIDTH 12 0
BBX 10 10 1 -1
BITMAP
FFC0
1000
2000
7F80
0080
0080
0080
0080
0500
0200
ENDCHAR
STARTCHAR U+310F
ENCODING 12559
SWIDTH 1000 0
DWIDTH 12 0
BBX 11 10 0 -1
BITMAP
3FE0
2000
2000
2000
2000
2000
2000
4000
4000
8000
ENDCHAR
STARTCHAR U+3110
ENCODING 12560
SWIDTH 1000 0
DWIDTH 12 0
BBX 6 11 2 -1
BITMAP
04
84
84
84
84
8C
B4
C4
04
04
04
ENDCHAR
STARTCHAR U+3111
ENCODING 12561
SWIDTH 1000 0
DWIDTH 12 0
BBX 5 9 3 0
BITMAP
08
10
20
40
80
40
20
10
08
ENDCHAR
STARTCHAR U+3112
ENCODING 12562
SWIDTH 1000 0
DWIDTH 12 0
BBX 11 10 0 -1
BITMAP
FFE0
0400
0400
0400
0400
0400
0400
0400
0400
0400
ENDCHAR
STARTCHAR U+3113
ENCODING 12563
SWIDTH 1000 0
DWIDTH 12 0
BBX 11 11 0 -1
BITMAP
0400
0400
4440
4440
4440
4440
4440
7FC0
0400
0400
FFE0
ENDCHAR
STARTCHAR U+3114
ENCODING 12564
SWIDTH 1000 0
DWIDTH 12 0
BBX 7 11 1 -1
BITMAP
04
08
12
64
08
38
C8
08
08
08
08
ENDCHAR
STARTCHAR U+3115
ENCODING 12565
SWIDTH 1000 0
DWIDTH 12 0
BBX 10 10 0 -1
BITMAP
3FC0
0040
0040
3FC0
2000
2000
2000
4000
4000
8000
ENDCHAR
STARTCHAR U+3116
ENCODING 12566
SWIDTH 1000 0
DWIDTH 12 0
BBX 9 10 1 -1
BITMAP
FF80
8080
8080
9080
8880
8480
8080
8080
FF80
0080
ENDCHAR
STARTCHAR U+3117
ENCODING 12567
SWIDTH 1000 0
DWIDTH 12 0
BBX 9 10 1 -1
BITMAP
FF80
1080
1080
1080
1080
1280
1100
1000
1000
1000
ENDCHAR
STARTCHAR U+3118
ENCODING 12568
SWIDTH 1000 0
DWIDTH 12 0
BBX 11 11 0 -1
BITMAP
0400
0400
FFE0
0800
1000
1F80
0080
0100
0100
0200
0200
ENDCHAR
STARTCHAR U+3119
ENCODING 12569
SWIDTH 1000 0
DWIDTH 12 0
BBX 9 10 1 -1
BITMAP
0800
0800
1000
1000
2000
2000
4000
4100
8780
F880
ENDCHAR
STARTCHAR U+311A
ENCODING 12570
SWIDTH 1000 0
DWIDTH 12 0
BBX 9 10 1 -1
BITMAP
8080
4100
2200
1400
0800
0800
0800
0800
0800
0800
ENDCHAR
STARTCHAR U+311B
ENCODING 12571
SWIDTH 1000 0
DWIDTH 12 0
BBX 9 9 1 -1
BITMAP
FF80
0800
0800
3800
4000
8000
8080
4300
3C00
ENDCHAR
STARTCHAR U+311C
ENCODING 12572
SWIDTH 1000 0
DWIDTH 12 0
BBX 9 10 1 -1
BITMAP
0800
0800
FF80
0800
3800
4000
8000
8080
4300
3C00
ENDCHAR
STARTCHAR U+311D
ENCODING 12573
SWIDTH 1000 0
DWIDTH 12 0
BBX 9 10 1 -1
BITMAP
2200
2200
FF80
2200
2200
2200
2200
2400
2000
1F80
ENDCHAR
STARTCHAR U+311E
ENCODING 12574
SWIDTH 1000 0
DWIDTH 12 0
BBX 10 10 1 -1
BITMAP
FFC0
0400
4400
8400
FFC0
0840
0840
1080
2080
C100
ENDCHAR
STARTCHAR U+311F
ENCODING 12575
SWIDTH 1000 0
DWIDTH 12 0
BBX 10 9 1 -1
BITMAP
3000
D000
0800
0800
0400
0200
0100
0080
0040
ENDCHAR
STARTCHAR U+3120
ENCODING 12576
SWIDTH 1000 0
DWIDTH 12 0
BBX 10 11 1 -1
BITMAP
0800
1000
2100
4200
FC00
0800
1000
2080
4040
FFC0
0040
ENDCHAR
STARTCHAR U+3121
ENCODING 12577
SWIDTH 1000 0
DWIDTH 12 0
BBX 9 10 1 -1
BITMAP
FF80
0080
2080
1100
0A00
0400
0A00
1100
2080
C080
ENDCHAR
STARTCHAR U+3122
ENCODING 12578
SWIDTH 1000 0
DWIDTH 12 0
BBX 9 10 1 -1
BITMAP
FF00
0100
2200
4200
7F80
0080
0100
0100
0200
0200
ENDCHAR
STARTCHAR U+3123
ENCODING 12579
SWIDTH 1000 0
DWIDTH 12 0
BBX 9 10 1 -1
BITMAP
4000
4000
8000
FF80
0080
0080
0100
0100
0200
0200
ENDCHAR
STARTCHAR U+3124
ENCODING 12580
SWIDTH 1000 0
DWIDTH 12 0
BBX 10 11 1 -1
BITMAP
0800
0800
0800
FFC0
0800
0C00
0C00
1400
1400
2400
C3C0
ENDCHAR
STARTCHAR U+3125
ENCODING 12581
SWIDTH 1000 0
DWIDTH 12 0
BBX 10 10 1 -1
BITMAP
0800
0800
1000
1000
2000
2000
4000
4000
8000
FFC0
ENDCHAR
STARTCHAR U+3126
ENCODING 12582
SWIDTH 1000 0
DWIDTH 12 0
BBX 10 10 1 -1
BITMAP
2400
2400
2400
2400
2400
2400
2400
4400
4400
83C0
ENDCHAR
STARTCHAR U+3127
ENCODING 12583
SWIDTH 1000 0
DWIDTH 12 0
BBX 1 10 5 -1
BITMAP
80
80
80
80
80
80
80
80
80
80
ENDCHAR
STARTCHAR U+3128
ENCODING 12584
SWIDTH 1000 0
DWIDTH 12 0
BBX 9 10 1 -1
BITMAP
0080
4080
2100
1100
0A00
0400
0A00
1100
2080
C080
ENDCHAR
STARTCHAR U+3129
ENCODING 12585
SWIDTH 1000 0
DWIDTH 12 0
BBX 9 10 1 -1
BITMAP
8080
8080
8080
8080
8080
8080
8080
8080
FF80
0080
ENDCHAR
STARTCHAR U+31C6
ENCODING 12742
SWIDTH 1000 0
DWIDTH 12 0
BBX 10 11 1 -2
BITMAP
FFC0
0040
0040
0040
0040
0040
0040
0040
0040
0140
0080
ENDCHAR
STARTCHAR U+3220
ENCODING 12832
SWIDTH 1000 0
DWIDTH 12 0
BBX 11 12 0 -2
BITMAP
2080
4040
4040
8020
8020
BFA0
8020
8020
8020
4040
4040
2080
ENDCHAR
STARTCHAR U+3221
ENCODING 12833
SWIDTH 1000 0
DWIDTH 12 0
BBX 11 12 0 -2
BITMAP
2080
4040
4040
9F20
8020
8020
8020
8020
BFA0
4040
4040
2080
ENDCHAR
STARTCHAR U+3222
ENCODING 12834
SWIDTH 1000 0
DWIDTH 12 0
BBX 11 12 0 -2
BITMAP
2080
4040
5F40
8020
8020
9F20
8020
8020
BFA0
4040
4040
2080
ENDCHAR
STARTCHAR U+3223
ENCODING 12835
SWIDTH 1000 0
DWIDTH 12 0
BBX 11 12 0 -2
BITMAP
2080
4040
7FC0
AAA0
AAA0
ABA0
B0A0
A0A0
BFA0
60C0
4040
2080
ENDCHAR
STARTCHAR U+3224
ENCODING 12836
SWIDTH 1000 0
DWIDTH 12 0
BBX 11 12 0 -2
BITMAP
2080
4040
7F40
8820
8820
BF20
9120
9120
9120
7FC0
4040
2080
ENDCHAR
STARTCHAR U+3225
ENCODING 12837
SWIDTH 1000 0
DWIDTH 12 0
BBX 11 12 0 -2
BITMAP
2080
4840
4440
BFA0
8020
8A20
8A20
9120
A0A0
4040
4040
2080
ENDCHAR
STARTCHAR U+3226
ENCODING 12838
SWIDTH 1000 0
DWIDTH 12 0
BBX 11 12 0 -2
BITMAP
2080
4040
4840
8820
8F20
B820
8820
88A0
88A0
47C0
4040
2080
ENDCHAR
STARTCHAR U+3227
ENCODING 12839
SWIDTH 1000 0
DWIDTH 12 0
BBX 11 12 0 -2
BITMAP
2080
4040
4240
8A20
8A20
8920
9120
90A0
A0A0
4040
4040
2080
ENDCHAR
STARTCHAR U+3228
ENCODING 12840
SWIDTH 1000 0
DWIDTH 12 0
BBX 11 12 0 -2
BITMAP
2080
4040
4840
8820
BE20
8A20
8A20
92A0
92A0
61C0
4040
2080
ENDCHAR
STARTCHAR U+3229
ENCODING 12841
SWIDTH 1000 0
DWIDTH 12 0
BBX 11 12 0 -2
BITMAP
2080
4040
4440
8420
8420
BFA0
8420
8420
8420
4440
4040
2080
ENDCHAR
STARTCHAR U+3297
ENCODING 12951
SWIDTH 1000 0
DWIDTH 12 0
BBX 11 11 0 -2
BITMAP
1F00
2080
57C0
BCA0
8CA0
97A0
B220
9B20
55C0
2080
1F00
ENDCHAR
STARTCHAR U+3299
ENCODING 12953
SWIDTH 1000 0
DWIDTH 12 0
BBX 11 11 0 -2
BITMAP
1F00
2880
7440
92A0
BCA0
9520
B6A0
BC20
53C0
2080
1F00
ENDCHAR
STARTCHAR U+32C0
ENCODING 12992
SWIDTH 1000 0
DWIDTH 12 0
BBX 11 10 0 -1
BITMAP
23E0
6220
A220
23E0
2220
2220
23E0
2220
22A0
0440
ENDCHAR
STARTCHAR U+32C1
ENCODING 12993
SWIDTH 1000 0
DWIDTH 12 0
BBX 11 10 0 -1
BITMAP
73E0
8A20
8A20
0BE0
1220
2220
43E0
8220
FAA0
0440
ENDCHAR
STARTCHAR U+32C2
ENCODING 12994
SWIDTH 1000 0
DWIDTH 12 0
BBX 11 10 0 -1
BITMAP
FBE0
0A20
1220
23E0
1220
0A20
8BE0
8A20
72A0
0440
ENDCHAR
STARTCHAR U+32C3
ENCODING 12995
SWIDTH 1000 0
DWIDTH 12 0
BBX 11 10 0 -1
BITMAP
13E0
3220
5220
53E0
9220
9220
FBE0
1220
12A0
0440
ENDCHAR
STARTCHAR U+32C4
ENCODING 12996
SWIDTH 1000 0
DWIDTH 12 0
BBX 11 10 0 -1
BITMAP
FBE0
8220
8220
F3E0
0A20
0A20
0BE0
8A20
72A0
0440
ENDCHAR
STARTCHAR U+32C5
ENCODING 12997
SWIDTH 1000 0
DWIDTH 12 0
BBX 11 10 0 -1
BITMAP
73E0
8A20
8220
83E0
F220
8A20
8BE0
8A20
72A0
0440
ENDCHAR
STARTCHAR U+32C6
ENCODING 12998
SWIDTH 1000 0
DWIDTH 12 0
BBX 11 10 0 -1
BITMAP
FBE0
0A20
0A20
13E0
1220
1220
23E0
2220
22A0
0440
ENDCHAR
STARTCHAR U+32C7
ENCODING 12999
SWIDTH 1000 0
DWIDTH 12 0
BBX 11 10 0 -1
BITMAP
73E0
8A20
8A20
8BE0
7220
8A20
8BE0
8A20
72A0
0440
ENDCHAR
STARTCHAR U+32C8
ENCODING 13000
SWIDTH 1000 0
DWIDTH 12 0
BBX 11 10 0 -1
BITMAP
73E0
8A20
8A20
8BE0
7A20
0A20
0BE0
8A20
72A0
0440
ENDCHAR
STARTCHAR U+32C9
ENCODING 13001
SWIDTH 1000 0
DWIDTH 12 0
BBX 11 10 0 -1
BITMAP
4CE0
D2A0
52A0
52E0
52A0
52A0
52E0
52A0
4D20
0140
ENDCHAR
STARTCHAR U+32CA
ENCODING 13002
SWIDTH 1000 0
DWIDTH 12 0
BBX 11 10 0 -1
BITMAP
49E0
D920
4920
49E0
4920
4920
49E0
4920
4920
0240
ENDCHAR
STARTCHAR U+32CB
ENCODING 13003
SWIDTH 1000 0
DWIDTH 12 0
BBX 11 10 0 -1
BITMAP
4CE0
D2A0
42A0
42E0
44A0
48A0
50E0
50A0
5EA0
0140
ENDCHAR
STARTCHAR U+32FF
ENCODING 13055
SWIDTH 1000 0
DWIDTH 12 0
BBX 11 12 0 -2
BITMAP
2100
2600
52E0
8AA0
77A0
02A0
FAA0
2EA0
2BA0
2AE0
3200
2200
ENDCHAR
STARTCHAR U+337B
ENCODING 13179
SWIDTH 1000 0
DWIDTH 12 0
BBX 11 12 0 -2
BITMAP
0060
F840
27E0
AC40
7440
2740
FD60
2540
2540
26C0
2560
2A20
ENDCHAR
STARTCHAR U+337C
ENCODING 13180
SWIDTH 1000 0
DWIDTH 12 0
BBX 11 12 0 -2
BITMAP
1900
EE00
AAE0
AAA0
AFA0
F2A0
A6A0
BBA0
AAA0
EAE0
3AA0
2A00
ENDCHAR
STARTCHAR U+337D
ENCODING 13181
SWIDTH 1000 0
DWIDTH 12 0
BBX 11 12 0 -2
BITMAP
2000
23E0
2080
2080
F880
2280
22E0
5280
5280
5280
5280
8BE0
ENDCHAR
STARTCHAR U+337E
ENCODING 13182
SWIDTH 1000 0
DWIDTH 12 0
BBX 11 12 0 -2
BITMAP
0480
3A80
E880
A920
BDE0
EA00
A9E0
B920
E920
2B20
2DE0
5920
ENDCHAR
STARTCHAR U+337F
ENCODING 13183
SWIDTH 1000 0
DWIDTH 12 0
BBX 11 12 0 -2
BITMAP
4840
FFE0
4840
DBC0
ED60
4BA0
2240
5740
89E0
7640
4B40
FAE0
ENDCHAR
STARTCHAR U+4E00
ENCODING 19968
SWIDTH 1000 0
DWIDTH 12 0
BBX 11 1 0 4
BITMAP
FFE0
ENDCHAR
STARTCHAR U+4E01
ENCODING 19969
SWIDTH 1000 0
DWIDTH 12 0
BBX 11 11 0 -2
BITMAP
FFE0
0400
0400
0400
0400
0400
0400
0400
0400
1400
0800
ENDCHAR
STARTCHAR U+4E03
ENCODING 19971
SWIDTH 1000 0
DWIDTH 12 0
BBX 11 12 0 -2
BITMAP
0800
0800
0800
0840
0980
0E00
F800
0800
0800
0820
0820
07E0
ENDCHAR
STARTCHAR U+4E08
ENCODING 19976
SWIDTH 1000 0
DWIDTH 12 0
BBX 11 12 0 -2
BITMAP
0100
0100
0100
FFE0
0100
2100
2100
1100
0A00
0400
1B00
E0E0
ENDCHAR
STARTCHAR U+4E09
ENCODING 19977
SWIDTH 1000 0
DWIDTH 12 0
BBX 11 11 0 -2
BITMAP
7FC0
0000
0000
0000
0000
3F80
0000
0000
0000
0000
FFE0
ENDCHAR
STARTCHAR U+4E0A
ENCODING 19978
SWIDTH 1000 0
DWIDTH 12 0
BBX 11 12 0 -2
BITMAP
0800
0800
0800
0800
0800
0FC0
0800
0800
0800
0800
0800
FFE0
ENDCHAR
STARTCHAR U+4E0B
ENCODING 19979
SWIDTH 1000 0
DWIDTH 12 0
BBX 11 11 0 -2
BITMAP
FFE0
0800
0800
0A00
0900
0880
0840
0800
0800
0800
0800
ENDCHAR
STARTCHAR U+4E0D
ENCODING 19981
SWIDTH 1000 0
DWIDTH 12 0
BBX 11 11 0 -2
BITMAP
FFE0
0200
0400
0C80
1440
2420
C420
0400
0400
0400
0400
ENDCHAR
STARTCHAR U+4E10
ENCODING 19984
SWIDTH 1000 0
DWIDTH 12 0
BBX 11 11 0 -2
BITMAP
FFE0
0400
47C0
4400
4400
7FC0
0040
0040
0040
0280
0100
ENDCHAR
STARTCHAR U+4E11
ENCODING 19985
SWIDTH 1000 0
DWIDTH 12 0
BBX 11 11 0 -2
BITMAP
7F80
0880
0880
0880
0880
FFE0
1080
1080
1080
1080
FFE0
ENDCHAR
STARTCHAR U+4E14
ENCODING 19988
SWIDTH 1000 0
DWIDTH 12 0
BBX 11 11 0 -2
BITMAP
3F80
2080
2080
3F80
2080
2080
3F80
2080
2080
2080
FFE0
ENDCHAR
STARTCHAR U+4E15
ENCODING 19989
SWIDTH 1000 0
DWIDTH 12 0
BBX 11 11 0 -2
BITMAP
FFE0
0100
0200
0400
0D80
3440
C420
0400
0400
0000
FFE0
ENDCHAR
STARTCHAR U+4E16
ENCODING 19990
SWIDTH 1000 0
DWIDTH 12 0
BBX 11 12 0 -2
BITMAP
0480
2480
2480
FFE0
2480
2480
2480
2480
2780
2000
2000
3FE0
ENDCHAR
STARTCHAR U+4E18
ENCODING 19992
SWIDTH 1000 0
DWIDTH 12 0
BBX 11 11 0 -2
BITMAP
0380
3C00
2000
2000
3FC0
2100
2100
2100
2100
2100
FFE0
ENDCHAR
STARTCHAR U+4E19
ENCODING 19993
SWIDTH 1000 0
DWIDTH 12 0
BBX 11 11 0 -2
BITMAP
FFE0
0400
0400
7FC0
4440
4A40
4940
5040
4040
4140
4080
ENDCHAR
STARTCHAR U+4E1E
ENCODING 19998
SWIDTH 1000 0
DWIDTH 12 0
BBX 11 11 0 -2
BITMAP
3F80
0100
0200
7440
1680
2500
2480
4440
9420
0800
FFE0
ENDCHAR
STARTCHAR U+4E1F
ENCODING 19999
SWIDTH 1000 0
DWIDTH 12 0
BBX 11 12 0 -2
BITMAP
7FC0
0400
0400
7FC0
0400
0400
FFE0
0800
1000
2080
7FC0
0040
ENDCHAR
STARTCHAR U+4E26
ENCODING 20006
SWIDTH 1000 0
DWIDTH 12 0
BBX 11 12 0 -2
BITMAP
2080
1100
0000
FFE0
1100
1100
9120
5120
5140
1100
1100
FFE0
ENDCHAR
STARTCHAR U+4E28
ENCODING 20008
SWIDTH 1000 0
DWIDTH 12 0
BBX 1 12 5 -2
BITMAP
80
80
80
80
80
80
80
80
80
80
80
80
ENDCHAR
STARTCHAR U+4E2B
ENCODING 20011
SWIDTH 1000 0
DWIDTH 12 0
BBX 9 12 1 -2
BITMAP
8080
4100
2200
0400
0800
0800
0800
0800
0800
0800
0800
0800
ENDCHAR
STARTCHAR U+4E2D
ENCODING 20013
SWIDTH 1000 0
DWIDTH 12 0
BBX 9 12 1 -2
BITMAP
0800
0800
0800
FF80
8880
8880
8880
FF80
0800
0800
0800
0800
ENDCHAR
STARTCHAR U+4E30
ENCODING 20016
SWIDTH 1000 0
DWIDTH 12 0
BBX 11 12 0 -2
BITMAP
0400
07C0
7C00
0400
0400
3F80
0400
0400
FFE0
0400
0400
0400
ENDCHAR
STARTCHAR U+4E32
ENCODING 20018
SWIDTH 1000 0
DWIDTH 12 0
BBX 11 12 0 -2
BITMAP
0400
7FC0
4440
4440
7FC0
0400
FFE0
8420
8420
FFE0
0400
0400
ENDCHAR
STARTCHAR U+4E36
ENCODING 20022
SWIDTH 1000 0
DWIDTH 12 0
BBX 3 4 4 2
BITMAP
80
40
20
20
ENDCHAR
STARTCHAR U+4E38
ENCODING 20024
SWIDTH 1000 0
DWIDTH 12 0
BBX 11 12 0 -2
BITMAP
1000
1000
1000
FF00
1100
1100
1900
1500
2500
2120
4120
80E0
ENDCHAR
STARTCHAR U+4E39
ENCODING 20025
SWIDTH 1000 0
DWIDTH 12 0
BBX 11 12 0 -2
BITMAP
3F80
2080
2880
2480
2080
FFE0
2080
2080
2080
4080
4280
8100
ENDCHAR
STARTCHAR U+4E3B
ENCODING 20027
SWIDTH 1000 0
DWIDTH 12 0
BBX 11 12 0 -2
BITMAP
0800
0400
0000
7FC0
0400
0400
0400
3F80
0400
0400
0400
FFE0
ENDCHAR
STARTCHAR U+4E3F
ENCODING 20031
SWIDTH 1000 0
DWIDTH 12 0
BBX 4 12 3 -2
BITMAP
10
10
10
10
10
10
10
10
20
20
40
80
ENDCHAR
STARTCHAR U+4E40
ENCODING 20032
SWIDTH 1000 0
DWIDTH 12 0
BBX 11 11 0 -2
BITMAP
3000
D000
1000
1000
1000
0800
0800
0400
0200
0180
0060
ENDCHAR
STARTCHAR U+4E43
ENCODING 20035
SWIDTH 1000 0
DWIDTH 12 0
BBX 10 11 0 -2
BITMAP
7F80
1080
1080
1100
11C0
1040
2040
2040
2040
4280
8100
ENDCHAR
STARTCHAR U+4E45
ENCODING 20037
SWIDTH 1000 0
DWIDTH 12 0
BBX 11 12 0 -2
BITMAP
1000
1000
1F00
2100
4200
0200
0500
0500
0900
1080
2040
C020
ENDCHAR
STARTCHAR U+4E48
ENCODING 20040
SWIDTH 1000 0
DWIDTH 12 0
BBX 10 12 0 -2
BITMAP
0800
0800
1200
1200
2400
4400
8800
0800
1080
2040
7FC0
0040
ENDCHAR
STARTCHAR U+4E4B
ENCODING 20043
SWIDTH 1000 0
DWIDTH 12 0
BBX 11 12 0 -2
BITMAP
0800
0400
0000
7F80
0080
0100
0200
0400
0800
1000
6000
9FE0
ENDCHAR
STARTCHAR U+4E4D
ENCODING 20045
SWIDTH 1000 0
DWIDTH 12 0
BBX 11 12 0 -2
BITMAP
2000
2000
3FE0
4800
8800
0FC0
0800
0800
0FE0
0800
0800
0800
ENDCHAR
STARTCHAR U+4E4E
ENCODING 20046
SWIDTH 1000 0
DWIDTH 12 0
BBX 11 12 0 -2
BITMAP
03C0
7C00
0440
4480
2500
0400
FFE0
0400
0400
0400
1400
0800
ENDCHAR
STARTCHAR U+4E4F
ENCODING 20047
SWIDTH 1000 0
DWIDTH 12 0
BBX 11 12 0 -2
BITMAP
03C0
7C00
0800
0400
7FC0
0080
0100
0200
0400
0800
3000
CFE0
ENDCHAR
STARTCHAR U+4E52
ENCODING 20050
SWIDTH 1000 0
DWIDTH 12 0
BBX 11 12 0 -2
BITMAP
0380
3C00
2000
2000
3FC0
2100
2100
FFE0
0000
1000
2000
4000
ENDCHAR
STARTCHAR U+4E53
ENCODING 20051
SWIDTH 1000 0
DWIDTH 12 0
BBX 11 12 0 -2
BITMAP
0380
3C00
2000
2000
3FC0
2100
2100
FFE0
0000
0100
0080
0040
ENDCHAR
STARTCHAR U+4E56
ENCODING 20054
SWIDTH 1000 0
DWIDTH 12 0
BBX 11 12 0 -2
BITMAP
03C0
7C00
0400
FFE0
0400
1500
F5E0
1500
1D00
E4E0
0400
0400
ENDCHAR
STARTCHAR U+4E58
ENCODING 20056
SWIDTH 1000 0
DWIDTH 12 0
BBX 11 12 0 -2
BITMAP
03C0
7C00
0400
FFE0
1500
F5C0
1500
3500
CEE0
1500
2480
C460
ENDCHAR
STARTCHAR U+4E59
ENCODING 20057
SWIDTH 1000 0
DWIDTH 12 0
BBX 11 12 0 -2
BITMAP
FF00
0200
0400
0800
1000
2000
4000
4000
8020
8020
8020
7FE0
ENDCHAR
STARTCHAR U+4E5D
ENCODING 20061
SWIDTH 1000 0
DWIDTH 12 0
BBX 11 12 0 -2
BITMAP
1000
1000
1000
7F00
1100
1100
1100
2100
2100
4120
4120
80E0
ENDCHAR
STARTCHAR U+4E5E
ENCODING 20062
SWIDTH 1000 0
DWIDTH 12 0
BBX 11 12 0 -2
BITMAP
2000
2000
3FC0
4000
BF00
0200
0400
0800
1000
2020
2020
1FE0
ENDCHAR
STARTCHAR U+4E5F
ENCODING 20063
SWIDTH 1000 0
DWIDTH 12 0
BBX 11 12 0 -2
BITMAP
0400
0400
25C0
2E40
3440
E440
2440
2440
2400
2420
2020
1FE0
ENDCHAR
STARTCHAR U+4E69
ENCODING 20073
SWIDTH 1000 0
DWIDTH 12 0
BBX 11 12 0 -2
BITMAP
2200
2200
2200
3A00
2200
2200
FA00
8A00
8A00
8A20
FA20
89E0
ENDCHAR
STARTCHAR U+4E73
ENCODING 20083
SWIDTH 1000 0
DWIDTH 12 0
BBX 11 12 0 -2
BITMAP
0D00
F100
0100
A500
5500
0100
7D00
0900
1D00
F120
1120
30E0
ENDCHAR
STARTCHAR U+4E7E
ENCODING 20094
SWIDTH 1000 0
DWIDTH 12 0
BBX 11 12 0 -2
BITMAP
2200
FA00
23E0
FC00
8BC0
F880
8900
F900
2200
FA20
2220
21E0
ENDCHAR
STARTCHAR U+4E82
ENCODING 20098
SWIDTH 1000 0
DWIDTH 12 0
BBX 11 12 0 -2
BITMAP
0E80
F080
5480
FC80
2880
FE80
9280
AA80
FA80
AAA0
92A0
AC60
ENDCHAR
STARTCHAR U+4E86
ENCODING 20102
SWIDTH 1000 0
DWIDTH 12 0
BBX 9 11 1 -2
BITMAP
FF80
0100
0200
0400
0800
0800
0800
0800
0800
2800
1000
ENDCHAR
STARTCHAR U+4E88
ENCODING 20104
SWIDTH 1000 0
DWIDTH 12 0
BBX 11 12 0 -2
BITMAP
7FC0
0080
1100
0A00
0400
FFE0
0420
0440
0400
0400
1400
0800
ENDCHAR
STARTCHAR U+4E8B
ENCODING 20107
SWIDTH 1000 0
DWIDTH 12 0
BBX 11 12 0 -2
BITMAP
0400
FFE0
0400
3F80
2480
7FC0
0440
FFE0
0440
7FC0
1400
0800
ENDCHAR
STARTCHAR U+4E8C
ENCODING 20108
SWIDTH 1000 0
DWIDTH 12 0
BBX 11 9 0 -1
BITMAP
7FC0
0000
0000
0000
0000
0000
0000
0000
FFE0
ENDCHAR
STARTCHAR U+4E8D
ENCODING 20109
SWIDTH 1000 0
DWIDTH 12 0
BBX 11 11 0 -2
BITMAP
3F80
0000
0000
FFE0
0400
0400
0400
0400
0400
1400
0800
ENDCHAR
STARTCHAR U+4E8E
ENCODING 20110
SWIDTH 1000 0
DWIDTH 12 0
BBX 11 11 0 -2
BITMAP
7FC0
0400
0400
0400
FFE0
0400
0400
0400
0400
1400
0800
ENDCHAR
STARTCHAR U+4E91
ENCODING 20113
SWIDTH 1000 0
DWIDTH 12 0
BBX 11 11 0 -2
BITMAP
3F80
0000
0000
0000
FFE0
0800
1000
2100
4080
7FC0
0040
ENDCHAR
STARTCHAR U+4E92
ENCODING 20114
SWIDTH 1000 0
DWIDTH 12 0
BBX 11 11 0 -2
BITMAP
FFE0
1000
1000
1F80
1080
2080
2080
3F00
0100
0100
FFE0
ENDCHAR
STARTCHAR U+4E94
ENCODING 20116
SWIDTH 1000 0
DWIDTH 12 0
BBX 11 11 0 -2
BITMAP
7FC0
0400
0400
0400
7F80
0880
0880
0880
1080
1080
FFE0
ENDCHAR
STARTCHAR U+4E95
ENCODING 20117
SWIDTH 1000 0
DWIDTH 12 0
BBX 11 12 0 -2
BITMAP
1100
1100
1100
7FC0
1100
1100
1100
FFE0
1100
2100
2100
4100
ENDCHAR
STARTCHAR U+4E99
ENCODING 20121
SWIDTH 1000 0
DWIDTH 12 0
BBX 11 12 0 -2
BITMAP
FFE0
1000
1000
1F80
1080
1480
2280
2880
2500
0100
0100
FFE0
ENDCHAR
STARTCHAR U+4E9B
ENCODING 20123
SWIDTH 1000 0
DWIDTH 12 0
BBX 11 12 0 -2
BITMAP
1100
1120
5D40
5180
5100
5D20
E0E0
0000
7FC0
0000
0000
FFE0
ENDCHAR
STARTCHAR U+4E9E
ENCODING 20126
SWIDTH 1000 0
DWIDTH 12 0
BBX 11 11 0 -2
BITMAP
FFE0
1100
1100
71C0
4040
4040
71C0
1100
1100
1100
FFE0
ENDCHAR
STARTCHAR U+4E9F
ENCODING 20127
SWIDTH 1000 0
DWIDTH 12 0
BBX 11 12 0 -2
BITMAP
FFE0
1000
3C00
05E0
F420
9540
9480
F540
0620
1400
0800
FFE0
ENDCHAR
STARTCHAR U+4EA0
ENCODING 20128
SWIDTH 1000 0
DWIDTH 12 0
BBX 11 3 0 7
BITMAP
0800
0400
FFE0
ENDCHAR
STARTCHAR U+4EA1
ENCODING 20129
SWIDTH 1000 0
DWIDTH 12 0
BBX 11 12 0 -2
BITMAP
0800
0400
0000
FFE0
2000
2000
2000
2000
2000
2000
2000
1FC0
ENDCHAR
STARTCHAR U+4EA2
ENCODING 20130
SWIDTH 1000 0
DWIDTH 12 0
BBX 11 12 0 -2
BITMAP
0800
0400
FFE0
0000
1F00
1100
1100
1100
2100
2120
4120
80E0
ENDCHAR
STARTCHAR U+4EA4
ENCODING 20132
SWIDTH 1000 0
DWIDTH 12 0
BBX 11 12 0 -2
BITMAP
0800
0400
FFE0
1100
2080
4040
1100
1100
0A00
0400
1B00
E0E0
ENDCHAR
STARTCHAR U+4EA5
ENCODING 20133
SWIDTH 1000 0
DWIDTH 12 0
BBX 11 12 0 -2
BITMAP
0800
0400
FFE0
0800
1100
2140
7E40
0480
1900
6280
0C40
F020
ENDCHAR
STARTCHAR U+4EA6
ENCODING 20134
SWIDTH 1000 0
DWIDTH 12 0
BBX 11 12 0 -2
BITMAP
0800
0400
FFE0
1100
1100
5140
5120
9120
1100
1100
1500
1200
ENDCHAR
STARTCHAR U+4EA8
ENCODING 20136
SWIDTH 1000 0
DWIDTH 12 0
BBX 11 12 0 -2
BITMAP
0400
FFE0
0000
3F80
2080
3F80
0000
7F80
0100
0600
0400
1C00
ENDCHAR
STARTCHAR U+4EAB
ENCODING 20139
SWIDTH 1000 0
DWIDTH 12 0
BBX 11 12 0 -2
BITMAP
0400
FFE0
0000
3F80
2080
3F80
0000
7F80
0100
FFE0
0400
1C00
ENDCHAR
STARTCHAR U+4EAC
ENCODING 20140
SWIDTH 1000 0
DWIDTH 12 0
BBX 11 12 0 -2
BITMAP
0800
0400
FFE0
0000
3F80
2080
2080
3F80
0400
2480
5440
8820
ENDCHAR
STARTCHAR U+4EAD
ENCODING 20141
SWIDTH 1000 0
DWIDTH 12 0
BBX 11 12 0 -2
BITMAP
0400
FFE0
0000
3F80
2080
3F80
0000
FFE0
8020
3F80
0400
1C00
ENDCHAR
STARTCHAR U+4EAE
ENCODING 20142
SWIDTH 1000 0
DWIDTH 12 0
BBX 11 12 0 -2
BITMAP
0400
FFE0
0000
3F80
2080
3F80
0000
FFE0
8020
1200
2220
C1E0
ENDCHAR
STARTCHAR U+4EB3
ENCODING 20147
SWIDTH 1000 0
DWIDTH 12 0
BBX 11 12 0 -2
BITMAP
0400
FFE0
2080
3F80
0000
FFE0
81A0
3E00
0400
7FC0
0420
03E0
ENDCHAR
STARTCHAR U+4EBA
ENCODING 20154
SWIDTH 1000 0
DWIDTH 12 0
BBX 11 12 0 -2
BITMAP
0400
0400
0400
0400
0400
0A00
0A00
1100
1100
2080
4040
8020
ENDCHAR
STARTCHAR U+4EBB
ENCODING 20155
SWIDTH 1000 0
DWIDTH 12 0
BBX 4 12 3 -2
BITMAP
10
10
20
20
60
A0
20
20
20
20
20
20
ENDCHAR
STARTCHAR U+4EC0
ENCODING 20160
SWIDTH 1000 0
DWIDTH 12 0
BBX 11 12 0 -2
BITMAP
1100
1100
2100
6100
A100
2FE0
2100
2100
2100
2100
2100
2100
ENDCHAR
STARTCHAR U+4EC1
ENCODING 20161
SWIDTH 1000 0
DWIDTH 12 0
BBX 11 12 0 -2
BITMAP
1000
1000
27C0
6000
A000
2000
2000
2000
2000
2000
2FE0
2000
ENDCHAR
STARTCHAR U+4EC3
ENCODING 20163
SWIDTH 1000 0
DWIDTH 12 0
BBX 11 12 0 -2
BITMAP
1000
1FE0
2100
6100
A100
2100
2100
2100
2100
2100
2500
2200
ENDCHAR
STARTCHAR U+4EC4
ENCODING 20164
SWIDTH 1000 0
DWIDTH 12 0
BBX 11 11 0 -2
BITMAP
7FE0
4000
4200
4200
4200
4500
4500
4880
4880
5040
A020
ENDCHAR
STARTCHAR U+4EC6
ENCODING 20166
SWIDTH 1000 0
DWIDTH 12 0
BBX 11 12 0 -2
BITMAP
1200
1200
2200
6280
A240
2220
2220
2200
2200
2200
2200
2200
ENDCHAR
STARTCHAR U+4EC7
ENCODING 20167
SWIDTH 1000 0
DWIDTH 12 0
BBX 11 12 0 -2
BITMAP
1200
1200
2200
6F80
A280
2280
2280
2480
2480
28A0
28A0
3060
ENDCHAR
STARTCHAR U+4ECA
ENCODING 20170
SWIDTH 1000 0
DWIDTH 12 0
BBX 11 12 0 -2
BITMAP
0400
0400
0A00
1100
2080
DF60
0000
3F80
0080
0100
0200
0400
ENDCHAR
STARTCHAR U+4ECB
ENCODING 20171
SWIDTH 1000 0
DWIDTH 12 0
BBX 11 12 0 -2
BITMAP
0400
0400
0A00
1100
2080
D160
1100
1100
1100
2100
2100
4100
ENDCHAR
STARTCHAR U+4ECD
ENCODING 20173
SWIDTH 1000 0
DWIDTH 12 0
BBX 11 12 0 -2
BITMAP
1000
1FC0
2240
6240
A280
2280
22E0
2220
2420
2420
2540
2880
ENDCHAR
STARTCHAR U+4ED4
ENCODING 20180
SWIDTH 1000 0
DWIDTH 12 0
BBX 11 12 0 -2
BITMAP
1000
17C0
2040
6080
A100
2FE0
2100
2100
2100
2100
2500
2200
ENDCHAR
STARTCHAR U+4ED5
ENCODING 20181
SWIDTH 1000 0
DWIDTH 12 0
BBX 11 12 0 -2
BITMAP
1100
1100
2100
6100
A100
2FE0
2100
2100
2100
2100
2100
27C0
ENDCHAR
STARTCHAR U+4ED6
ENCODING 20182
SWIDTH 1000 0
DWIDTH 12 0
BBX 11 12 0 -2
BITMAP
1100
1100
2500
25E0
6F20
A520
2520
2540
2500
2420
2420
23E0
ENDCHAR
STARTCHAR U+4ED7
ENCODING 20183
SWIDTH 1000 0
DWIDTH 12 0
BBX 11 12 0 -2
BITMAP
1080
1080
2080
6FE0
A080
2480
2480
2280
2100
2100
2280
2C60
ENDCHAR
STARTCHAR U+4ED8
ENCODING 20184
SWIDTH 1000 0
DWIDTH 12 0
BBX 11 12 0 -2
BITMAP
1080
1080
2080
6FE0
A080
2480
2280
2280
2080
2080
2280
2100
ENDCHAR
STARTCHAR U+4ED9
ENCODING 20185
SWIDTH 1000 0
DWIDTH 12 0
BBX 11 12 0 -2
BITMAP
1100
1100
2100
6100
A920
2920
2920
2920
2920
2920
2FE0
2020
ENDCHAR
STARTCHAR U+4EDE
ENCODING 20190
SWIDTH 1000 0
DWIDTH 12 0
BBX 11 12 0 -2
BITMAP
1000
17E0
2120
6120
A520
2320
2120
2120
2220
2220
24A0
2840
ENDCHAR
STARTCHAR U+4EDF
ENCODING 20191
SWIDTH 1000 0
DWIDTH 12 0
BBX 11 12 0 -2
BITMAP
10C0
1700
2100
6100
A100
2FE0
2100
2100
2100
2100
2100
2100
ENDCHAR
STARTCHAR U+4EE3
ENCODING 20195
SWIDTH 1000 0
DWIDTH 12 0
BBX 11 12 0 -2
BITMAP
1280
1240
2200
62E0
AF00
2200
2200
2100
2100
20A0
2060
2020
ENDCHAR
STARTCHAR U+4EE4
ENCODING 20196
SWIDTH 1000 0
DWIDTH 12 0
BBX 11 12 0 -2
BITMAP
0400
0400
0A00
1100
2E80
C060
3F80
0080
0100
0A00
0400
0200
ENDCHAR
STARTCHAR U+4EE5
ENCODING 20197
SWIDTH 1000 0
DWIDTH 12 0
BBX 11 12 0 -2
BITMAP
4080
4880
4480
4480
4080
4080
4080
4940
5140
E220
0420
1820
ENDCHAR
STARTCHAR U+4EF0
ENCODING 20208
SWIDTH 1000 0
DWIDTH 12 0
BBX 11 12 0 -2
BITMAP
1000
1200
2DE0
6920
A920
2920
2920
2B20
2DA0
2940
2100
2100
ENDCHAR
STARTCHAR U+4EF2
ENCODING 20210
SWIDTH 1000 0
DWIDTH 12 0
BBX 11 12 0 -2
BITMAP
1100
1100
2100
6FE0
A920
2920
2920
2FE0
2100
2100
2100
2100
ENDCHAR
STARTCHAR U+4EF3
ENCODING 20211
SWIDTH 1000 0
DWIDTH 12 0
BBX 11 12 0 -2
BITMAP
1480
1480
2480
6480
A6E0
2480
2480
2480
2480
24A0
26A0
2460
ENDCHAR
STARTCHAR U+4EF6
ENCODING 20214
SWIDTH 1000 0
DWIDTH 12 0
BBX 11 12 0 -2
BITMAP
1100
1100
2500
67C0
A900
2100
2FE0
2100
2100
2100
2100
2100
ENDCHAR
STARTCHAR U+4EFB
ENCODING 20219
SWIDTH 1000 0
DWIDTH 12 0
BBX 11 12 0 -2
BITMAP
1000
17C0
2100
6100
A100
2100
2FE0
2100
2100
2100
2100
27C0
ENDCHAR
STARTCHAR U+4EFC
ENCODING 20220
SWIDTH 1000 0
DWIDTH 12 0
BBX 11 12 0 -2
BITMAP
1000
17E0
2100
6100
A100
2100
27C0
2100
2100
2100
2100
2FE0
ENDCHAR
STARTCHAR U+4EFD
ENCODING 20221
SWIDTH 1000 0
DWIDTH 12 0
BBX 11 12 0 -2
BITMAP
1080
1280
2240
6440
A820
27C0
2240
2240
2240
2440
2540
2880
ENDCHAR
STARTCHAR U+4EFF
ENCODING 20223
SWIDTH 1000 0
DWIDTH 12 0
BBX 11 12 0 -2
BITMAP
1200
1100
2FE0
6200
A200
23C0
2240
2240
2440
2440
2540
2880
ENDCHAR
STARTCHAR U+4F01
ENCODING 20225
SWIDTH 1000 0
DWIDTH 12 0
BBX 11 12 0 -2
BITMAP
0400
0400
0A00
1100
2480
C460
0400
2780
2400
2400
2400
FFE0
ENDCHAR
STARTCHAR U+4F09
ENCODING 20233
SWIDTH 1000 0
DWIDTH 12 0
BBX 11 12 0 -2
BITMAP
1200
1100
2FE0
6000
A000
2780
2480
2480
2480
24A0
24A0
2860
ENDCHAR
STARTCHAR U+4F0A
ENCODING 20234
SWIDTH 1000 0
DWIDTH 12 0
BBX 11 12 0 -2
BITMAP
1000
17C0
2240
6240
AFE0
2240
2240
27C0
2200
2200
2400
2800
ENDCHAR
STARTCHAR U+4F0B
ENCODING 20235
SWIDTH 1000 0
DWIDTH 12 0
BBX 11 12 0 -2
BITMAP
1000
1F80
2480
6480
A500
25C0
2440
2A40
2A80
2900
2A80
3460
ENDCHAR
STARTCHAR U+4F0D
ENCODING 20237
SWIDTH 1000 0
DWIDTH 12 0
BBX 11 12 0 -2
BITMAP
1000
1FE0
2200
6200
A200
2FC0
2240
2240
2440
2440
2440
2FE0
ENDCHAR
STARTCHAR U+4F0F
ENCODING 20239
SWIDTH 1000 0
DWIDTH 12 0
BBX 11 12 0 -2
BITMAP
1140
1120
2100
6FE0
A100
2100
2280
2280
2280
2440
2440
2820
ENDCHAR
STARTCHAR U+4F10
ENCODING 20240
SWIDTH 1000 0
DWIDTH 12 0
BBX 11 12 0 -2
BITMAP
1280
1240
2200
63E0
BE00
2220
2240
2180
2100
22A0
2460
2820
ENDCHAR
STARTCHAR U+4F11
ENCODING 20241
SWIDTH 1000 0
DWIDTH 12 0
BBX 11 12 0 -2
BITMAP
1100
1100
2100
6FE0
A100
2380
2380
2540
2540
2920
2100
2100
ENDCHAR
STARTCHAR U+4F15
ENCODING 20245
SWIDTH 1000 0
DWIDTH 12 0
BBX 11 12 0 -2
BITMAP
1100
1100
2100
67C0
A100
2100
2FE0
2100
2280
2280
2440
2820
ENDCHAR
STARTCHAR U+4F19
ENCODING 20249
SWIDTH 1000 0
DWIDTH 12 0
BBX 11 12 0 -2
BITMAP
1100
1100
2100
6920
A520
2540
2100
2280
2280
2440
2440
2820
ENDCHAR
STARTCHAR U+4F2F
ENCODING 20271
SWIDTH 1000 0
DWIDTH 12 0
BBX 11 12 0 -2
BITMAP
1100
1200
2FE0
6820
A820
2820
2FE0
2820
2820
2820
2FE0
2820
ENDCHAR
STARTCHAR U+4F30
ENCODING 20272
SWIDTH 1000 0
DWIDTH 12 0
BBX 11 12 0 -2
BITMAP
1100
1100
2100
6FE0
A100
2100
27C0
2440
2440
2440
27C0
2440
ENDCHAR
STARTCHAR U+4F34
ENCODING 20276
SWIDTH 1000 0
DWIDTH 12 0
BBX 11 12 0 -2
BITMAP
1100
1540
2380
6100
A7C0
2100
2100
2FE0
2100
2100
2100
2100
ENDCHAR
STARTCHAR U+4F36
ENCODING 20278
SWIDTH 1000 0
DWIDTH 12 0
BBX 11 12 0 -2
BITMAP
1100
1100
2280
6440
ABA0
2000
27C0
2040
2080
2500
2200
2100
ENDCHAR
STARTCHAR U+4F38
ENCODING 20280
SWIDTH 1000 0
DWIDTH 12 0
BBX 11 12 0 -2
BITMAP
1100
1100
2FE0
6920
A920
2FE0
2920
2920
2FE0
2100
2100
2100
ENDCHAR
STARTCHAR U+4F3A
ENCODING 20282
SWIDTH 1000 0
DWIDTH 12 0
BBX 11 12 0 -2
BITMAP
1000
17E0
2020
67A0
A020
27A0
24A0
24A0
27A0
2020
20A0
2040
ENDCHAR
STARTCHAR U+4F3C
ENCODING 20284
SWIDTH 1000 0
DWIDTH 12 0
BBX 11 12 0 -2
BITMAP
2040
2840
4A40
4940
C940
4840
4840
4840
4A40
5CA0
4120
4620
ENDCHAR
STARTCHAR U+4F3D
ENCODING 20285
SWIDTH 1000 0
DWIDTH 12 0
BBX 11 12 0 -2
BITMAP
2800
2800
48E0
5EA0
CAA0
4AA0
4AA0
4AA0
4AA0
4AE0
52A0
5400
ENDCHAR
STARTCHAR U+4F43
ENCODING 20291
SWIDTH 1000 0
DWIDTH 12 0
BBX 11 12 0 -2
BITMAP
1000
1FE0
2920
6920
A920
2FE0
2920
2920
2920
2920
2FE0
2820
ENDCHAR
STARTCHAR U+4F46
ENCODING 20294
SWIDTH 1000 0
DWIDTH 12 0
BBX 11 12 0 -2
BITMAP
1000
17C0
2440
6440
A7C0
2440
2440
2440
27C0
2000
2000
2FE0
ENDCHAR
STARTCHAR U+4F47
ENCODING 20295
SWIDTH 1000 0
DWIDTH 12 0
BBX 11 12 0 -2
BITMAP
1200
1100
2FE0
6820
A000
2FE0
2100
2100
2100
2100
2500
2200
ENDCHAR
STARTCHAR U+4F48
ENCODING 20296
SWIDTH 1000 0
DWIDTH 12 0
BBX 11 12 0 -2
BITMAP
1200
1200
2FE0
6200
A500
27E0
2D20
2520
2520
2520
2540
2100
ENDCHAR
STARTCHAR U+4F4D
ENCODING 20301
SWIDTH 1000 0
DWIDTH 12 0
BBX 11 12 0 -2
BITMAP
1200
1100
2000
6FE0
A000
2440
2440
2240
2280
2280
2080
2FE0
ENDCHAR
STARTCHAR U+4F4E
ENCODING 20302
SWIDTH 1000 0
DWIDTH 12 0
BBX 11 12 0 -2
BITMAP
10C0
1F00
2900
6900
A900
2FE0
2900
2880
2A80
2CA0
2060
2720
ENDCHAR
STARTCHAR U+4F4F
ENCODING 20303
SWIDTH 1000 0
DWIDTH 12 0
BBX 11 12 0 -2
BITMAP
1200
1100
2000
6FE0
A100
2100
2100
27C0
2100
2100
2100
2FE0
ENDCHAR
STARTCHAR U+4F50
ENCODING 20304
SWIDTH 1000 0
DWIDTH 12 0
BBX 11 12 0 -2
BITMAP
1200
1200
2200
6FE0
A200
2200
25C0
2480
2480
2880
2080
27E0
ENDCHAR
STARTCHAR U+4F51
ENCODING 20305
SWIDTH 1000 0
DWIDTH 12 0
BBX 11 12 0 -2
BITMAP
1200
1200
2200
6FE0
A200
2400
27C0
2C40
3440
2440
27C0
2440
ENDCHAR
STARTCHAR U+4F54
ENCODING 20308
SWIDTH 1000 0
DWIDTH 12 0
BBX 11 12 0 -2
BITMAP
1200
1200
23E0
6200
A200
2200
2FC0
2840
2840
2840
2FC0
2840
ENDCHAR
STARTCHAR U+4F55
ENCODING 20309
SWIDTH 1000 0
DWIDTH 12 0
BBX 11 12 0 -2
BITMAP
1000
17E0
2040
6040
A740
2540
2540
2740
2040
2040
2140
2080
ENDCHAR
STARTCHAR U+4F57
ENCODING 20311
SWIDTH 1000 0
DWIDTH 12 0
BBX 11 12 0 -2
BITMAP
1200
1100
2FE0
6820
A400
2440
2480
2700
2400
2420
2420
23E0
ENDCHAR
STARTCHAR U+4F59
ENCODING 20313
SWIDTH 1000 0
DWIDTH 12 0
BBX 11 12 0 -2
BITMAP
0400
0A00
1100
2080
DF60
0400
7FC0
0400
2480
4440
9440
0800
ENDCHAR
STARTCHAR U+4F5A
ENCODING 20314
SWIDTH 1000 0
DWIDTH 12 0
BBX 11 12 0 -2
BITMAP
1100
1100
2500
67C0
A900
2100
2FE0
2100
2280
2280
2440
2820
ENDCHAR
STARTCHAR U+4F5B
ENCODING 20315
SWIDTH 1000 0
DWIDTH 12 0
BBX 11 12 0 -2
BITMAP
1280
1280
2FE0
62A0
AFE0
2A80
2A80
2FE0
22A0
24A0
24C0
2880
ENDCHAR
STARTCHAR U+4F5C
ENCODING 20316
SWIDTH 1000 0
DWIDTH 12 0
BBX 11 12 0 -2
BITMAP
1400
1400
27E0
6A00
A200
23C0
2200
2200
23E0
2200
2200
2200
ENDCHAR
STARTCHAR U+4F5D
ENCODING 20317
SWIDTH 1000 0
DWIDTH 12 0
BBX 11 12 0 -2
BITMAP
1400
1400
27E0
6820
A7A0
24A0
24A0
24A0
27A0
2020
2140
2080
ENDCHAR
STARTCHAR U+4F5E
ENCODING 20318
SWIDTH 1000 0
DWIDTH 12 0
BBX 11 12 0 -2
BITMAP
1000
17C0
2000
6FE0
A200
2240
2FE0
2240
2440
2480
2300
2CC0
ENDCHAR
STARTCHAR U+4F60
ENCODING 20320
SWIDTH 1000 0
DWIDTH 12 0
BBX 11 12 0 -2
BITMAP
1400
1400
27E0
6920
B140
2100
2540
2520
2920
2100
2500
2200
ENDCHAR
STARTCHAR U+4F63
ENCODING 20323
SWIDTH 1000 0
DWIDTH 12 0
BBX 11 12 0 -2
BITMAP
2000
2FE0
4920
4920
CFE0
4920
4920
4FE0
4920
4920
4920
4840
ENDCHAR
STARTCHAR U+4F69
ENCODING 20329
SWIDTH 1000 0
DWIDTH 12 0
BBX 11 12 0 -2
BITMAP
2000
3FC0
5040
5FC0
D240
5FC0
5AC0
5AC0
5B40
5240
5260
6020
ENDCHAR
STARTCHAR U+4F6C
ENCODING 20332
SWIDTH 1000 0
DWIDTH 12 0
BBX 11 12 0 -2
BITMAP
1200
1240
2F80
6280
BFE0
2200
2440
3C80
2700
2400
2420
23E0
ENDCHAR
STARTCHAR U+4F6F
ENCODING 20335
SWIDTH 1000 0
DWIDTH 12 0
BBX 11 12 0 -2
BITMAP
1440
1280
2FE0
6100
A100
27C0
2100
2100
2FE0
2100
2100
2100
ENDCHAR
STARTCHAR U+4F70
ENCODING 20336
SWIDTH 1000 0
DWIDTH 12 0
BBX 11 12 0 -2
BITMAP
1000
1FE0
2200
6FC0
A840
2840
2FC0
2840
2840
2840
2FC0
2840
ENDCHAR
STARTCHAR U+4F73
ENCODING 20339
SWIDTH 1000 0
DWIDTH 12 0
BBX 11 12 0 -2
BITMAP
1100
1100
27C0
6100
A100
2FE0
2100
2100
27C0
2100
2100
2FE0
ENDCHAR
STARTCHAR U+4F75
ENCODING 20341
SWIDTH 1000 0
DWIDTH 12 0
BBX 11 12 0 -2
BITMAP
1420
1240
2000
67E0
A240
2240
27E0
2240
2240
2440
2440
2840
ENDCHAR
STARTCHAR U+4F7A
ENCODING 20346
SWIDTH 1000 0
DWIDTH 12 0
BBX 11 12 0 -2
BITMAP
1700
1100
2280
6440
A820
27C0
2100
2100
27C0
2100
2100
2FE0
ENDCHAR
STARTCHAR U+4F7B
ENCODING 20347
SWIDTH 1000 0
DWIDTH 12 0
BBX 11 12 0 -2
BITMAP
2500
2500
5540
4D80
C500
4500
4D80
5540
4500
4920
4920
50E0
ENDCHAR
STARTCHAR U+4F7E
ENCODING 20350
SWIDTH 1000 0
DWIDTH 12 0
BBX 11 12 0 -2
BITMAP
1080
1280
2440
6820
A7C0
2440
27C0
2440
27C0
2440
2540
2480
ENDCHAR
STARTCHAR U+4F7F
ENCODING 20351
SWIDTH 1000 0
DWIDTH 12 0
BBX 11 12 0 -2
BITMAP
1100
1100
2FE0
6100
AFE0
2920
2FE0
2100
2500
2200
2580
2860
ENDCHAR
STARTCHAR U+4F83
ENCODING 20355
SWIDTH 1000 0
DWIDTH 12 0
BBX 11 12 0 -2
BITMAP
2000
2FC0
4840
4840
C840
4FC0
4000
4A80
4A80
4AA0
4AA0
5260
ENDCHAR
STARTCHAR U+4F86
ENCODING 20358
SWIDTH 1000 0
DWIDTH 12 0
BBX 11 12 0 -2
BITMAP
0400
0400
FFE0
0400
2480
2480
5540
0E00
1500
2480
C460
0400
ENDCHAR
STARTCHAR U+4F88
ENCODING 20360
SWIDTH 1000 0
DWIDTH 12 0
BBX 11 12 0 -2
BITMAP
1200
13C0
2440
6A80
A100
2280
2DE0
2220
2540
2880
2300
2C00
ENDCHAR
STARTCHAR U+4F8B
ENCODING 20363
SWIDTH 1000 0
DWIDTH 12 0
BBX 11 12 0 -2
BITMAP
2020
3F20
48A0
48A0
CEA0
52A0
5AA0
64A0
44A0
4420
48A0
5040
ENDCHAR
STARTCHAR U+4F8D
ENCODING 20365
SWIDTH 1000 0
DWIDTH 12 0
BBX 11 12 0 -2
BITMAP
1100
1100
27C0
6100
AFE0
2040
2FE0
2040
2440
2240
2040
2180
ENDCHAR
STARTCHAR U+4F8F
ENCODING 20367
SWIDTH 1000 0
DWIDTH 12 0
BBX 11 12 0 -2
BITMAP
1100
1500
27C0
6900
A100
2FE0
2100
2100
2380
2540
2920
2100
ENDCHAR
STARTCHAR U+4F91
ENCODING 20369
SWIDTH 1000 0
DWIDTH 12 0
BBX 11 12 0 -2
BITMAP
1200
1200
2FE0
6200
A7C0
2C40
37C0
2440
27C0
2440
2540
2480
ENDCHAR
STARTCHAR U+4F96
ENCODING 20374
SWIDTH 1000 0
DWIDTH 12 0
BBX 11 12 0 -2
BITMAP
0400
0A00
3180
DF60
0000
7FC0
4A40
4A40
7FC0
4A40
4A40
4080
ENDCHAR
STARTCHAR U+4F9B
ENCODING 20379
SWIDTH 1000 0
DWIDTH 12 0
BBX 11 12 0 -2
BITMAP
1480
1480
2480
6FC0
A480
2480
2480
3FE0
2000
2480
2840
3020
ENDCHAR
STARTCHAR U+4F9D
ENCODING 20381
SWIDTH 1000 0
DWIDTH 12 0
BBX 11 12 0 -2
BITMAP
1200
1100
2FE0
6100
A200
2220
2520
2D40
3480
2480
2640
2420
ENDCHAR
STARTCHAR U+4FAE
ENCODING 20398
SWIDTH 1000 0
DWIDTH 12 0
BBX 11 12 0 -2
BITMAP
2800
2FE0
5000
4FC0
CA40
4940
4FE0
5440
5240
5FE0
4040
4180
ENDCHAR
STARTCHAR U+4FAF
ENCODING 20399
SWIDTH 1000 0
DWIDTH 12 0
BBX 11 12 0 -2
BITMAP
1000
17C0
2040
6FE0
A400
27C0
2900
2100
2FE0
2280
2440
2820
ENDCHAR
STARTCHAR U+4FB5
ENCODING 20405
SWIDTH 1000 0
DWIDTH 12 0
BBX 11 12 0 -2
BITMAP
17C0
1040
2FE0
6040
A7C0
2000
2FE0
2820
27C0
2440
2380
2C60
ENDCHAR
STARTCHAR U+4FB6
ENCODING 20406
SWIDTH 1000 0
DWIDTH 12 0
BBX 11 12 0 -2
BITMAP
1000
17C0
2440
6440
A7C0
2200
2FE0
2820
2820
2820
2FE0
2820
ENDCHAR
STARTCHAR U+4FB7
ENCODING 20407
SWIDTH 1000 0
DWIDTH 12 0
BBX 11 12 0 -2
BITMAP
1000
1FC0
2840
6FC0
A800
2FE0
2820
2BA0
2AA0
2BA0
2820
30C0
ENDCHAR
STARTCHAR U+4FBF
ENCODING 20415
SWIDTH 1000 0
DWIDTH 12 0
BBX 11 12 0 -2
BITMAP
1000
1FE0
2100
6FE0
A920
2FE0
2920
2FE0
2100
2500
2300
2CE0
ENDCHAR
STARTCHAR U+4FC2
ENCODING 20418
SWIDTH 1000 0
DWIDTH 12 0
BBX 11 12 0 -2
BITMAP
10C0
1700
2200
6480
AF00
2200
2440
2FE0
2120
2540
2920
2300
ENDCHAR
STARTCHAR U+4FC3
ENCODING 20419
SWIDTH 1000 0
DWIDTH 12 0
BBX 11 12 0 -2
BITMAP
17C0
1440
2440
6440
A7C0
2100
2900
29E0
2900
2D00
2B00
30E0
ENDCHAR
STARTCHAR U+4FC4
ENCODING 20420
SWIDTH 1000 0
DWIDTH 12 0
BBX 11 12 0 -2
BITMAP
2300
2D40
4520
4500
DFE0
4500
4520
46C0
5C80
45A0
5660
4820
ENDCHAR
STARTCHAR U+4FCA
ENCODING 20426
SWIDTH 1000 0
DWIDTH 12 0
BBX 11 12 0 -2
BITMAP
1200
1440
2FE0
6280
A4E0
2A00
23C0
2440
2A80
2100
2280
2C60
ENDCHAR
STARTCHAR U+4FCE
ENCODING 20430
SWIDTH 1000 0
DWIDTH 12 0
BBX 11 12 0 -2
BITMAP
2000
27C0
2440
5440
57C0
8440
2440
27C0
5440
5440
8440
0FE0
ENDCHAR
STARTCHAR U+4FCF
ENCODING 20431
SWIDTH 1000 0
DWIDTH 12 0
BBX 11 12 0 -2
BITMAP
1100
1920
2540
6100
AFE0
2820
2FE0
2820
2FE0
2820
28A0
2840
ENDCHAR
STARTCHAR U+4FD0
ENCODING 20432
SWIDTH 1000 0
DWIDTH 12 0
BBX 11 12 0 -2
BITMAP
1220
1CA0
24A0
64A0
AEA0
24A0
2CA0
36A0
24A0
2420
24A0
2440
ENDCHAR
STARTCHAR U+4FD1
ENCODING 20433
SWIDTH 1000 0
DWIDTH 12 0
BBX 11 12 0 -2
BITMAP
17C0
1040
2280
6100
AFE0
2920
2FE0
2920
2FE0
2920
2920
28C0
ENDCHAR
STARTCHAR U+4FD7
ENCODING 20439
SWIDTH 1000 0
DWIDTH 12 0
BBX 11 12 0 -2
BITMAP
1000
1280
2440
6920
A280
2440
2820
27C0
2440
2440
27C0
2440
ENDCHAR
STARTCHAR U+4FD8
ENCODING 20440
SWIDTH 1000 0
DWIDTH 12 0
BBX 11 12 0 -2
BITMAP
10C0
1700
2A20
6540
A000
2FC0
2080
2100
2FE0
2100
2500
2200
ENDCHAR
STARTCHAR U+4FDA
ENCODING 20442
SWIDTH 1000 0
DWIDTH 12 0
BBX 11 12 0 -2
BITMAP
1000
17C0
2540
67C0
A540
2540
27C0
2100
27C0
2100
2100
2FE0
ENDCHAR
STARTCHAR U+4FDD
ENCODING 20445
SWIDTH 1000 0
DWIDTH 12 0
BBX 11 12 0 -2
BITMAP
1000
17C0
2440
6440
A440
27C0
2100
2FE0
2100
2380
2540
2920
ENDCHAR
STARTCHAR U+4FDE
ENCODING 20446
SWIDTH 1000 0
DWIDTH 12 0
BBX 11 12 0 -2
BITMAP
0400
0A00
3180
DF60
0000
7840
4A40
7A40
4A40
7A40
4840
5180
ENDCHAR
STARTCHAR U+4FDF
ENCODING 20447
SWIDTH 1000 0
DWIDTH 12 0
BBX 11 12 0 -2
BITMAP
1100
1200
2440
6FE0
A420
27C0
2900
2100
2FE0
2280
2440
2820
ENDCHAR
STARTCHAR U+4FE0
ENCODING 20448
SWIDTH 1000 0
DWIDTH 12 0
BBX 11 12 0 -2
BITMAP
1100
1100
2FE0
6100
A540
2540
2BA0
2100
2280
2280
2440
2820
ENDCHAR
STARTCHAR U+4FE1
ENCODING 20449
SWIDTH 1000 0
DWIDTH 12 0
BBX 11 12 0 -2
BITMAP
1200
1100
2FE0
6000
A7C0
2000
27C0
2000
27C0
2440
27C0
2440
ENDCHAR
STARTCHAR U+4FEE
ENCODING 20462
SWIDTH 1000 0
DWIDTH 12 0
BBX 11 12 0 -2
BITMAP
2200
23E0
4440
5380
D460
5100
5640
5080
5720
5040
4080
4700
ENDCHAR
STARTCHAR U+4FEF
ENCODING 20463
SWIDTH 1000 0
DWIDTH 12 0
BBX 11 12 0 -2
BITMAP
2200
2100
5FE0
5240
D240
55E0
5C40
5540
54C0
5440
5540
6480
ENDCHAR
STARTCHAR U+4FF1
ENCODING 20465
SWIDTH 1000 0
DWIDTH 12 0
BBX 11 12 0 -2
BITMAP
1000
17C0
2440
67C0
A440
27C0
2440
27C0
2440
2FE0
2440
2820
ENDCHAR
STARTCHAR U+4FF3
ENCODING 20467
SWIDTH 1000 0
DWIDTH 12 0
BBX 11 12 0 -2
BITMAP
1280
1280
2EE0
6280
A280
2EE0
2280
2280
26E0
2A80
2280
2480
ENDCHAR
STARTCHAR U+4FF8
ENCODING 20472
SWIDTH 1000 0
DWIDTH 12 0
BBX 11 12 0 -2
BITMAP
1100
17E0
2100
67C0
A200
2FE0
2540
2BA0
2100
27C0
2100
2100
ENDCHAR
STARTCHAR U+4FFA
ENCODING 20474
SWIDTH 1000 0
DWIDTH 12 0
BBX 11 12 0 -2
BITMAP
1200
1200
2FC0
6480
AA60
3F80
2A80
2F80
2A80
2F80
2220
21E0
ENDCHAR
STARTCHAR U+4FFE
ENCODING 20478
SWIDTH 1000 0
DWIDTH 12 0
BBX 11 12 0 -2
BITMAP
1200
1FC0
2A40
6FC0
AA40
2FC0
2400
2900
3FE0
2100
2100
2100
ENDCHAR
STARTCHAR U+5000
ENCODING 20480
SWIDTH 1000 0
DWIDTH 12 0
BBX 11 12 0 -2
BITMAP
17C0
1400
2780
6400
A780
2400
2FC0
2520
2540
2480
2640
2420
ENDCHAR
STARTCHAR U+5006
ENCODING 20486
SWIDTH 1000 0
DWIDTH 12 0
BBX 11 12 0 -2
BITMAP
1000
1FE0
2100
6100
AFE0
2920
2DA0
2B60
2DA0
2920
2920
2840
ENDCHAR
STARTCHAR U+5009
ENCODING 20489
SWIDTH 1000 0
DWIDTH 12 0
BBX 11 12 0 -2
BITMAP
0400
1B00
E0E0
3F80
2080
3F80
2080
3F80
2000
5FC0
9040
1FC0
ENDCHAR
STARTCHAR U+500B
ENCODING 20491
SWIDTH 1000 0
DWIDTH 12 0
BBX 11 12 0 -2
BITMAP
1000
1FE0
2920
6920
AFE0
2920
2BA0
2AA0
2BA0
2820
2FE0
2820
ENDCHAR
STARTCHAR U+500C
ENCODING 20492
SWIDTH 1000 0
DWIDTH 12 0
BBX 11 12 0 -2
BITMAP
1200
1100
2FE0
6820
A780
2480
2780
2400
27C0
2440
27C0
2440
ENDCHAR
STARTCHAR U+500D
ENCODING 20493
SWIDTH 1000 0
DWIDTH 12 0
BBX 11 12 0 -2
BITMAP
1200
1100
2FE0
6440
A280
2FE0
2000
27C0
2440
2440
27C0
2440
ENDCHAR
STARTCHAR U+500F
ENCODING 20495
SWIDTH 1000 0
DWIDTH 12 0
BBX 11 12 0 -2
BITMAP
2200
23E0
5440
5380
DC60
5100
5140
5FE0
5100
5280
4440
4820
ENDCHAR
STARTCHAR U+5011
ENCODING 20497
SWIDTH 1000 0
DWIDTH 12 0
BBX 11 12 0 -2
BITMAP
1000
1EE0
2AA0
6EE0
AAA0
2EE0
2820
2820
2820
2820
28A0
2840
ENDCHAR
STARTCHAR U+5012
ENCODING 20498
SWIDTH 1000 0
DWIDTH 12 0
BBX 11 12 0 -2
BITMAP
2020
3EA0
48A0
D0A0
5EA0
4AA0
48A0
5EA0
48A0
4E20
58A0
4040
ENDCHAR
STARTCHAR U+5014
ENCODING 20500
SWIDTH 1000 0
DWIDTH 12 0
BBX 11 12 0 -2
BITMAP
2000
2FE0
4820
4FE0
C880
4AA0
4AA0
4BE0
4880
4AA0
4AA0
53E0
ENDCHAR
STARTCHAR U+5016
ENCODING 20502
SWIDTH 1000 0
DWIDTH 12 0
BBX 11 12 0 -2
BITMAP
1100
1100
27C0
6100
AFE0
2440
2280
27C0
2100
2FE0
2100
2100
ENDCHAR
STARTCHAR U+5018
ENCODING 20504
SWIDTH 1000 0
DWIDTH 12 0
BBX 11 12 0 -2
BITMAP
1100
1920
2540
6100
AFE0
2820
2BA0
2AA0
2BA0
2820
28A0
2840
ENDCHAR
STARTCHAR U+5019
ENCODING 20505
SWIDTH 1000 0
DWIDTH 12 0
BBX 11 12 0 -2
BITMAP
2000
2780
5080
5FE0
D400
57C0
5900
5100
5FE0
5280
4440
4820
ENDCHAR
STARTCHAR U+501A
ENCODING 20506
SWIDTH 1000 0
DWIDTH 12 0
BBX 11 12 0 -2
BITMAP
1100
1100
27C0
6280
A440
2FE0
2040
2740
2540
2740
2040
2180
ENDCHAR
STARTCHAR U+501F
ENCODING 20511
SWIDTH 1000 0
DWIDTH 12 0
BBX 11 12 0 -2
BITMAP
1280
1280
27C0
6280
AFE0
2000
27C0
2440
27C0
2440
27C0
2440
ENDCHAR
STARTCHAR U+5021
ENCODING 20513
SWIDTH 1000 0
DWIDTH 12 0
BBX 11 12 0 -2
BITMAP
17C0
1440
27C0
6440
A7C0
2000
2FE0
2820
2FA0
2820
2FE0
2820
ENDCHAR
STARTCHAR U+5023
ENCODING 20515
SWIDTH 1000 0
DWIDTH 12 0
BBX 11 12 0 -2
BITMAP
2880
2480
5EE0
4920
C8A0
4EA0
4AA0
4A40
4A40
4AA0
52A0
5520
ENDCHAR
STARTCHAR U+5025
ENCODING 20517
SWIDTH 1000 0
DWIDTH 12 0
BBX 11 12 0 -2
BITMAP
1200
1100
2FE0
6AA0
A280
2460
2800
27C0
2100
2100
2100
2FE0
ENDCHAR
STARTCHAR U+5026
ENCODING 20518
SWIDTH 1000 0
DWIDTH 12 0
BBX 11 12 0 -2
BITMAP
1920
1540
2100
6FE0
A200
2FE0
2440
2FA0
3480
2500
2420
23E0
ENDCHAR
STARTCHAR U+5028
ENCODING 20520
SWIDTH 1000 0
DWIDTH 12 0
BBX 11 12 0 -2
BITMAP
1000
1FE0
2820
6FE0
A880
2FE0
2880
2BE0
2A20
2A20
2BE0
3220
ENDCHAR
STARTCHAR U+5029
ENCODING 20521
SWIDTH 1000 0
DWIDTH 12 0
BBX 11 12 0 -2
BITMAP
1100
17E0
2100
67C0
A100
2FE0
2440
27C0
2440
27C0
2440
2480
ENDCHAR
STARTCHAR U+502A
ENCODING 20522
SWIDTH 1000 0
DWIDTH 12 0
BBX 11 12 0 -2
BITMAP
1200
1CE0
2820
6EE0
A820
2820
2FE0
2280
2280
24A0
24A0
2860
ENDCHAR
STARTCHAR U+502B
ENCODING 20523
SWIDTH 1000 0
DWIDTH 12 0
BBX 11 12 0 -2
BITMAP
1100
1280
2440
6820
A7C0
2000
2FE0
2AA0
2FE0
2AA0
2AA0
2840
ENDCHAR
STARTCHAR U+502D
ENCODING 20525
SWIDTH 1000 0
DWIDTH 12 0
BBX 11 12 0 -2
BITMAP
10C0
1700
2100
6FE0
A540
2920
2200
2FE0
2440
2480
2300
2CC0
ENDCHAR
STARTCHAR U+5036
ENCODING 20534
SWIDTH 1000 0
DWIDTH 12 0
BBX 11 12 0 -2
BITMAP
1000
17C0
2440
67C0
A440
27C0
2440
27C0
2000
2FE0
2440
2820
ENDCHAR
STARTCHAR U+503C
ENCODING 20540
SWIDTH 1000 0
DWIDTH 12 0
BBX 11 12 0 -2
BITMAP
1100
17E0
2100
67C0
A440
27C0
2440
27C0
2440
27C0
2440
2FE0
ENDCHAR
STARTCHAR U+5043
ENCODING 20547
SWIDTH 1000 0
DWIDTH 12 0
BBX 11 12 0 -2
BITMAP
1000
1FE0
2A40
6BC0
AA40
2BC0
2900
2FE0
2A40
2980
2A40
27E0
ENDCHAR
STARTCHAR U+5047
ENCODING 20551
SWIDTH 1000 0
DWIDTH 12 0
BBX 11 12 0 -2
BITMAP
2000
3DC0
5440
5440
DDC0
5000
5DC0
5040
5D40
5080
5140
5220
ENDCHAR
STARTCHAR U+5049
ENCODING 20553
SWIDTH 1000 0
DWIDTH 12 0
BBX 11 12 0 -2
BITMAP
1200
17C0
2240
6FE0
A440
27C0
2080
2FE0
2480
27E0
2080
2080
ENDCHAR
STARTCHAR U+504C
ENCODING 20556
SWIDTH 1000 0
DWIDTH 12 0
BBX 11 12 0 -2
BITMAP
1440
1440
2EE0
6440
A100
2FE0
2200
27C0
2A40
2240
23C0
2240
ENDCHAR
STARTCHAR U+504E
ENCODING 20558
SWIDTH 1000 0
DWIDTH 12 0
BBX 11 12 0 -2
BITMAP
17C0
1540
27C0
6540
A7C0
2000
2FE0
2520
2540
2480
2640
2420
ENDCHAR
STARTCHAR U+504F
ENCODING 20559
SWIDTH 1000 0
DWIDTH 12 0
BBX 11 12 0 -2
BITMAP
1100
1FE0
2820
6FE0
A800
2FE0
2AA0
3AA0
2FE0
2AA0
2AA0
2840
ENDCHAR
STARTCHAR U+5055
ENCODING 20565
SWIDTH 1000 0
DWIDTH 12 0
BBX 11 12 0 -2
BITMAP
2880
2EE0
4880
4AA0
CC60
4200
4FC0
4840
4FC0
4840
4FC0
4840
ENDCHAR
STARTCHAR U+505A
ENCODING 20570
SWIDTH 1000 0
DWIDTH 12 0
BBX 11 12 0 -2
BITMAP
2900
2900
49E0
5E40
C940
4940
5D40
5480
5480
5D40
4240
4420
ENDCHAR
STARTCHAR U+505C
ENCODING 20572
SWIDTH 1000 0
DWIDTH 12 0
BBX 11 12 0 -2
BITMAP
1100
17E0
2000
67C0
A440
27C0
2000
2FE0
2820
27C0
2100
2300
ENDCHAR
STARTCHAR U+5065
ENCODING 20581
SWIDTH 1000 0
DWIDTH 12 0
BBX 11 12 0 -2
BITMAP
2100
3BC0
4940
4BE0
D140
53C0
5900
4B80
4900
5BC0
4900
57E0
ENDCHAR
STARTCHAR U+506D
ENCODING 20589
SWIDTH 1000 0
DWIDTH 12 0
BBX 11 12 0 -2
BITMAP
1000
1FE0
2100
6FE0
AAA0
2BA0
2AA0
2BA0
2AA0
2AA0
2FE0
2820
ENDCHAR
STARTCHAR U+506F
ENCODING 20591
SWIDTH 1000 0
DWIDTH 12 0
BBX 11 12 0 -2
BITMAP
1100
1FE0
2000
6FC0
A840
2840
2FC0
2220
2540
3C80
2660
2400
ENDCHAR
STARTCHAR U+5074
ENCODING 20596
SWIDTH 1000 0
DWIDTH 12 0
BBX 11 12 0 -2
BITMAP
2020
3EA0
52A0
DEA0
52A0
5EA0
52A0
52A0
5EA0
4020
4CA0
5240
ENDCHAR
STARTCHAR U+5075
ENCODING 20597
SWIDTH 1000 0
DWIDTH 12 0
BBX 11 12 0 -2
BITMAP
1200
13E0
2200
6FC0
A840
2FC0
2840
2FC0
2840
2FC0
2480
2840
ENDCHAR
STARTCHAR U+5076
ENCODING 20598
SWIDTH 1000 0
DWIDTH 12 0
BBX 11 12 0 -2
BITMAP
1000
17C0
2540
67C0
A540
27C0
2100
2FE0
2920
2BA0
28A0
2840
ENDCHAR
STARTCHAR U+5077
ENCODING 20599
SWIDTH 1000 0
DWIDTH 12 0
BBX 11 12 0 -2
BITMAP
1100
1280
2440
6BA0
A000
2EA0
2AA0
2EA0
2AA0
2E20
2AA0
2A40
ENDCHAR
STARTCHAR U+507A
ENCODING 20602
SWIDTH 1000 0
DWIDTH 12 0
BBX 11 12 0 -2
BITMAP
1480
1680
2AC0
6AA0
A480
2BE0
2000
27C0
2440
27C0
2440
27C0
ENDCHAR
STARTCHAR U+507D
ENCODING 20605
SWIDTH 1000 0
DWIDTH 12 0
BBX 11 12 0 -2
BITMAP
2A00
2200
5F80
4480
C7C0
4840
4FE0
5020
6AA0
4AA0
5020
40C0
ENDCHAR
STARTCHAR U+5080
ENCODING 20608
SWIDTH 1000 0
DWIDTH 12 0
BBX 11 12 0 -2
BITMAP
1100
1200
27C0
6540
A7C0
2540
27C0
22A0
22E0
2280
24A0
2860
ENDCHAR
STARTCHAR U+5085
ENCODING 20613
SWIDTH 1000 0
DWIDTH 12 0
BBX 11 12 0 -2
BITMAP
1140
1FE0
2540
67C0
A540
27C0
2540
2080
2FE0
2480
2280
2100
ENDCHAR
STARTCHAR U+508D
ENCODING 20621
SWIDTH 1000 0
DWIDTH 12 0
BBX 11 12 0 -2
BITMAP
1100
1FE0
2440
6280
AFE0
2920
27C0
2200
23C0
2440
2540
2880
ENDCHAR
STARTCHAR U+5091
ENCODING 20625
SWIDTH 1000 0
DWIDTH 12 0
BBX 11 12 0 -2
BITMAP
1440
16E0
2B40
6540
A5E0
2840
2100
2FE0
2380
2540
2920
2100
ENDCHAR
STARTCHAR U+5096
ENCODING 20630
SWIDTH 1000 0
DWIDTH 12 0
BBX 11 12 0 -2
BITMAP
1100
1280
2440
6FE0
A440
27C0
2440
27C0
2400
27C0
2A40
23C0
ENDCHAR
STARTCHAR U+5098
ENCODING 20632
SWIDTH 1000 0
DWIDTH 12 0
BBX 11 12 0 -2
BITMAP
0400
0A00
3180
C460
2480
5540
0400
2480
5540
0400
FFE0
0400
ENDCHAR
STARTCHAR U+5099
ENCODING 20633
SWIDTH 1000 0
DWIDTH 12 0
BBX 11 12 0 -2
BITMAP
1240
17E0
2240
6FE0
A400
2FE0
3920
2FE0
2920
2FE0
2920
2940
ENDCHAR
STARTCHAR U+509A
ENCODING 20634
SWIDTH 1000 0
DWIDTH 12 0
BBX 11 12 0 -2
BITMAP
2900
2500
5FE0
4240
D540
6340
4140
5540
5480
4880
5540
6220
ENDCHAR
STARTCHAR U+50A2
ENCODING 20642
SWIDTH 1000 0
DWIDTH 12 0
BBX 11 12 0 -2
BITMAP
1200
1100
2FE0
6820
A7C0
2200
2D20
2340
2CA0
23A0
2C80
2300
ENDCHAR
STARTCHAR U+50AC
ENCODING 20652
SWIDTH 1000 0
DWIDTH 12 0
BBX 11 12 0 -2
BITMAP
1100
1920
2FE0
6500
AFE0
3900
2FC0
2900
2FC0
2900
2FE0
2800
ENDCHAR
STARTCHAR U+50AD
ENCODING 20653
SWIDTH 1000 0
DWIDTH 12 0
BBX 11 12 0 -2
BITMAP
2100
3FE0
5100
57C0
D140
5FE0
5140
57C0
5540
57C0
5540
6480
ENDCHAR
STARTCHAR U+50AF
ENCODING 20655
SWIDTH 1000 0
DWIDTH 12 0
BBX 11 12 0 -2
BITMAP
1200
1FE0
2A20
6BA0
AEA0
2920
2AA0
2FE0
2200
2940
34A0
2380
ENDCHAR
STARTCHAR U+50B2
ENCODING 20658
SWIDTH 1000 0
DWIDTH 12 0
BBX 11 12 0 -2
BITMAP
2900
3F00
49E0
5E40
C140
4940
7F40
5080
5C80
5540
5540
6A20
ENDCHAR
STARTCHAR U+50B3
ENCODING 20659
SWIDTH 1000 0
DWIDTH 12 0
BBX 11 12 0 -2
BITMAP
1100
1FE0
2540
67C0
A540
27C0
2120
2FE0
2040
2FE0
2440
22C0
ENDCHAR
STARTCHAR U+50B5
ENCODING 20661
SWIDTH 1000 0
DWIDTH 12 0
BBX 11 12 0 -2
BITMAP
1100
17E0
2100
67C0
A100
2FE0
2440
27C0
2440
27C0
2280
2C40
ENDCHAR
STARTCHAR U+50B7
ENCODING 20663
SWIDTH 1000 0
DWIDTH 12 0
BBX 11 12 0 -2
BITMAP
1400
17E0
2800
67C0
A440
27C0
2440
2FE0
2400
27E0
2AA0
2540
ENDCHAR
STARTCHAR U+50BB
ENCODING 20667
SWIDTH 1000 0
DWIDTH 12 0
BBX 11 12 0 -2
BITMAP
1200
1FE0
2AA0
6920
AAA0
2FE0
2440
2A60
27C0
2C40
2380
2C60
ENDCHAR
STARTCHAR U+50BE
ENCODING 20670
SWIDTH 1000 0
DWIDTH 12 0
BBX 11 12 0 -2
BITMAP
2000
23E0
5080
53E0
DA20
53E0
5220
53E0
5A20
53E0
4140
4620
ENDCHAR
STARTCHAR U+50C5
ENCODING 20677
SWIDTH 1000 0
DWIDTH 12 0
BBX 11 12 0 -2
BITMAP
1280
1FE0
2280
6380
A100
27C0
2540
2FE0
2100
27C0
2100
2FE0
ENDCHAR
STARTCHAR U+50C7
ENCODING 20679
SWIDTH 1000 0
DWIDTH 12 0
BBX 11 12 0 -2
BITMAP
16E0
1AA0
2660
6AA0
A760
2280
2D60
2680
2120
2640
2180
2E00
ENDCHAR
STARTCHAR U+50CE
ENCODING 20686
SWIDTH 1000 0
DWIDTH 12 0
BBX 11 12 0 -2
BITMAP
2EE0
2AA0
4EE0
4880
C660
4000
4480
4FC0
4480
5FE0
4840
5020
ENDCHAR
STARTCHAR U+50CF
ENCODING 20687
SWIDTH 1000 0
DWIDTH 12 0
BBX 11 12 0 -2
BITMAP
2400
2780
4900
5FC0
D240
5FC0
4440
5A80
4580
5B40
4520
5A00
ENDCHAR
STARTCHAR U+50D1
ENCODING 20689
SWIDTH 1000 0
DWIDTH 12 0
BBX 11 12 0 -2
BITMAP
10C0
1700
2200
6FE0
A440
2BA0
2280
2FE0
2BA0
2AA0
2BA0
2840
ENDCHAR
STARTCHAR U+50D5
ENCODING 20693
SWIDTH 1000 0
DWIDTH 12 0
BBX 11 12 0 -2
BITMAP
1280
16A0
2280
6FE0
A440
2FE0
2100
27C0
2100
2FE0
2280
2C60
ENDCHAR
STARTCHAR U+50D6
ENCODING 20694
SWIDTH 1000 0
DWIDTH 12 0
BBX 11 12 0 -2
BITMAP
1100
1FE0
2100
67C0
A440
27C0
2280
2FE0
2000
27C0
2440
27C0
ENDCHAR
STARTCHAR U+50DA
ENCODING 20698
SWIDTH 1000 0
DWIDTH 12 0
BBX 11 12 0 -2
BITMAP
1100
17C0
2AA0
6440
AFE0
2440
27C0
2440
27C0
2100
2540
2B20
ENDCHAR
STARTCHAR U+50E3
ENCODING 20707
SWIDTH 1000 0
DWIDTH 12 0
BBX 11 12 0 -2
BITMAP
1440
1EE0
2440
6EE0
A440
2AA0
27C0
2440
2740
2440
27C0
2440
ENDCHAR
STARTCHAR U+50E5
ENCODING 20709
SWIDTH 1000 0
DWIDTH 12 0
BBX 11 12 0 -2
BITMAP
1100
17C0
2100
6FE0
A440
2EE0
2440
2EE0
2000
2FC0
22A0
2C60
ENDCHAR
STARTCHAR U+50E7
ENCODING 20711
SWIDTH 1000 0
DWIDTH 12 0
BBX 11 12 0 -2
BITMAP
1440
1280
2FE0
6920
ABA0
2FE0
2000
27C0
2440
2740
2440
27C0
ENDCHAR
STARTCHAR U+50E9
ENCODING 20713
SWIDTH 1000 0
DWIDTH 12 0
BBX 11 12 0 -2
BITMAP
2EE0
2AA0
4EE0
4AA0
CEE0
4BA0
4AA0
4BA0
4AA0
4BA0
4AA0
4AC0
ENDCHAR
STARTCHAR U+50ED
ENCODING 20717
SWIDTH 1000 0
DWIDTH 12 0
BBX 11 12 0 -2
BITMAP
2000
2EE0
5540
5DE0
CEC0
5560
4000
4FC0
4840
4F40
4840
4FC0
ENDCHAR
STARTCHAR U+50EE
ENCODING 20718
SWIDTH 1000 0
DWIDTH 12 0
BBX 11 12 0 -2
BITMAP
1100
17C0
2280
6FE0
A540
27C0
2540
27C0
2100
27C0
2100
2FE0
ENDCHAR
STARTCHAR U+50F1
ENCODING 20721
SWIDTH 1000 0
DWIDTH 12 0
BBX 11 12 0 -2
BITMAP
2100
3FE0
5020
5FE0
D280
53E0
5480
5FC0
5480
57C0
5480
67E0
ENDCHAR
STARTCHAR U+50F5
ENCODING 20725
SWIDTH 1000 0
DWIDTH 12 0
BBX 11 12 0 -2
BITMAP
1000
1FE0
2540
67C0
A540
2FE0
2000
27C0
2540
27C0
2540
2FE0
ENDCHAR
STARTCHAR U+50F9
ENCODING 20729
SWIDTH 1000 0
DWIDTH 12 0
BBX 11 12 0 -2
BITMAP
17E0
1280
2FE0
6AA0
AFE0
2440
27C0
2440
27C0
2440
2380
2C60
ENDCHAR
STARTCHAR U+50FB
ENCODING 20731
SWIDTH 1000 0
DWIDTH 12 0
BBX 11 12 0 -2
BITMAP
2100
3C80
57E0
5620
DD40
53E0
5080
5C80
77E0
5480
5C80
4080
ENDCHAR
STARTCHAR U+5100
ENCODING 20736
SWIDTH 1000 0
DWIDTH 12 0
BBX 11 12 0 -2
BITMAP
1440
1FE0
2100
67C0
A100
2FE0
2480
2FE0
2480
2EC0
25A0
2C60
ENDCHAR
STARTCHAR U+5102
ENCODING 20738
SWIDTH 1000 0
DWIDTH 12 0
BBX 11 12 0 -2
BITMAP
1280
1FE0
2AA0
6FE0
AAA0
2FE0
2000
2FE0
2800
2FE0
2A80
3360
ENDCHAR
STARTCHAR U+5104
ENCODING 20740
SWIDTH 1000 0
DWIDTH 12 0
BBX 11 12 0 -2
BITMAP
1100
17C0
2280
6FE0
A440
27C0
2440
27C0
2000
2540
24A0
2BA0
ENDCHAR
STARTCHAR U+5105
ENCODING 20741
SWIDTH 1000 0
DWIDTH 12 0
BBX 11 12 0 -2
BITMAP
1920
1540
2FE0
6820
A7C0
2440
2FE0
2920
2FE0
2920
2FE0
2820
ENDCHAR
STARTCHAR U+5108
ENCODING 20744
SWIDTH 1000 0
DWIDTH 12 0
BBX 11 12 0 -2
BITMAP
1380
1440
2BA0
6000
AFE0
2920
2B60
2FE0
2440
2740
2440
27C0
ENDCHAR
STARTCHAR U+5109
ENCODING 20745
SWIDTH 1000 0
DWIDTH 12 0
BBX 11 12 0 -2
BITMAP
1100
1280
2440
6BA0
A000
2EE0
2AA0
2EE0
2000
2440
2440
2AA0
ENDCHAR
STARTCHAR U+5110
ENCODING 20752
SWIDTH 1000 0
DWIDTH 12 0
BBX 11 12 0 -2
BITMAP
1100
1FE0
2820
6780
A940
2380
2C40
27C0
2440
27C0
2280
2C40
ENDCHAR
STARTCHAR U+5112
ENCODING 20754
SWIDTH 1000 0
DWIDTH 12 0
BBX 11 12 0 -2
BITMAP
17C0
1100
2FE0
6920
A6C0
2000
2FE0
2100
2FE0
2AA0
2AA0
2840
ENDCHAR
STARTCHAR U+5114
ENCODING 20756
SWIDTH 1000 0
DWIDTH 12 0
BBX 11 12 0 -2
BITMAP
2200
2FE0
4200
4FC0
C000
5FE0
4220
5FC0
4040
5FE0
5540
5CC0
ENDCHAR
STARTCHAR U+5115
ENCODING 20757
SWIDTH 1000 0
DWIDTH 12 0
BBX 11 12 0 -2
BITMAP
1100
17E0
2280
6D60
A540
2540
2B60
2440
27C0
2440
27C0
2840
ENDCHAR
STARTCHAR U+5118
ENCODING 20760
SWIDTH 1000 0
DWIDTH 12 0
BBX 11 12 0 -2
BITMAP
1100
17C0
2140
6FE0
A140
27C0
2100
27C0
2AA0
27C0
2540
2FE0
ENDCHAR
STARTCHAR U+511F
ENCODING 20767
SWIDTH 1000 0
DWIDTH 12 0
BBX 11 12 0 -2
BITMAP
1540
1FE0
2820
6380
A280
27C0
2440
27C0
2440
27C0
2280
2C40
ENDCHAR
STARTCHAR U+5121
ENCODING 20769
SWIDTH 1000 0
DWIDTH 12 0
BBX 11 12 0 -2
BITMAP
17C0
1540
27C0
6540
A7C0
2000
2EE0
2AA0
2EE0
2AA0
2EE0
2AA0
ENDCHAR
STARTCHAR U+512A
ENCODING 20778
SWIDTH 1000 0
DWIDTH 12 0
BBX 11 12 0 -2
BITMAP
17E0
1100
27C0
6440
A7C0
2440
2FE0
2A20
23C0
2440
2380
2C60
ENDCHAR
STARTCHAR U+5132
ENCODING 20786
SWIDTH 1000 0
DWIDTH 12 0
BBX 11 12 0 -2
BITMAP
2880
20A0
5DC0
4080
DDE0
4100
5DE0
4320
5DE0
5520
5DE0
5520
ENDCHAR
STARTCHAR U+5133
ENCODING 20787
SWIDTH 1000 0
DWIDTH 12 0
BBX 11 12 0 -2
BITMAP
2800
2F80
5080
7FC0
D040
5FC0
48A0
5FE0
7240
5FC0
4520
58E0
ENDCHAR
STARTCHAR U+5137
ENCODING 20791
SWIDTH 1000 0
DWIDTH 12 0
BBX 11 12 0 -2
BITMAP
2EE0
2000
4EE0
4AA0
C100
4FE0
4A80
4FE0
4AA0
4FE0
4A40
5360
ENDCHAR
STARTCHAR U+5138
ENCODING 20792
SWIDTH 1000 0
DWIDTH 12 0
BBX 11 12 0 -2
BITMAP
2000
2FE0
4AA0
4FE0
C540
49E0
5540
4BE0
5540
5DE0
4140
55E0
ENDCHAR
STARTCHAR U+513B
ENCODING 20795
SWIDTH 1000 0
DWIDTH 12 0
BBX 11 12 0 -2
BITMAP
1540
1FE0
2820
67C0
A440
2FE0
2920
2BA0
2FE0
2100
2FE0
2AA0
ENDCHAR
STARTCHAR U+513C
ENCODING 20796
SWIDTH 1000 0
DWIDTH 12 0
BBX 11 12 0 -2
BITMAP
2EE0
2AA0
4EE0
4000
DFE0
5280
5FE0
5520
57A0
55A0
5F40
61A0
ENDCHAR
STARTCHAR U+513F
ENCODING 20799
SWIDTH 1000 0
DWIDTH 12 0
BBX 11 12 0 -2
BITMAP
1200
1200
1200
1200
1200
1200
1200
1200
2200
2220
4220
81E0
ENDCHAR
STARTCHAR U+5140
ENCODING 20800
SWIDTH 1000 0
DWIDTH 12 0
BBX 11 11 0 -2
BITMAP
FFE0
1200
1200
1200
1200
1200
1200
2200
2220
4220
81E0
ENDCHAR
STARTCHAR U+5141
ENCODING 20801
SWIDTH 1000 0
DWIDTH 12 0
BBX 11 12 0 -2
BITMAP
0400
0800
1000
2080
7FC0
1240
1200
1200
2200
2220
4220
81E0
ENDCHAR
STARTCHAR U+5143
ENCODING 20803
SWIDTH 1000 0
DWIDTH 12 0
BBX 11 11 0 -2
BITMAP
7FC0
0000
0000
FFE0
1200
1200
1200
2200
2220
4220
81E0
ENDCHAR
STARTCHAR U+5144
ENCODING 20804
SWIDTH 1000 0
DWIDTH 12 0
BBX 11 11 0 -2
BITMAP
3F80
2080
2080
2080
2080
3F80
0A00
0A00
1220
2220
C1E0
ENDCHAR
STARTCHAR U+5145
ENCODING 20805
SWIDTH 1000 0
DWIDTH 12 0
BBX 11 12 0 -2
BITMAP
0800
0400
FFE0
0800
1100
2080
7FC0
1240
1200
2220
4220
81E0
ENDCHAR
STARTCHAR U+5146
ENCODING 20806
SWIDTH 1000 0
DWIDTH 12 0
BBX 11 12 0 -2
BITMAP
1200
9240
5280
3300
1200
3300
5280
9240
2200
2220
4220
81E0
ENDCHAR
STARTCHAR U+5147
ENCODING 20807
SWIDTH 1000 0
DWIDTH 12 0
BBX 11 12 0 -2
BITMAP
1100
4A40
4440
4A40
5140
4040
7FC0
1200
1200
1220
2220
C1E0
ENDCHAR
STARTCHAR U+5148
ENCODING 20808
SWIDTH 1000 0
DWIDTH 12 0
BBX 11 12 0 -2
BITMAP
0400
2400
3F80
4400
0400
FFE0
1200
1200
1200
2220
4220
81E0
ENDCHAR
STARTCHAR U+5149
ENCODING 20809
SWIDTH 1000 0
DWIDTH 12 0
BBX 11 12 0 -2
BITMAP
0400
4440
2480
1500
0400
FFE0
1200
1200
1200
2220
2220
C1E0
ENDCHAR
STARTCHAR U+514B
ENCODING 20811
SWIDTH 1000 0
DWIDTH 12 0
BBX 11 12 0 -2
BITMAP
0400
0400
7FC0
0400
3F80
2080
2080
3F80
1200
1220
2220
C1E0
ENDCHAR
STARTCHAR U+514C
ENCODING 20812
SWIDTH 1000 0
DWIDTH 12 0
BBX 11 12 0 -2
BITMAP
1100
2080
4040
BFA0
2080
2080
3F80
1200
1200
1220
2220
C1E0
ENDCHAR
STARTCHAR U+514D
ENCODING 20813
SWIDTH 1000 0
DWIDTH 12 0
BBX 11 12 0 -2
BITMAP
1000
3F80
4100
8200
7FC0
4440
4440
7FC0
0A00
0A20
1220
E1E0
ENDCHAR
STARTCHAR U+5152
ENCODING 20818
SWIDTH 1000 0
DWIDTH 12 0
BBX 11 12 0 -2
BITMAP
0800
73C0
4040
73C0
4040
4040
7FC0
1200
1200
1220
2220
C1E0
ENDCHAR
STARTCHAR U+5154
ENCODING 20820
SWIDTH 1000 0
DWIDTH 12 0
BBX 11 12 0 -2
BITMAP
1000
3F80
4100
8200
7FC0
4440
4440
7FC0
0A00
0A80
1220
E1E0
ENDCHAR
STARTCHAR U+5155
ENCODING 20821
SWIDTH 1000 0
DWIDTH 12 0
BBX 11 11 0 -2
BITMAP
7BC0
4A40
4E40
4040
4040
7FC0
1200
1200
1220
2220
C1E0
ENDCHAR
STARTCHAR U+5157
ENCODING 20823
SWIDTH 1000 0
DWIDTH 12 0
BBX 11 12 0 -2
BITMAP
0800
0400
FFE0
2080
4040
BFA0
2080
2080
3F80
1200
2220
C1E0
ENDCHAR
STARTCHAR U+515C
ENCODING 20828
SWIDTH 1000 0
DWIDTH 12 0
BBX 11 12 0 -2
BITMAP
0400
2EC0
4A40
4E40
6A40
4EC0
0000
0A00
0A00
1220
2220
C1E0
ENDCHAR
STARTCHAR U+5162
ENCODING 20834
SWIDTH 1000 0
DWIDTH 12 0
BBX 11 12 0 -2
BITMAP
2100
FBC0
2100
FBC0
8A40
8A40
FBC0
5280
5280
52A0
5AA0
9460
ENDCHAR
STARTCHAR U+5165
ENCODING 20837
SWIDTH 1000 0
DWIDTH 12 0
BBX 11 12 0 -2
BITMAP
3C00
0400
0400
0400
0A00
0A00
0A00
1100
1100
2080
4040
8020
ENDCHAR
STARTCHAR U+5167
ENCODING 20839
SWIDTH 1000 0
DWIDTH 12 0
BBX 9 12 1 -2
BITMAP
7800
0800
0800
FF80
8880
9480
9480
A280
C180
8080
8280
8100
ENDCHAR
STARTCHAR U+5168
ENCODING 20840
SWIDTH 1000 0
DWIDTH 12 0
BBX 11 12 0 -2
BITMAP
3C00
0A00
1100
2080
C060
3F80
0400
0400
3F80
0400
0400
FFE0
ENDCHAR
STARTCHAR U+5169
ENCODING 20841
SWIDTH 1000 0
DWIDTH 12 0
BBX 11 11 0 -2
BITMAP
FFE0
0400
0400
FFE0
8420
B5A0
94A0
AD60
C620
8420
84C0
ENDCHAR
STARTCHAR U+516B
ENCODING 20843
SWIDTH 1000 0
DWIDTH 12 0
BBX 11 12 0 -2
BITMAP
0200
0200
1200
1200
1200
1200
1100
2100
2080
4080
4040
8020
ENDCHAR
STARTCHAR U+516C
ENCODING 20844
SWIDTH 1000 0
DWIDTH 12 0
BBX 11 12 0 -2
BITMAP
1100
1100
2080
2080
4440
8420
0800
0800
1080
2040
7FC0
0040
ENDCHAR
STARTCHAR U+516D
ENCODING 20845
SWIDTH 1000 0
DWIDTH 12 0
BBX 11 12 0 -2
BITMAP
0800
0400
0400
0000
FFE0
0000
1200
1100
2080
2080
4040
8040
ENDCHAR
STARTCHAR U+516E
ENCODING 20846
SWIDTH 1000 0
DWIDTH 12 0
BBX 11 12 0 -2
BITMAP
0100
1100
1080
2080
5F40
8820
1000
1F80
0080
0080
0500
0200
ENDCHAR
STARTCHAR U+5171
ENCODING 20849
SWIDTH 1000 0
DWIDTH 12 0
BBX 11 12 0 -2
BITMAP
1100
1100
1100
7FC0
1100
1100
1100
FFE0
0000
1100
2080
4040
ENDCHAR
STARTCHAR U+5175
ENCODING 20853
SWIDTH 1000 0
DWIDTH 12 0
BBX 11 12 0 -2
BITMAP
0380
3C00
2000
2000
3FC0
2100
2100
FFE0
0000
1100
2080
4040
ENDCHAR
STARTCHAR U+5176
ENCODING 20854
SWIDTH 1000 0
DWIDTH 12 0
BBX 11 12 0 -2
BITMAP
2080
2080
7FC0
2080
3F80
2080
3F80
2080
FFE0
0000
2080
4040
ENDCHAR
STARTCHAR U+5177
ENCODING 20855
SWIDTH 1000 0
DWIDTH 12 0
BBX 11 12 0 -2
BITMAP
3F80
2080
3F80
2080
3F80
2080
3F80
2080
FFE0
1100
2080
4040
ENDCHAR
STARTCHAR U+5178
ENCODING 20856
SWIDTH 1000 0
DWIDTH 12 0
BBX 11 12 0 -2
BITMAP
0A00
0A00
7FC0
4A40
4A40
7FC0
4A40
4A40
FFE0
2080
4040
8020
ENDCHAR
STARTCHAR U+517C
ENCODING 20860
SWIDTH 1000 0
DWIDTH 12 0
BBX 11 12 0 -2
BITMAP
2080
1100
FFE0
0A00
3F80
0A80
FFE0
0A80
3F80
2A80
4A40
8A20
ENDCHAR
STARTCHAR U+5180
ENCODING 20864
SWIDTH 1000 0
DWIDTH 12 0
BBX 11 12 0 -2
BITMAP
1260
F380
1A20
E1E0
3F80
2480
3F80
2480
3F80
1100
FFE0
2080
ENDCHAR
STARTCHAR U+5182
ENCODING 20866
SWIDTH 1000 0
DWIDTH 12 0
BBX 11 12 0 -2
BITMAP
FFE0
8020
8020
8020
8020
8020
8020
8020
8020
8020
80A0
8040
ENDCHAR
STARTCHAR U+5189
ENCODING 20873
SWIDTH 1000 0
DWIDTH 12 0
BBX 11 12 0 -2
BITMAP
0400
0400
7FC0
4440
4440
7FC0
4440
4440
FFE0
4040
4140
4080
ENDCHAR
STARTCHAR U+518A
ENCODING 20874
SWIDTH 1000 0
DWIDTH 12 0
BBX 11 11 0 -2
BITMAP
7FC0
4A40
4A40
4A40
FFE0
4A40
4A40
4A40
4A40
4040
4180
ENDCHAR
STARTCHAR U+518D
ENCODING 20877
SWIDTH 1000 0
DWIDTH 12 0
BBX 11 12 0 -2
BITMAP
FFE0
0400
7FC0
4440
4440
7FC0
4440
4440
FFE0
4040
4140
4080
ENDCHAR
STARTCHAR U+5191
ENCODING 20881
SWIDTH 1000 0
DWIDTH 12 0
BBX 9 12 1 -2
BITMAP
0800
FF80
8880
FF80
8880
FF80
4100
5D00
4100
5D00
4100
4600
ENDCHAR
STARTCHAR U+5192
ENCODING 20882
SWIDTH 1000 0
DWIDTH 12 0
BBX 9 12 1 -2
BITMAP
FF80
8080
BE80
8080
BE80
0000
7F00
4100
7F00
4100
7F00
4100
ENDCHAR
STARTCHAR U+5195
ENCODING 20885
SWIDTH 1000 0
DWIDTH 12 0
BBX 11 12 0 -2
BITMAP
7FC0
4040
5F40
2000
3F00
4200
FFC0
4440
7FC0
0A00
1220
E1E0
ENDCHAR
STARTCHAR U+5196
ENCODING 20886
SWIDTH 1000 0
DWIDTH 12 0
BBX 11 3 0 3
BITMAP
FFE0
8020
8020
ENDCHAR
STARTCHAR U+5197
ENCODING 20887
SWIDTH 1000 0
DWIDTH 12 0
BBX 11 11 0 -2
BITMAP
FFE0
8020
0000
1F00
1100
1100
1100
1100
2120
2120
C0E0
ENDCHAR
STARTCHAR U+51A0
ENCODING 20896
SWIDTH 1000 0
DWIDTH 12 0
BBX 11 11 0 -2
BITMAP
FFE0
8020
7840
03E0
FC40
2A40
2940
2840
49A0
4820
87E0
ENDCHAR
STARTCHAR U+51A2
ENCODING 20898
SWIDTH 1000 0
DWIDTH 12 0
BBX 11 12 0 -2
BITMAP
FFE0
8020
3F80
0800
1440
7A80
1300
6E80
0A40
F220
0A00
0400
ENDCHAR
STARTCHAR U+51A4
ENCODING 20900
SWIDTH 1000 0
DWIDTH 12 0
BBX 11 11 0 -2
BITMAP
FFE0
9020
1F00
2200
7F80
2480
3F80
0A00
1280
2220
C1E0
ENDCHAR
STARTCHAR U+51A5
ENCODING 20901
SWIDTH 1000 0
DWIDTH 12 0
BBX 11 12 0 -2
BITMAP
FFE0
8020
3F80
2080
3F80
2080
3F80
0400
FFE0
0000
1180
E060
ENDCHAR
STARTCHAR U+51AA
ENCODING 20906
SWIDTH 1000 0
DWIDTH 12 0
BBX 11 12 0 -2
BITMAP
FFE0
9120
7BC0
1100
3F80
2080
3F80
2080
FFE0
4440
BFA0
2480
ENDCHAR
STARTCHAR U+51AB
ENCODING 20907
SWIDTH 1000 0
DWIDTH 12 0
BBX 3 10 1 -1
BITMAP
80
40
40
00
00
20
40
40
80
80
ENDCHAR
STARTCHAR U+51AC
ENCODING 20908
SWIDTH 1000 0
DWIDTH 12 0
BBX 11 12 0 -2
BITMAP
0800
0800
1F80
3100
4A00
0400
1B00
E0E0
0400
1300
0C00
0300
ENDCHAR
STARTCHAR U+51B0
ENCODING 20912
SWIDTH 1000 0
DWIDTH 12 0
BBX 11 12 0 -2
BITMAP
0100
8100
4120
5D40
0580
0500
0580
4940
4940
9120
8500
0200
ENDCHAR
STARTCHAR U+51B6
ENCODING 20918
SWIDTH 1000 0
DWIDTH 12 0
BBX 11 12 0 -2
BITMAP
0200
8200
4400
4840
1FE0
0020
0FC0
4840
4840
8840
8FC0
0840
ENDCHAR
STARTCHAR U+51B7
ENCODING 20919
SWIDTH 1000 0
DWIDTH 12 0
BBX 11 12 0 -2
BITMAP
0200
8200
4500
4880
1760
0000
1FC0
4040
4080
8500
8200
0100
ENDCHAR
STARTCHAR U+51BD
ENCODING 20925
SWIDTH 1000 0
DWIDTH 12 0
BBX 11 12 0 -2
BITMAP
1E20
88A0
48A0
4EA0
12A0
2AA0
0AA0
42A0
44A0
8420
88A0
9040
ENDCHAR
STARTCHAR U+51C6
ENCODING 20934
SWIDTH 1000 0
DWIDTH 12 0
BBX 11 12 0 -2
BITMAP
0500
8480
4FE0
4900
1FC0
0900
0900
4FC0
4900
8900
8FE0
0800
ENDCHAR
STARTCHAR U+51CB
ENCODING 20939
SWIDTH 1000 0
DWIDTH 12 0
BBX 11 11 0 -2
BITMAP
8FE0
4920
4BA0
0920
0BA0
0920
4BA0
4AA0
93A0
9020
20C0
ENDCHAR
STARTCHAR U+51CC
ENCODING 20940
SWIDTH 1000 0
DWIDTH 12 0
BBX 11 12 0 -2
BITMAP
0200
8FC0
4200
5FE0
0480
08E0
1400
47C0
4C80
8300
8480
1860
ENDCHAR
STARTCHAR U+51CD
ENCODING 20941
SWIDTH 1000 0
DWIDTH 12 0
BBX 11 12 0 -2
BITMAP
0100
8FE0
4100
4FE0
0920
0FE0
0920
4FE0
4100
8380
8540
0920
ENDCHAR
STARTCHAR U+51DC
ENCODING 20956
SWIDTH 1000 0
DWIDTH 12 0
BBX 11 12 0 -2
BITMAP
0100
8FE0
4000
4FE0
0820
0BA0
0AA0
4FE0
4100
8FE0
8540
1920
ENDCHAR
STARTCHAR U+51DD
ENCODING 20957
SWIDTH 1000 0
DWIDTH 12 0
BBX 11 12 0 -2
BITMAP
13E0
9C20
5140
0C80
13E0
1CA0
2880
0AE0
5E80
8A80
9780
2460
ENDCHAR
STARTCHAR U+51E0
ENCODING 20960
SWIDTH 1000 0
DWIDTH 12 0
BBX 11 11 0 -2
BITMAP
3F00
2100
2100
2100
2100
2100
2100
2100
4120
4120
80E0
ENDCHAR
STARTCHAR U+51E1
ENCODING 20961
SWIDTH 1000 0
DWIDTH 12 0
BBX 11 11 0 -2
BITMAP
3F00
2100
2100
3100
2900
2500
2500
2100
2120
4120
80E0
ENDCHAR
STARTCHAR U+51F0
ENCODING 20976
SWIDTH 1000 0
DWIDTH 12 0
BBX 11 12 0 -2
BITMAP
7FC0
4840
5F40
5140
5F40
5140
5F40
4440
5F40
4440
5F60
8020
ENDCHAR
STARTCHAR U+51F1
ENCODING 20977
SWIDTH 1000 0
DWIDTH 12 0
BBX 11 12 0 -2
BITMAP
2000
AB80
FA80
0280
FA80
0280
FA80
8A80
FA80
52A0
3AA0
E460
ENDCHAR
STARTCHAR U+51F3
ENCODING 20979
SWIDTH 1000 0
DWIDTH 12 0
BBX 11 12 0 -2
BITMAP
F120
5F40
20A0
7FC0
A0A0
3F80
1100
FFE0
0000
1F00
1120
E0E0
ENDCHAR
STARTCHAR U+51F5
ENCODING 20981
SWIDTH 1000 0
DWIDTH 12 0
BBX 11 11 0 -2
BITMAP
8020
8020
8020
8020
8020
8020
8020
8020
8020
FFE0
0020
ENDCHAR
STARTCHAR U+51F6
ENCODING 20982
SWIDTH 1000 0
DWIDTH 12 0
BBX 11 11 0 -2
BITMAP
2080
1100
8A20
8420
8A20
9120
A0A0
80A0
8020
FFE0
0020
ENDCHAR
STARTCHAR U+51F8
ENCODING 20984
SWIDTH 1000 0
DWIDTH 12 0
BBX 10 11 1 -2
BITMAP
1E00
1200
1200
1200
F3C0
8040
8040
8040
8040
FFC0
8040
ENDCHAR
STARTCHAR U+51F9
ENCODING 20985
SWIDTH 1000 0
DWIDTH 12 0
BBX 11 12 0 -2
BITMAP
F1E0
9120
9120
9120
9F20
8020
8020
8020
8020
8020
FFE0
8020
ENDCHAR
STARTCHAR U+51FA
ENCODING 20986
SWIDTH 1000 0
DWIDTH 12 0
BBX 11 12 0 -2
BITMAP
0400
4440
4440
4440
7FC0
0400
0400
8420
8420
8420
FFE0
0020
ENDCHAR
STARTCHAR U+51FD
ENCODING 20989
SWIDTH 1000 0
DWIDTH 12 0
BBX 11 12 0 -2
BITMAP
3F80
0100
0200
A4A0
9520
8420
8E20
9520
A4A0
8C20
FFE0
0020
ENDCHAR
STARTCHAR U+5200
ENCODING 20992
SWIDTH 1000 0
DWIDTH 12 0
BBX 11 11 0 -2
BITMAP
FFE0
0420
0420
0420
0420
0820
0820
1020
2020
4140
8080
ENDCHAR
STARTCHAR U+5201
ENCODING 20993
SWIDTH 1000 0
DWIDTH 12 0
BBX 10 11 0 -2
BITMAP
7FC0
0040
0040
0240
0440
0840
1040
2040
C040
0280
0100
ENDCHAR
STARTCHAR U+5202
ENCODING 20994
SWIDTH 1000 0
DWIDTH 12 0
BBX 4 12 4 -2
BITMAP
10
10
90
90
90
90
90
90
90
10
50
20
ENDCHAR
STARTCHAR U+5203
ENCODING 20995
SWIDTH 1000 0
DWIDTH 12 0
BBX 10 11 0 -2
BITMAP
7FC0
0840
0840
4840
2840
1840
0840
1040
1040
2280
C100
ENDCHAR
STARTCHAR U+5206
ENCODING 20998
SWIDTH 1000 0
DWIDTH 12 0
BBX 11 12 0 -2
BITMAP
1100
1100
2080
2080
4040
BFA0
0880
0880
1080
1080
2500
4200
ENDCHAR
STARTCHAR U+5207
ENCODING 20999
SWIDTH 1000 0
DWIDTH 12 0
BBX 11 12 0 -2
BITMAP
2000
27E0
2120
2120
3920
E120
2120
2120
2A20
3220
24A0
0840
ENDCHAR
STARTCHAR U+5208
ENCODING 21000
SWIDTH 1000 0
DWIDTH 12 0
BBX 11 12 0 -2
BITMAP
0420
0420
8520
4920
2920
1120
1120
2920
2920
4420
44A0
8040
ENDCHAR
STARTCHAR U+520A
ENCODING 21002
SWIDTH 1000 0
DWIDTH 12 0
BBX 11 12 0 -2
BITMAP
0020
7CA0
10A0
10A0
10A0
FEA0
10A0
10A0
10A0
1020
10A0
1040
ENDCHAR
STARTCHAR U+520E
ENCODING 21006
SWIDTH 1000 0
DWIDTH 12 0
BBX 11 12 0 -2
BITMAP
4020
40A0
7EA0
AAA0
2AA0
2AA0
2AA0
4AA0
52A0
9220
2AA0
4440
ENDCHAR
STARTCHAR U+5211
ENCODING 21009
SWIDTH 1000 0
DWIDTH 12 0
BBX 11 12 0 -2
BITMAP
0020
7EA0
24A0
24A0
24A0
FEA0
24A0
24A0
24A0
4420
44A0
8440
ENDCHAR
STARTCHAR U+5212
ENCODING 21010
SWIDTH 1000 0
DWIDTH 12 0
BBX 11 12 0 -2
BITMAP
2420
2220
20A0
2EA0
F0A0
22A0
24A0
18A0
10A0
2A20
46A0
8240
ENDCHAR
STARTCHAR U+5216
ENCODING 21014
SWIDTH 1000 0
DWIDTH 12 0
BBX 11 12 0 -2
BITMAP
0020
7CA0
44A0
44A0
7CA0
44A0
44A0
7CA0
44A0
4420
54A0
8840
ENDCHAR
STARTCHAR U+5217
ENCODING 21015
SWIDTH 1000 0
DWIDTH 12 0
BBX 11 12 0 -2
BITMAP
0020
FE20
2120
2120
3D20
4520
A520
1520
0920
1020
20A0
C040
ENDCHAR
STARTCHAR U+521D
ENCODING 21021
SWIDTH 1000 0
DWIDTH 12 0
BBX 11 12 0 -2
BITMAP
4000
27E0
F920
1120
2120
6920
B120
2920
2220
2220
24A0
2840
ENDCHAR
STARTCHAR U+5224
ENCODING 21028
SWIDTH 1000 0
DWIDTH 12 0
BBX 11 12 0 -2
BITMAP
1020
92A0
54A0
10A0
FEA0
10A0
10A0
FEA0
10A0
2020
40A0
8040
ENDCHAR
STARTCHAR U+5225
ENCODING 21029
SWIDTH 1000 0
DWIDTH 12 0
BBX 11 12 0 -2
BITMAP
0020
7CA0
44A0
44A0
7CA0
20A0
3EA0
22A0
22A0
4220
54A0
8840
ENDCHAR
STARTCHAR U+5228
ENCODING 21032
SWIDTH 1000 0
DWIDTH 12 0
BBX 11 12 0 -2
BITMAP
4020
40A0
7CA0
84A0
74A0
54A0
54A0
74A0
48A0
4220
42A0
3E40
ENDCHAR
STARTCHAR U+5229
ENCODING 21033
SWIDTH 1000 0
DWIDTH 12 0
BBX 11 12 0 -2
BITMAP
0C20
70A0
10A0
10A0
FEA0
10A0
38A0
34A0
52A0
9020
10A0
1040
ENDCHAR
STARTCHAR U+522A
ENCODING 21034
SWIDTH 1000 0
DWIDTH 12 0
BBX 11 12 0 -2
BITMAP
0020
FEA0
AAA0
AAA0
AAA0
FFA0
AAA0
AAA0
AAA0
AA20
82A0
8C40
ENDCHAR
STARTCHAR U+522E
ENCODING 21038
SWIDTH 1000 0
DWIDTH 12 0
BBX 11 12 0 -2
BITMAP
0C20
70A0
10A0
10A0
FEA0
10A0
10A0
7CA0
44A0
4420
7CA0
4440
ENDCHAR
STARTCHAR U+5230
ENCODING 21040
SWIDTH 1000 0
DWIDTH 12 0
BBX 11 12 0 -2
BITMAP
FE20
1020
20A0
44A0
FEA0
12A0
10A0
7CA0
10A0
1020
1EA0
E040
ENDCHAR
STARTCHAR U+5236
ENCODING 21046
SWIDTH 1000 0
DWIDTH 12 0
BBX 11 12 0 -2
BITMAP
1020
50A0
7CA0
90A0
FEA0
10A0
7CA0
54A0
54A0
5420
58A0
1040
ENDCHAR
STARTCHAR U+5237
ENCODING 21047
SWIDTH 1000 0
DWIDTH 12 0
BBX 11 12 0 -2
BITMAP
7E20
42A0
42A0
7EA0
40A0
48A0
7EA0
6AA0
AAA0
2C20
08A0
0840
ENDCHAR
STARTCHAR U+5238
ENCODING 21048
SWIDTH 1000 0
DWIDTH 12 0
BBX 11 12 0 -2
BITMAP
2480
1500
7FC0
0800
FFE0
1100
2080
DF60
0900
0900
1100
6600
ENDCHAR
STARTCHAR U+523A
ENCODING 21050
SWIDTH 1000 0
DWIDTH 12 0
BBX 11 12 0 -2
BITMAP
1020
10A0
FEA0
10A0
FEA0
92A0
92A0
94A0
38A0
5420
92A0
1040
ENDCHAR
STARTCHAR U+523B
ENCODING 21051
SWIDTH 1000 0
DWIDTH 12 0
BBX 11 12 0 -2
BITMAP
2020
10A0
FEA0
10A0
24A0
48A0
F2A0
24A0
C8A0
1820
24A0
C240
ENDCHAR
STARTCHAR U+5241
ENCODING 21057
SWIDTH 1000 0
DWIDTH 12 0
BBX 11 12 0 -2
BITMAP
7C20
4420
44A0
44A0
46A0
90A0
10A0
FEA0
10A0
3820
54A0
9240
ENDCHAR
STARTCHAR U+5243
ENCODING 21059
SWIDTH 1000 0
DWIDTH 12 0
BBX 11 12 0 -2
BITMAP
4420
28A0
FCA0
14A0
FCA0
90A0
90A0
FEA0
32A0
5220
94A0
1040
ENDCHAR
STARTCHAR U+5247
ENCODING 21063
SWIDTH 1000 0
DWIDTH 12 0
BBX 11 12 0 -2
BITMAP
0020
FD20
8520
FD20
8520
FD20
8520
8520
FD20
0020
48A0
8440
ENDCHAR
STARTCHAR U+524A
ENCODING 21066
SWIDTH 1000 0
DWIDTH 12 0
BBX 10 12 1 -2
BITMAP
2040
AA40
7240
2240
FA40
8A40
FA40
8A40
FA40
8840
A940
9080
ENDCHAR
STARTCHAR U+524B
ENCODING 21067
SWIDTH 1000 0
DWIDTH 12 0
BBX 11 12 0 -2
BITMAP
2040
2140
F940
2140
F940
8940
8940
F840
5140
5080
5020
8FE0
ENDCHAR
STARTCHAR U+524C
ENCODING 21068
SWIDTH 1000 0
DWIDTH 12 0
BBX 11 12 0 -2
BITMAP
1020
10A0
FEA0
10A0
FEA0
92A0
FEA0
10A0
38A0
5420
92A0
1040
ENDCHAR
STARTCHAR U+524D
ENCODING 21069
SWIDTH 1000 0
DWIDTH 12 0
BBX 11 12 0 -2
BITMAP
2080
1100
FFE0
0000
7840
4940
7940
4940
7940
4840
4940
5080
ENDCHAR
STARTCHAR U+524E
ENCODING 21070
SWIDTH 1000 0
DWIDTH 12 0
BBX 11 12 0 -2
BITMAP
6420
18A0
24A0
C2A0
14A0
10A0
FEA0
10A0
54A0
5420
96A0
1040
ENDCHAR
STARTCHAR U+5254
ENCODING 21076
SWIDTH 1000 0
DWIDTH 12 0
BBX 11 12 0 -2
BITMAP
7C20
44A0
7CA0
44A0
7CA0
40A0
7EA0
AAA0
2AA0
5220
92A0
2440
ENDCHAR
STARTCHAR U+5256
ENCODING 21078
SWIDTH 1000 0
DWIDTH 12 0
BBX 11 12 0 -2
BITMAP
2020
10A0
FEA0
44A0
28A0
FEA0
00A0
7CA0
44A0
4420
7CA0
4440
ENDCHAR
STARTCHAR U+525B
ENCODING 21083
SWIDTH 1000 0
DWIDTH 12 0
BBX 11 12 0 -2
BITMAP
FE20
82A0
AAA0
92A0
FEA0
92A0
D6A0
D6A0
FEA0
8220
8AA0
8440
ENDCHAR
STARTCHAR U+525C
ENCODING 21084
SWIDTH 1000 0
DWIDTH 12 0
BBX 11 12 0 -2
BITMAP
1020
FEA0
82A0
40A0
6EA0
AAA0
AAA0
6AA0
2CA0
4820
48A0
8640
ENDCHAR
STARTCHAR U+525D
ENCODING 21085
SWIDTH 1000 0
DWIDTH 12 0
BBX 11 12 0 -2
BITMAP
2020
3CA0
44A0
78A0
08A0
FEA0
10A0
54A0
38A0
5420
92A0
3040
ENDCHAR
STARTCHAR U+5269
ENCODING 21097
SWIDTH 1000 0
DWIDTH 12 0
BBX 11 12 0 -2
BITMAP
0C20
70A0
10A0
FEA0
54A0
D6A0
54A0
D2A0
38A0
5420
92A0
1040
ENDCHAR
STARTCHAR U+526A
ENCODING 21098
SWIDTH 1000 0
DWIDTH 12 0
BBX 11 12 0 -2
BITMAP
2080
FFE0
4840
7A40
4A40
7A40
48C0
0000
7FC0
0840
3040
C180
ENDCHAR
STARTCHAR U+526F
ENCODING 21103
SWIDTH 1000 0
DWIDTH 12 0
BBX 11 12 0 -2
BITMAP
FE20
00A0
7CA0
44A0
7CA0
00A0
FEA0
92A0
FEA0
9220
FEA0
8240
ENDCHAR
STARTCHAR U+5272
ENCODING 21106
SWIDTH 1000 0
DWIDTH 12 0
BBX 11 12 0 -2
BITMAP
1020
FEA0
92A0
7CA0
10A0
7CA0
10A0
FEA0
10A0
7C20
44A0
7C40
ENDCHAR
STARTCHAR U+5274
ENCODING 21108
SWIDTH 1000 0
DWIDTH 12 0
BBX 11 12 0 -2
BITMAP
1020
92A0
FEA0
00A0
FEA0
00A0
7CA0
44A0
7CA0
2820
1EA0
E040
ENDCHAR
STARTCHAR U+5275
ENCODING 21109
SWIDTH 1000 0
DWIDTH 12 0
BBX 11 12 0 -2
BITMAP
1020
28A0
44A0
FEA0
44A0
7CA0
44A0
7CA0
40A0
7C20
A4A0
3C40
ENDCHAR
STARTCHAR U+5277
ENCODING 21111
SWIDTH 1000 0
DWIDTH 12 0
BBX 11 12 0 -2
BITMAP
0820
7EA0
24A0
18A0
24A0
7EA0
48A0
7EA0
68A0
5C20
48A0
BE40
ENDCHAR
STARTCHAR U+527D
ENCODING 21117
SWIDTH 1000 0
DWIDTH 12 0
BBX 11 12 0 -2
BITMAP
FE20
28A0
FEA0
AAA0
FEA0
00A0
7CA0
00A0
FEA0
1020
54A0
B240
ENDCHAR
STARTCHAR U+527F
ENCODING 21119
SWIDTH 1000 0
DWIDTH 12 0
BBX 11 12 0 -2
BITMAP
5420
A8A0
54A0
7CA0
54A0
7CA0
54A0
7CA0
10A0
FE20
54A0
9240
ENDCHAR
STARTCHAR U+5282
ENCODING 21122
SWIDTH 1000 0
DWIDTH 12 0
BBX 11 12 0 -2
BITMAP
7F20
44A0
6CA0
57A0
79A0
52A0
5AA0
7AA0
52A0
5520
55A0
A940
ENDCHAR
STARTCHAR U+5283
ENCODING 21123
SWIDTH 1000 0
DWIDTH 12 0
BBX 11 12 0 -2
BITMAP
1020
7CA0
14A0
FEA0
14A0
7CA0
00A0
7CA0
54A0
7C20
54A0
FE40
ENDCHAR
STARTCHAR U+5287
ENCODING 21127
SWIDTH 1000 0
DWIDTH 12 0
BBX 11 12 0 -2
BITMAP
1E20
10A0
7EA0
52A0
7CA0
50A0
7EA0
50A0
6AA0
5C20
6AA0
9040
ENDCHAR
STARTCHAR U+5288
ENCODING 21128
SWIDTH 1000 0
DWIDTH 12 0
BBX 11 12 0 -2
BITMAP
7880
4BE0
7940
43E0
7880
ABE0
3880
0000
7FC0
0840
1040
E180
ENDCHAR
STARTCHAR U+5289
ENCODING 21129
SWIDTH 1000 0
DWIDTH 12 0
BBX 11 12 0 -2
BITMAP
2020
DEA0
8AA0
AAA0
D6A0
28A0
44A0
BAA0
10A0
FE20
54A0
FE40
ENDCHAR
STARTCHAR U+528A
ENCODING 21130
SWIDTH 1000 0
DWIDTH 12 0
BBX 11 12 0 -2
BITMAP
3820
44A0
BAA0
00A0
FEA0
92A0
B6A0
FEA0
44A0
7420
44A0
7C40
ENDCHAR
STARTCHAR U+528D
ENCODING 21133
SWIDTH 1000 0
DWIDTH 12 0
BBX 11 12 0 -2
BITMAP
1020
28A0
44A0
BAA0
00A0
EEA0
AAA0
EEA0
00A0
4420
44A0
AA40
ENDCHAR
STARTCHAR U+5291
ENCODING 21137
SWIDTH 1000 0
DWIDTH 12 0
BBX 11 12 0 -2
BITMAP
1020
FEA0
28A0
D6A0
54A0
54A0
B6A0
44A0
7CA0
4420
7CA0
8440
ENDCHAR
STARTCHAR U+5293
ENCODING 21139
SWIDTH 1000 0
DWIDTH 12 0
BBX 11 12 0 -2
BITMAP
1020
7CA0
44A0
7CA0
44A0
FEA0
92A0
FEA0
00A0
FE20
44A0
8440
ENDCHAR
STARTCHAR U+529B
ENCODING 21147
SWIDTH 1000 0
DWIDTH 12 0
BBX 11 12 0 -2
BITMAP
0400
0400
0400
7FE0
0420
0420
0820
0820
1020
2020
4140
8080
ENDCHAR
STARTCHAR U+529F
ENCODING 21151
SWIDTH 1000 0
DWIDTH 12 0
BBX 11 12 0 -2
BITMAP
0100
0100
F900
27E0
2120
2120
2120
2120
2220
3A20
C4A0
0840
ENDCHAR
STARTCHAR U+52A0
ENCODING 21152
SWIDTH 1000 0
DWIDTH 12 0
BBX 11 12 0 -2
BITMAP
2000
2000
FDE0
2520
2520
2520
2520
2520
2520
45E0
5520
8800
ENDCHAR
STARTCHAR U+52A3
ENCODING 21155
SWIDTH 1000 0
DWIDTH 12 0
BBX 11 12 0 -2
BITMAP
0400
2480
4440
8DA0
0600
F800
0800
7FC0
0840
1040
2280
C100
ENDCHAR
STARTCHAR U+52A9
ENCODING 21161
SWIDTH 1000 0
DWIDTH 12 0
BBX 11 12 0 -2
BITMAP
0100
7900
4900
7BE0
4920
4920
7920
4920
4920
5E20
E2A0
0440
ENDCHAR
STARTCHAR U+52AA
ENCODING 21162
SWIDTH 1000 0
DWIDTH 12 0
BBX 11 12 0 -2
BITMAP
4000
FBC0
5040
5280
2100
5280
8C60
0400
7FC0
0840
1040
6180
ENDCHAR
STARTCHAR U+52AB
ENCODING 21163
SWIDTH 1000 0
DWIDTH 12 0
BBX 11 12 0 -2
BITMAP
1080
1080
7C80
13E0
10A0
FEA0
20A0
24A0
4D20
7520
02A0
0440
ENDCHAR
STARTCHAR U+52AC
ENCODING 21164
SWIDTH 1000 0
DWIDTH 12 0
BBX 11 12 0 -2
BITMAP
4080
4080
7C80
87E0
74A0
54A0
54A0
54A0
54A0
7520
0520
1A40
ENDCHAR
STARTCHAR U+52BB
ENCODING 21179
SWIDTH 1000 0
DWIDTH 12 0
BBX 11 12 0 -2
BITMAP
0080
FE80
8080
BDE0
88A0
88A0
BCA0
88A0
88A0
BD20
8120
FE40
ENDCHAR
STARTCHAR U+52BE
ENCODING 21182
SWIDTH 1000 0
DWIDTH 12 0
BBX 11 12 0 -2
BITMAP
2080
1080
FE80
11E0
24A0
48A0
F2A0
24A0
C8A0
1920
2520
C240
ENDCHAR
STARTCHAR U+52C1
ENCODING 21185
SWIDTH 1000 0
DWIDTH 12 0
BBX 11 12 0 -2
BITMAP
0100
FD00
0100
57E0
A920
5520
0120
7920
1120
1220
1AA0
E440
ENDCHAR
STARTCHAR U+52C3
ENCODING 21187
SWIDTH 1000 0
DWIDTH 12 0
BBX 11 12 0 -2
BITMAP
1080
FC80
1080
FDE0
84A0
78A0
08A0
10A0
1D20
F120
12A0
3440
ENDCHAR
STARTCHAR U+52C7
ENCODING 21191
SWIDTH 1000 0
DWIDTH 12 0
BBX 11 12 0 -2
BITMAP
7F80
0A00
7FC0
4440
7FC0
4440
7FC0
4440
0880
FFE0
1020
E0C0
ENDCHAR
STARTCHAR U+52C9
ENCODING 21193
SWIDTH 1000 0
DWIDTH 12 0
BBX 11 12 0 -2
BITMAP
4100
7100
9100
FBC0
A940
A940
F940
5240
5240
5480
5020
8FE0
ENDCHAR
STARTCHAR U+52D2
ENCODING 21202
SWIDTH 1000 0
DWIDTH 12 0
BBX 11 12 0 -2
BITMAP
2880
FE80
2880
3BE0
10A0
7CA0
54A0
7D20
1120
FD20
12A0
1440
ENDCHAR
STARTCHAR U+52D5
ENCODING 21205
SWIDTH 1000 0
DWIDTH 12 0
BBX 11 12 0 -2
BITMAP
0C80
7080
1080
FDE0
54A0
7CA0
54A0
7CA0
10A0
7920
1D20
E240
ENDCHAR
STARTCHAR U+52D7
ENCODING 21207
SWIDTH 1000 0
DWIDTH 12 0
BBX 11 12 0 -2
BITMAP
3F80
2080
3E80
2080
3F80
0000
7880
4BE0
78A0
48A0
5D20
E240
ENDCHAR
STARTCHAR U+52D8
ENCODING 21208
SWIDTH 1000 0
DWIDTH 12 0
BBX 11 12 0 -2
BITMAP
2480
7E80
2480
3DE0
24A0
3CA0
24A0
FEA0
54A0
66A0
40A0
3D40
ENDCHAR
STARTCHAR U+52D9
ENCODING 21209
SWIDTH 1000 0
DWIDTH 12 0
BBX 11 12 0 -2
BITMAP
0200
FBE0
0A40
5440
2380
FC60
2900
67C0
A140
2240
A540
4880
ENDCHAR
STARTCHAR U+52DB
ENCODING 21211
SWIDTH 1000 0
DWIDTH 12 0
BBX 11 12 0 -2
BITMAP
7880
4880
7880
03E0
FCA0
84A0
FCA0
84A0
FD20
8520
7A20
8440
ENDCHAR
STARTCHAR U+52DD
ENCODING 21213
SWIDTH 1000 0
DWIDTH 12 0
BBX 11 12 0 -2
BITMAP
0540
7100
57C0
5200
77E0
5440
5A20
77C0
5240
5240
9540
A880
ENDCHAR
STARTCHAR U+52DE
ENCODING 21214
SWIDTH 1000 0
DWIDTH 12 0
BBX 11 12 0 -2
BITMAP
2080
AAA0
2080
5140
8A20
FFE0
8020
0400
7FC0
0840
1280
E100
ENDCHAR
STARTCHAR U+52DF
ENCODING 21215
SWIDTH 1000 0
DWIDTH 12 0
BBX 11 12 0 -2
BITMAP
1100
FBE0
1100
3F80
2080
3F80
2080
FFE0
4840
BFA0
0880
7300
ENDCHAR
STARTCHAR U+52E2
ENCODING 21218
SWIDTH 1000 0
DWIDTH 12 0
BBX 11 12 0 -2
BITMAP
1100
7BC0
1140
FB40
49C0
9540
7A60
1420
FFC0
0840
1040
E180
ENDCHAR
STARTCHAR U+52E3
ENCODING 21219
SWIDTH 1000 0
DWIDTH 12 0
BBX 11 12 0 -2
BITMAP
1080
FE80
1080
7DE0
10A0
FEA0
44A0
7CA0
4520
7D20
2A20
C4C0
ENDCHAR
STARTCHAR U+52E4
ENCODING 21220
SWIDTH 1000 0
DWIDTH 12 0
BBX 11 12 0 -2
BITMAP
4880
FC80
4880
7BE0
10A0
FCA0
94A0
FCA0
1120
F920
1D20
E240
ENDCHAR
STARTCHAR U+52E6
ENCODING 21222
SWIDTH 1000 0
DWIDTH 12 0
BBX 11 12 0 -2
BITMAP
5480
A880
5480
7DE0
54A0
7CA0
54A0
7CA0
10A0
FD20
5920
9640
ENDCHAR
STARTCHAR U+52F0
ENCODING 21232
SWIDTH 1000 0
DWIDTH 12 0
BBX 11 12 0 -2
BITMAP
2000
FBE0
2AA0
4BE0
9AA0
03E0
5000
FC80
5520
5720
5540
A8C0
ENDCHAR
STARTCHAR U+52F3
ENCODING 21235
SWIDTH 1000 0
DWIDTH 12 0
BBX 11 12 0 -2
BITMAP
0C80
7080
11E0
FEA0
10A0
FEA0
BAA0
FEA0
10A0
FEA0
0120
AA40
ENDCHAR
STARTCHAR U+52F5
ENCODING 21237
SWIDTH 1000 0
DWIDTH 12 0
BBX 11 12 0 -2
BITMAP
FE80
9480
BE80
95E0
BEA0
AAA0
BEA0
AAA0
FEA0
CAA0
4EA0
5340
ENDCHAR
STARTCHAR U+52F8
ENCODING 21240
SWIDTH 1000 0
DWIDTH 12 0
BBX 11 12 0 -2
BITMAP
2880
EE80
2880
EFE0
AAA0
EEA0
28A0
7EA0
C8A0
7CA0
4920
7E40
ENDCHAR
STARTCHAR U+52F9
ENCODING 21241
SWIDTH 1000 0
DWIDTH 12 0
BBX 11 12 0 -2
BITMAP
2000
3FE0
4020
8020
0020
0020
0020
0020
0020
0020
0140
0080
ENDCHAR
STARTCHAR U+52FA
ENCODING 21242
SWIDTH 1000 0
DWIDTH 12 0
BBX 10 12 0 -2
BITMAP
2000
2000
3FC0
4040
8040
1040
0840
0440
0040
0040
0280
0100
ENDCHAR
STARTCHAR U+52FB
ENCODING 21243
SWIDTH 1000 0
DWIDTH 12 0
BBX 10 12 0 -2
BITMAP
2000
3FC0
4040
8040
3E40
0040
0040
7F40
0040
0040
0280
0100
ENDCHAR
STARTCHAR U+52FE
ENCODING 21246
SWIDTH 1000 0
DWIDTH 12 0
BBX 10 12 0 -2
BITMAP
1000
1000
1FC0
2040
4840
9040
1240
2140
3F40
0140
0280
0100
ENDCHAR
STARTCHAR U+52FF
ENCODING 21247
SWIDTH 1000 0
DWIDTH 12 0
BBX 10 12 0 -2
BITMAP
2000
2000
3FC0
5240
9240
1240
2240
2440
4440
8840
1280
2100
ENDCHAR
STARTCHAR U+5305
ENCODING 21253
SWIDTH 1000 0
DWIDTH 12 0
BBX 11 12 0 -2
BITMAP
2000
3FC0
4040
8040
3E40
2240
2240
3E40
2080
2020
2020
1FE0
ENDCHAR
STARTCHAR U+5306
ENCODING 21254
SWIDTH 1000 0
DWIDTH 12 0
BBX 10 12 0 -2
BITMAP
1000
1000
3FC0
5240
9240
7240
1C40
2640
4540
8840
1280
2100
ENDCHAR
STARTCHAR U+5308
ENCODING 21256
SWIDTH 1000 0
DWIDTH 12 0
BBX 10 12 0 -2
BITMAP
2000
2000
3FC0
4040
9440
4940
5540
6540
4140
7F40
0040
0180
ENDCHAR
STARTCHAR U+530D
ENCODING 21261
SWIDTH 1000 0
DWIDTH 12 0
BBX 11 12 0 -2
BITMAP
2000
3FE0
4A20
BF20
0820
7F20
4920
7F20
4920
7F20
4920
4240
ENDCHAR
STARTCHAR U+530F
ENCODING 21263
SWIDTH 1000 0
DWIDTH 12 0
BBX 11 12 0 -2
BITMAP
2200
FA00
23E0
5420
8BA0
72A0
02A0
FAA0
4340
7200
1220
21E0
ENDCHAR
STARTCHAR U+5310
ENCODING 21264
SWIDTH 1000 0
DWIDTH 12 0
BBX 11 12 0 -2
BITMAP
2000
3FE0
4020
BF20
0020
3E20
2220
7F20
4920
7F20
4920
7F40
ENDCHAR
STARTCHAR U+5315
ENCODING 21269
SWIDTH 1000 0
DWIDTH 12 0
BBX 10 12 1 -2
BITMAP
8000
8000
8080
8300
8C00
F000
8000
8000
8000
8040
8040
7FC0
ENDCHAR
STARTCHAR U+5316
ENCODING 21270
SWIDTH 1000 0
DWIDTH 12 0
BBX 11 12 0 -2
BITMAP
1400
1400
2420
6440
A480
2500
2600
2400
2400
2420
2420
23E0
ENDCHAR
STARTCHAR U+5317
ENCODING 21271
SWIDTH 1000 0
DWIDTH 12 0
BBX 11 12 0 -2
BITMAP
1200
1200
1200
1240
F280
1300
1200
1200
1200
1220
1A20
E1E0
ENDCHAR
STARTCHAR U+5319
ENCODING 21273
SWIDTH 1000 0
DWIDTH 12 0
BBX 11 12 0 -2
BITMAP
7900
4900
7920
4920
7940
0180
FD00
1120
5D20
50E0
B000
8FE0
ENDCHAR
STARTCHAR U+531A
ENCODING 21274
SWIDTH 1000 0
DWIDTH 12 0
BBX 11 12 0 -2
BITMAP
FFE0
8000
8000
8000
8000
8000
8000
8000
8000
8000
FFE0
8000
ENDCHAR
STARTCHAR U+531D
ENCODING 21277
SWIDTH 1000 0
DWIDTH 12 0
BBX 11 11 0 -2
BITMAP
FFE0
8400
8400
BF80
A480
A480
A480
A500
8400
8400
FFE0
ENDCHAR
STARTCHAR U+5320
ENCODING 21280
SWIDTH 1000 0
DWIDTH 12 0
BBX 10 11 0 -2
BITMAP
FFC0
8000
8380
9C00
9000
9FC0
9200
9200
A200
8200
FFC0
ENDCHAR
STARTCHAR U+5321
ENCODING 21281
SWIDTH 1000 0
DWIDTH 12 0
BBX 10 11 1 -2
BITMAP
FFC0
8000
BF80
8400
8400
9F00
8400
8400
BF80
8000
FFC0
ENDCHAR
STARTCHAR U+5323
ENCODING 21283
SWIDTH 1000 0
DWIDTH 12 0
BBX 11 12 0 -2
BITMAP
FFE0
8000
BF80
A480
BF80
A480
A480
BF80
8400
8400
8000
FFE0
ENDCHAR
STARTCHAR U+532A
ENCODING 21290
SWIDTH 1000 0
DWIDTH 12 0
BBX 11 12 0 -2
BITMAP
FFE0
8000
8900
B9C0
8900
B9C0
8900
9900
E9C0
8900
9100
FFE0
ENDCHAR
STARTCHAR U+532F
ENCODING 21295
SWIDTH 1000 0
DWIDTH 12 0
BBX 11 12 0 -2
BITMAP
FFE0
A280
9240
87E0
AC80
97C0
8480
97C0
A480
A7E0
8400
FFE0
ENDCHAR
STARTCHAR U+5331
ENCODING 21297
SWIDTH 1000 0
DWIDTH 12 0
BBX 11 12 0 -2
BITMAP
FFE0
8200
9FC0
9240
BFE0
9040
9FC0
9040
9FC0
8880
9040
FFE0
ENDCHAR
STARTCHAR U+5338
ENCODING 21304
SWIDTH 1000 0
DWIDTH 12 0
BBX 11 11 0 -2
BITMAP
FFE0
4000
4000
4000
4000
4000
4000
4000
4000
4000
3FE0
ENDCHAR
STARTCHAR U+5339
ENCODING 21305
SWIDTH 1000 0
DWIDTH 12 0
BBX 11 11 0 -2
BITMAP
FFE0
4900
4900
4900
4900
5100
5100
60E0
4000
4000
3FE0
ENDCHAR
STARTCHAR U+533E
ENCODING 21310
SWIDTH 1000 0
DWIDTH 12 0
BBX 11 12 0 -2
BITMAP
FFE0
4200
5FE0
5020
5FE0
5000
5FE0
5AA0
6FE0
4AA0
4840
3FE0
ENDCHAR
ENDFONT
